<svg width="54" height="54" viewBox="0 0 54 54" fill="none" xmlns="http://www.w3.org/2000/svg">
<mask id="mask0_793_2307" style="mask-type:luminance" maskUnits="userSpaceOnUse" x="5" y="19" width="44" height="23">
<path d="M5 19.8507H49V41.8331H5V19.8507Z" fill="white"/>
</mask>
<g mask="url(#mask0_793_2307)">
<path d="M35.6402 23.8314C33.9724 23.8314 32.4026 23.0873 31.3204 21.85C30.2822 20.6641 28.7296 19.9116 27 19.9116C25.2704 19.9116 23.7264 20.6641 22.6796 21.85C21.5974 23.0873 20.0276 23.8314 18.3598 23.8314H5V41.8288H49V23.8314H35.6402Z" fill="#FFCDB2"/>
</g>
<path d="M24.3864 27.7104L26.0469 30.7618C26.4742 31.5464 27.5343 31.5464 27.9616 30.7618L29.622 27.7104C29.8604 27.2484 30 26.7251 30 26.1586C30 24.4061 28.6602 22.9762 27.0003 22.9762C25.3478 22.9762 24 24.3971 24 26.1586C24.0085 26.7251 24.1481 27.2568 24.3864 27.7104Z" fill="#FFE7AF"/>
<mask id="mask1_793_2307" style="mask-type:luminance" maskUnits="userSpaceOnUse" x="5" y="27" width="44" height="15">
<path d="M5 27.7644H49V42H5V27.7644Z" fill="white"/>
</mask>
<g mask="url(#mask1_793_2307)">
<path d="M43.4914 30.9581C42.3736 29.1275 40.3421 27.8983 38 27.8983C35.6579 27.8983 33.6178 29.1275 32.5086 30.9581C31.4 32.7977 29.3507 34.0269 27 34.0269C24.6579 34.0269 22.6086 32.7977 21.4914 30.9581C20.3736 29.1275 18.3421 27.8983 16 27.8983C13.6579 27.8983 11.6178 29.1275 10.5086 30.9581C9.4 32.7977 7.35068 34.0269 5 34.0269V41.9872H49V34.0269C46.6579 34.0269 44.6086 32.7977 43.4914 30.9581Z" fill="#EF6D78"/>
</g>
<mask id="mask2_793_2307" style="mask-type:luminance" maskUnits="userSpaceOnUse" x="26" y="12" width="2" height="5">
<path d="M26.2021 12H27.8014V16.2536H26.2021V12Z" fill="white"/>
</mask>
<g mask="url(#mask2_793_2307)">
<path d="M27.002 16.1541C26.6152 16.1541 26.2983 15.8405 26.2983 15.4566V12.702C26.2983 12.3181 26.6152 12.0045 27.002 12.0045C27.3887 12.0045 27.7056 12.3181 27.7056 12.702V15.4566C27.7056 15.8405 27.3887 16.1541 27.002 16.1541Z" fill="#49454F"/>
</g>
<path d="M31.24 17.4187C31.0731 17.4187 30.897 17.3575 30.7653 17.2355C30.4841 16.9736 30.4574 16.529 30.7215 16.2502L32.7791 14.0357C33.0426 13.757 33.4912 13.7306 33.7729 13.9919C34.0541 14.2538 34.0807 14.6984 33.8167 14.9772L31.7591 17.1917C31.6273 17.34 31.4337 17.4187 31.24 17.4187Z" fill="#49454F"/>
<path d="M22.7633 17.4187C22.5696 17.4187 22.385 17.34 22.2442 17.1916L20.1866 14.9772C19.9225 14.6984 19.9402 14.2538 20.2304 13.9919C20.512 13.7305 20.9607 13.748 21.2242 14.0357L23.2818 16.2502C23.5458 16.529 23.5282 16.9736 23.238 17.2355C23.0972 17.3575 22.9302 17.4187 22.7633 17.4187Z" fill="#49454F"/>
<mask id="mask3_793_2307" style="mask-type:luminance" maskUnits="userSpaceOnUse" x="5" y="37" width="3" height="2">
<path d="M5 37.2607H7.42V38.8435H5V37.2607Z" fill="white"/>
</mask>
<g mask="url(#mask3_793_2307)">
<path d="M5 38.7086H6.61448C7.00464 38.7086 7.32432 38.395 7.32432 38.0111C7.32432 37.6278 7.00464 37.3136 6.61448 37.3136H5V38.7086Z" fill="#D74962"/>
</g>
<path d="M11.0584 37.3136C10.6682 37.3136 10.3491 37.6278 10.3491 38.0111C10.3491 38.395 10.6682 38.7086 11.0584 38.7086H12.6734C13.0636 38.7086 13.3827 38.395 13.3827 38.0111C13.3827 37.6278 13.0636 37.3136 12.6734 37.3136H11.0584Z" fill="#D74962"/>
<path d="M16.3994 38.0111C16.3994 38.395 16.7185 38.7086 17.1087 38.7086H18.7237C19.1139 38.7086 19.433 38.395 19.433 38.0111C19.433 37.6278 19.1139 37.3136 18.7237 37.3136H17.1087C16.7185 37.3136 16.3994 37.6278 16.3994 38.0111Z" fill="#D74962"/>
<path d="M23.1679 38.7086H24.7823C25.1725 38.7086 25.4922 38.395 25.4922 38.0111C25.4922 37.6278 25.1725 37.3136 24.7823 37.3136H23.1679C22.7777 37.3136 22.458 37.6278 22.458 38.0111C22.458 38.395 22.7777 38.7086 23.1679 38.7086Z" fill="#D74962"/>
<path d="M29.2264 38.7086H30.8414C31.2316 38.7086 31.5507 38.395 31.5507 38.0111C31.5507 37.6278 31.2316 37.3136 30.8414 37.3136H29.2264C28.8362 37.3136 28.5171 37.6278 28.5171 38.0111C28.5171 38.395 28.8276 38.7086 29.2264 38.7086Z" fill="#D74962"/>
<path d="M35.2762 38.7086H36.8912C37.2814 38.7086 37.6005 38.395 37.6005 38.0111C37.6005 37.6278 37.2814 37.3136 36.8912 37.3136H35.2762C34.886 37.3136 34.5669 37.6278 34.5669 38.0111C34.5669 38.395 34.886 38.7086 35.2762 38.7086Z" fill="#D74962"/>
<path d="M41.3353 37.3136C40.9452 37.3136 40.6255 37.6278 40.6255 38.0111C40.6255 38.395 40.9452 38.7086 41.3353 38.7086H42.9498C43.34 38.7086 43.6597 38.395 43.6597 38.0111C43.6597 37.6278 43.34 37.3136 42.9498 37.3136H41.3353Z" fill="#D74962"/>
<mask id="mask4_793_2307" style="mask-type:luminance" maskUnits="userSpaceOnUse" x="46" y="37" width="3" height="2">
<path d="M46.5801 37.2607H49.0001V38.8435H46.5801V37.2607Z" fill="white"/>
</mask>
<g mask="url(#mask4_793_2307)">
<path d="M49.0001 37.3136H47.3856C46.9955 37.3136 46.6758 37.6278 46.6758 38.0111C46.6758 38.395 46.9955 38.7086 47.3856 38.7086H49.0001V37.3136Z" fill="#D74962"/>
</g>
</svg>
