<svg width="55" height="54" viewBox="0 0 55 54" fill="none" xmlns="http://www.w3.org/2000/svg">
<path fill-rule="evenodd" clip-rule="evenodd" d="M21.0884 14.5829L32.2179 14.4884C32.4699 14.5514 32.7527 14.3946 32.8465 14.1118C32.9725 13.5769 33.067 13.0113 33.067 12.445C33.067 8.89246 30.1746 6 26.622 6C23.101 6 20.2085 8.89246 20.2085 12.445C20.2085 13.0428 20.3023 13.6399 20.4598 14.2056C20.5228 14.4261 20.7426 14.5829 20.9631 14.5829C20.9946 14.5829 21.0569 14.5829 21.0884 14.5829Z" fill="#463C4B"/>
<path d="M27.1836 48.3C27.1836 48.3 27.0295 48.3 26.9672 48.2688C19.7586 48.3 14.5263 39.6635 13.687 32.5569C13.6558 32.3014 13.8421 32.0467 14.1219 31.9828L16.0505 20.8605L16.0817 20.7967L16.1128 20.7647L29.1756 14.582L29.2379 14.55L29.269 14.582L38.8173 23.5378L38.8485 23.601L40.1857 29.1785C40.4343 29.1785 40.6836 29.4013 40.6836 29.6887C40.6836 29.9434 40.6836 30.2301 40.6836 30.4848C40.6836 38.421 36.6336 48.3 27.3092 48.2688C27.2469 48.3 27.1836 48.3 27.1836 48.3Z" fill="#F9C5B8"/>
<path fill-rule="evenodd" clip-rule="evenodd" d="M14.1096 33.397C13.9213 33.397 13.7323 33.3032 13.6385 33.1142C11.4377 29.0275 12.0663 22.5195 15.1785 17.3317C18.0395 12.5849 22.4097 9.88074 27.1572 9.88074C35.0799 9.88074 41.4935 16.8291 41.4935 25.3804C41.4935 27.2355 41.273 28.87 40.8334 30.2847C40.7703 30.5052 40.5813 30.6305 40.3615 30.6305C40.1102 30.6305 39.9212 30.5052 39.8582 30.2847C39.1981 28.3044 37.3116 26.5124 36.2427 25.6002C35.3942 24.8771 34.3883 24.2485 33.3509 23.5884C31.2754 22.2675 29.1375 20.9473 27.9118 18.6834C27.4085 21.8909 25.4281 23.3056 22.4097 25.1914C17.5992 28.2099 15.0217 31.2907 14.6129 32.9889C14.5499 33.2087 14.3616 33.3662 14.1726 33.397C14.1411 33.397 14.1096 33.397 14.1096 33.397Z" fill="#555A6E"/>
<path fill-rule="evenodd" clip-rule="evenodd" d="M15.2099 27.6751C15.0846 27.6751 14.9271 27.6128 14.8326 27.5183C14.6443 27.3293 14.6443 26.9835 14.8326 26.7952C16.939 24.7203 19.3603 23.1166 20.6175 22.299C23.9188 20.2557 24.9247 19.627 24.5789 15.7602C24.5474 15.4767 24.7672 15.2254 25.0507 15.1939C25.3335 15.1624 25.5848 15.3829 25.6163 15.6657C25.9937 20.1611 24.4844 21.1363 21.1832 23.1796C19.9574 23.9657 17.5991 25.5373 15.5557 27.5183C15.4612 27.6128 15.3359 27.6751 15.2099 27.6751ZM38.5064 24.28C38.3811 24.28 38.2866 24.2485 38.1606 24.154C38.0346 24.0287 37.9093 23.9342 37.7833 23.8082C36.7774 22.9906 35.7399 22.299 34.608 21.6074C34.3882 21.4506 34.1362 21.3246 33.9164 21.1678C32.9735 20.57 31.9669 19.8783 31.15 19.0607C30.0495 17.961 29.4517 16.7661 29.2634 15.2884C29.2319 15.0055 29.4209 14.7535 29.7037 14.6912C29.9865 14.6597 30.2693 14.8795 30.3008 15.1624C30.4583 16.4203 30.9295 17.3947 31.8731 18.3376C32.6277 19.0922 33.5706 19.7215 34.482 20.2872C34.7025 20.4447 34.9223 20.57 35.1736 20.7275C36.2741 21.4191 37.406 22.1422 38.4434 23.0221C38.5694 23.1481 38.7269 23.2426 38.8522 23.3679C39.0727 23.5569 39.1035 23.9027 38.9152 24.1225C38.7892 24.217 38.6639 24.28 38.5064 24.28Z" fill="#463C4B"/>
<circle cx="17.4585" cy="35.125" r="0.5" fill="#604533"/>
<circle cx="20.4585" cy="36.125" r="0.5" fill="#604533"/>
<circle cx="19.4585" cy="39.125" r="0.5" fill="#604533"/>
<circle cx="22.4585" cy="42.125" r="0.5" fill="#604533"/>
<circle cx="33.4585" cy="42.125" r="0.5" fill="#604533"/>
<circle cx="33.4585" cy="37.125" r="0.5" fill="#604533"/>
<circle cx="36.4585" cy="39.125" r="0.5" fill="#604533"/>
<circle cx="36.4585" cy="35.125" r="0.5" fill="#604533"/>
<path d="M28.1785 41.64H27.0878C26.3189 41.64 25.5955 41.3402 25.0515 40.7962L24.9644 40.709C24.6831 40.4278 24.6831 39.9722 24.9644 39.6909C25.2456 39.4097 25.7012 39.4097 25.9825 39.6909L26.0697 39.7781C26.3419 40.0498 26.703 40.2 27.0878 40.2H28.1785C28.5632 40.2 28.9249 40.0504 29.1966 39.7781L29.2838 39.6909C29.565 39.4097 30.0212 39.4097 30.3025 39.6909C30.5837 39.9722 30.5837 40.4278 30.3025 40.709L30.2147 40.7962C29.6714 41.3402 28.948 41.64 28.1785 41.64Z" fill="#F26E81"/>
<path d="M22.5936 32.28C21.4022 32.28 20.4336 31.3108 20.4336 30.12C20.4336 29.7223 20.7559 29.4 21.1536 29.4C21.5513 29.4 21.8736 29.7223 21.8736 30.12C21.8736 30.5166 22.1965 30.84 22.5936 30.84C22.9902 30.84 23.3136 30.5166 23.3136 30.12C23.3136 29.7223 23.6359 29.4 24.0336 29.4C24.4313 29.4 24.7536 29.7223 24.7536 30.12C24.7536 31.3108 23.7844 32.28 22.5936 32.28Z" fill="#463C4B"/>
<path d="M32.6737 32.28C31.4823 32.28 30.5137 31.3108 30.5137 30.12C30.5137 29.7223 30.836 29.4 31.2337 29.4C31.6314 29.4 31.9537 29.7223 31.9537 30.12C31.9537 30.5166 32.2765 30.84 32.6737 30.84C33.0702 30.84 33.3937 30.5166 33.3937 30.12C33.3937 29.7223 33.716 29.4 34.1137 29.4C34.5114 29.4 34.8337 29.7223 34.8337 30.12C34.8337 31.3108 33.8645 32.28 32.6737 32.28Z" fill="#463C4B"/>
<path d="M29.0171 35.4863H29.0188L27.9793 31.8216H27.9776C27.9349 31.6709 27.7976 31.5601 27.6334 31.5601C27.4685 31.5601 27.3313 31.6709 27.2885 31.8216H27.2869L26.2474 35.4863H26.249C26.2136 35.6117 26.1934 35.7434 26.1934 35.8801C26.1934 36.6749 26.838 37.3201 27.6334 37.3201C28.4282 37.3201 29.0734 36.6749 29.0734 35.8801C29.0734 35.7434 29.0531 35.6117 29.0171 35.4863Z" fill="#F0915A"/>
</svg>
