<svg width="55" height="54" viewBox="0 0 55 54" fill="none" xmlns="http://www.w3.org/2000/svg">
<path fill-rule="evenodd" clip-rule="evenodd" d="M21.7964 14.2079L32.9259 14.1134C33.1779 14.1764 33.4607 14.0196 33.5546 13.7368C33.6806 13.2019 33.7751 12.6363 33.7751 12.07C33.7751 8.51746 30.8826 5.625 27.33 5.625C23.809 5.625 20.9165 8.51746 20.9165 12.07C20.9165 12.6678 21.0103 13.2649 21.1678 13.8306C21.2308 14.0511 21.4506 14.2079 21.6711 14.2079C21.7026 14.2079 21.7649 14.2079 21.7964 14.2079Z" fill="#503E45"/>
<path d="M27.6665 48.6C27.6665 48.6 27.5124 48.6 27.4501 48.5687C20.2415 48.6 15.0092 39.9634 14.1699 32.8568C14.1387 32.6013 14.325 32.3466 14.6048 32.2827L16.5334 21.1604L16.5646 21.0966L16.5957 21.0647L29.6585 14.8819L29.7208 14.85L29.7519 14.8819L39.3002 23.8378L39.3314 23.9009L40.6686 29.4784C40.9172 29.4784 41.1665 29.7012 41.1665 29.9886C41.1665 30.2433 41.1665 30.53 41.1665 30.7848C41.1665 38.7209 37.1165 48.6 27.7922 48.5687C27.7298 48.6 27.6665 48.6 27.6665 48.6Z" fill="#FAB991"/>
<path fill-rule="evenodd" clip-rule="evenodd" d="M14.5925 33.697C14.4042 33.697 14.2152 33.6032 14.1214 33.4142C11.9206 29.3276 12.5492 22.8195 15.6615 17.6317C18.5224 12.8849 22.8926 10.1808 27.6401 10.1808C35.5628 10.1808 41.9764 17.1291 41.9764 25.6805C41.9764 27.5355 41.7559 29.1701 41.3163 30.5848C41.2533 30.8053 41.0643 30.9306 40.8445 30.9306C40.5931 30.9306 40.4041 30.8053 40.3411 30.5848C39.681 28.6044 37.7945 26.8124 36.7256 25.9003C35.8772 25.1772 34.8712 24.5486 33.8338 23.8885C31.7583 22.5675 29.6204 21.2473 28.3947 18.9835C27.8914 22.1909 25.9111 23.6056 22.8926 25.4915C18.0821 28.5099 15.5047 31.5907 15.0958 33.2889C15.0328 33.5087 14.8445 33.6662 14.6555 33.697C14.624 33.697 14.5925 33.697 14.5925 33.697Z" fill="#6E555E"/>
<path fill-rule="evenodd" clip-rule="evenodd" d="M15.6929 27.975C15.5675 27.975 15.41 27.9127 15.3155 27.8182C15.1272 27.6292 15.1272 27.2834 15.3155 27.0951C17.4219 25.0203 19.8432 23.4165 21.1005 22.5989C24.4017 20.5556 25.4076 19.927 25.0618 16.0601C25.0303 15.7766 25.2501 15.5253 25.5336 15.4938C25.8165 15.4623 26.0678 15.6828 26.0993 15.9656C26.4766 20.4611 24.9673 21.4362 21.6661 23.4795C20.4403 24.2656 18.082 25.8372 16.0387 27.8182C15.9442 27.9127 15.8189 27.975 15.6929 27.975ZM38.9893 24.58C38.864 24.58 38.7695 24.5485 38.6435 24.454C38.5175 24.3287 38.3922 24.2341 38.2662 24.1081C37.2603 23.2905 36.2229 22.5989 35.0909 21.9073C34.8711 21.7505 34.6191 21.6245 34.3993 21.4677C33.4564 20.8699 32.4498 20.1783 31.6329 19.3607C30.5324 18.2609 29.9346 17.066 29.7463 15.5883C29.7148 15.3055 29.9038 15.0535 30.1866 14.9912C30.4694 14.9597 30.7522 15.1795 30.7837 15.4623C30.9413 16.7202 31.4124 17.6946 32.356 18.6375C33.1106 19.3922 34.0535 20.0215 34.9649 20.5871C35.1854 20.7446 35.4052 20.8699 35.6565 21.0274C36.757 21.719 37.8889 22.4421 38.9263 23.322C39.0523 23.448 39.2098 23.5425 39.3351 23.6678C39.5556 23.8568 39.5864 24.2026 39.3981 24.4225C39.2721 24.517 39.1468 24.58 38.9893 24.58Z" fill="#59454D"/>
<path d="M28.6619 41.94H27.5712C26.8023 41.94 26.0789 41.6402 25.5349 41.0963L25.4478 41.0091C25.1665 40.7278 25.1665 40.2722 25.4478 39.991C25.729 39.7097 26.1846 39.7097 26.4659 39.991L26.5531 40.0782C26.8253 40.3498 27.1864 40.5 27.5712 40.5H28.6619C29.0466 40.5 29.4083 40.3504 29.68 40.0782L29.7672 39.991C30.0484 39.7097 30.5046 39.7097 30.7859 39.991C31.0671 40.2722 31.0671 40.7278 30.7859 41.0091L30.6981 41.0963C30.1548 41.6402 29.4314 41.94 28.6619 41.94Z" fill="#F26E81"/>
<path d="M23.0765 32.58C21.8851 32.58 20.9165 31.6108 20.9165 30.42C20.9165 30.0223 21.2388 29.7 21.6365 29.7C22.0342 29.7 22.3565 30.0223 22.3565 30.42C22.3565 30.8165 22.6794 31.14 23.0765 31.14C23.4731 31.14 23.7965 30.8165 23.7965 30.42C23.7965 30.0223 24.1188 29.7 24.5165 29.7C24.9142 29.7 25.2365 30.0223 25.2365 30.42C25.2365 31.6108 24.2673 32.58 23.0765 32.58Z" fill="#463C4B"/>
<path d="M33.1566 32.58C31.9652 32.58 30.9966 31.6108 30.9966 30.42C30.9966 30.0223 31.3189 29.7 31.7166 29.7C32.1143 29.7 32.4366 30.0223 32.4366 30.42C32.4366 30.8165 32.7595 31.14 33.1566 31.14C33.5531 31.14 33.8766 30.8165 33.8766 30.42C33.8766 30.0223 34.1989 29.7 34.5966 29.7C34.9943 29.7 35.3166 30.0223 35.3166 30.42C35.3166 31.6108 34.3474 32.58 33.1566 32.58Z" fill="#463C4B"/>
<path d="M29.5005 35.7864H29.5022L28.4627 32.1217H28.461C28.4183 31.9709 28.281 31.8601 28.1168 31.8601C27.9519 31.8601 27.8147 31.9709 27.7719 32.1217H27.7703L26.7308 35.7864H26.7324C26.697 35.9118 26.6768 36.0434 26.6768 36.1801C26.6768 36.9749 27.3214 37.6201 28.1168 37.6201C28.9116 37.6201 29.5568 36.9749 29.5568 36.1801C29.5568 36.0434 29.5365 35.9118 29.5005 35.7864Z" fill="#F0915A"/>
<mask id="mask0_793_3073" style="mask-type:luminance" maskUnits="userSpaceOnUse" x="39" y="35" width="9" height="10">
<path d="M39.1465 35H47.8315V44.216H39.1465V35Z" fill="white"/>
</mask>
<g mask="url(#mask0_793_3073)">
<path fill-rule="evenodd" clip-rule="evenodd" d="M42.5361 40.5102C43.0559 41.0643 43.3742 41.809 43.3742 42.628L45.0887 44.1924L47.832 42.628C47.832 38.42 44.4087 35.0787 40.2715 35.0787L39.1909 37.5121L40.2715 39.5298C41.1653 39.5298 41.9702 39.9072 42.5361 40.5102Z" fill="#F0B16E"/>
</g>
<mask id="mask1_793_3073" style="mask-type:luminance" maskUnits="userSpaceOnUse" x="39" y="42" width="9" height="9">
<path d="M39.1465 42.488H47.8315V50.192H39.1465V42.488Z" fill="white"/>
</mask>
<g mask="url(#mask1_793_3073)">
<path fill-rule="evenodd" clip-rule="evenodd" d="M47.832 42.6281H43.3742C43.3742 44.3414 41.9832 45.7263 40.2715 45.7263L39.1909 47.6551L40.2715 50.1774C44.4475 50.1774 47.832 46.7973 47.832 42.6281Z" fill="#CF8C48"/>
</g>
<mask id="mask2_793_3073" style="mask-type:luminance" maskUnits="userSpaceOnUse" x="32" y="40" width="9" height="11">
<path d="M32.6665 40.9041H40.2985V50.1921H32.6665V40.9041Z" fill="white"/>
</mask>
<g mask="url(#mask2_793_3073)">
<path fill-rule="evenodd" clip-rule="evenodd" d="M38.1508 44.8894C37.5264 44.3055 37.1687 43.4932 37.1687 42.6281L35.1476 40.9828L32.7114 42.6281C32.7114 46.7473 36.0448 50.1774 40.2714 50.1774V45.7264C39.4513 45.7264 38.7054 45.4085 38.1508 44.8894Z" fill="#CF8C48"/>
<path fill-rule="evenodd" clip-rule="evenodd" d="M38.1508 44.8894C37.5264 44.3055 37.1687 43.4932 37.1687 42.6281L35.1476 40.9828L32.7114 42.6281C32.7114 46.7473 36.0448 50.1774 40.2714 50.1774V45.7264C39.4513 45.7264 38.7054 45.4085 38.1508 44.8894Z" fill="black" fill-opacity="0.2"/>
</g>
<path fill-rule="evenodd" clip-rule="evenodd" d="M32.7114 42.628H37.1692C37.1692 40.9074 38.5676 39.5298 40.2714 39.5298V35.0787C36.096 35.0787 32.7114 38.4588 32.7114 42.628Z" fill="#FAB991"/>
</svg>
