<svg width="54" height="54" viewBox="0 0 54 54" fill="none" xmlns="http://www.w3.org/2000/svg">
<mask id="mask0_793_1878" style="mask-type:luminance" maskUnits="userSpaceOnUse" x="5" y="26" width="44" height="19">
<path d="M5 26.54H49V44.801H5V26.54Z" fill="white"/>
</mask>
<g mask="url(#mask0_793_1878)">
<path d="M5.00586 26.6356H48.9944V44.747H5.00586V26.6356Z" fill="#FFCDBE"/>
</g>
<mask id="mask1_793_1878" style="mask-type:luminance" maskUnits="userSpaceOnUse" x="5" y="28" width="44" height="19">
<path d="M5 28.448H49V46.709H5V28.448Z" fill="white"/>
</mask>
<g mask="url(#mask1_793_1878)">
<path d="M5.00586 28.5436H48.9944V46.655H5.00586V28.5436Z" fill="#FFDCCD"/>
</g>
<path d="M31.7695 17.0757L26.5384 8L21.2879 17.0757C20.801 17.9381 20.52 18.9313 20.52 20.0008C20.52 23.3196 23.2004 26 26.519 26C29.8376 26 32.5192 23.3196 32.5192 20.0008C32.5374 18.9313 32.2564 17.9381 31.7695 17.0757Z" fill="#FFD36C"/>
<mask id="mask2_793_1878" style="mask-type:luminance" maskUnits="userSpaceOnUse" x="5" y="32" width="44" height="15">
<path d="M5 32.4399H49V46.6756H5V32.4399Z" fill="white"/>
</mask>
<g mask="url(#mask2_793_1878)">
<path d="M43.4914 35.6337C42.3736 33.8031 40.3421 32.5739 38 32.5739C35.6579 32.5739 33.6178 33.8031 32.5086 35.6337C31.4 37.4732 29.3507 38.7025 27 38.7025C24.6579 38.7025 22.6086 37.4732 21.4914 35.6337C20.3736 33.8031 18.3421 32.5739 16 32.5739C13.6579 32.5739 11.6178 33.8031 10.5086 35.6337C9.4 37.4732 7.35068 38.7025 5 38.7025V46.6628H49V38.7025C46.6579 38.7025 44.6086 37.4732 43.4914 35.6337Z" fill="#EF6D78"/>
</g>
<mask id="mask3_793_1878" style="mask-type:luminance" maskUnits="userSpaceOnUse" x="5" y="41" width="3" height="3">
<path d="M5 41.4965H7.42V43.0792H5V41.4965Z" fill="white"/>
</mask>
<g mask="url(#mask3_793_1878)">
<path d="M5 42.9443H6.61448C7.00464 42.9443 7.32432 42.6307 7.32432 42.2468C7.32432 41.8635 7.00464 41.5493 6.61448 41.5493H5V42.9443Z" fill="#D74962"/>
</g>
<path d="M11.0584 41.5493C10.6682 41.5493 10.3491 41.8635 10.3491 42.2468C10.3491 42.6307 10.6682 42.9443 11.0584 42.9443H12.6734C13.0636 42.9443 13.3827 42.6307 13.3827 42.2468C13.3827 41.8635 13.0636 41.5493 12.6734 41.5493H11.0584Z" fill="#D74962"/>
<path d="M16.3994 42.2468C16.3994 42.6307 16.7185 42.9443 17.1087 42.9443H18.7237C19.1139 42.9443 19.433 42.6307 19.433 42.2468C19.433 41.8635 19.1139 41.5493 18.7237 41.5493H17.1087C16.7185 41.5493 16.3994 41.8635 16.3994 42.2468Z" fill="#D74962"/>
<path d="M23.1679 42.9443H24.7823C25.1725 42.9443 25.4922 42.6307 25.4922 42.2468C25.4922 41.8635 25.1725 41.5493 24.7823 41.5493H23.1679C22.7777 41.5493 22.458 41.8635 22.458 42.2468C22.458 42.6307 22.7777 42.9443 23.1679 42.9443Z" fill="#D74962"/>
<path d="M29.2264 42.9443H30.8414C31.2316 42.9443 31.5507 42.6307 31.5507 42.2468C31.5507 41.8635 31.2316 41.5493 30.8414 41.5493H29.2264C28.8362 41.5493 28.5171 41.8635 28.5171 42.2468C28.5171 42.6307 28.8276 42.9443 29.2264 42.9443Z" fill="#D74962"/>
<path d="M35.2762 42.9443H36.8912C37.2814 42.9443 37.6005 42.6307 37.6005 42.2468C37.6005 41.8635 37.2814 41.5493 36.8912 41.5493H35.2762C34.886 41.5493 34.5669 41.8635 34.5669 42.2468C34.5669 42.6307 34.886 42.9443 35.2762 42.9443Z" fill="#D74962"/>
<path d="M41.3353 41.5493C40.9452 41.5493 40.6255 41.8635 40.6255 42.2468C40.6255 42.6307 40.9452 42.9443 41.3353 42.9443H42.9498C43.34 42.9443 43.6597 42.6307 43.6597 42.2468C43.6597 41.8635 43.34 41.5493 42.9498 41.5493H41.3353Z" fill="#D74962"/>
<mask id="mask4_793_1878" style="mask-type:luminance" maskUnits="userSpaceOnUse" x="46" y="41" width="3" height="3">
<path d="M46.5801 41.4965H49.0001V43.0792H46.5801V41.4965Z" fill="white"/>
</mask>
<g mask="url(#mask4_793_1878)">
<path d="M49.0001 41.5493H47.3856C46.9955 41.5493 46.6758 41.8635 46.6758 42.2468C46.6758 42.6307 46.9955 42.9443 47.3856 42.9443H49.0001V41.5493Z" fill="#D74962"/>
</g>
</svg>
