<svg width="54" height="48" viewBox="0 0 54 48" fill="none" xmlns="http://www.w3.org/2000/svg">
<mask id="mask0_793_1714" style="mask-type:luminance" maskUnits="userSpaceOnUse" x="5" y="16" width="44" height="23">
<path d="M5 16.9622H49V38.755H5V16.9622Z" fill="white"/>
</mask>
<g mask="url(#mask0_793_1714)">
<path d="M48.9926 16.9622V38.755H5.00635V16.9622H11.5571C12.1071 16.9622 12.4921 17.439 12.2956 17.8816C12.036 18.4536 11.8241 19.0801 11.6671 19.6863C11.4316 20.5512 11.2981 21.3888 11.2981 21.995C11.2981 23.9633 12.7041 25.1345 14.44 25.1345C16.1759 25.1345 17.5819 23.9633 17.5819 21.995C17.5819 21.3888 17.4484 20.5512 17.2123 19.6863C17.0554 19.0731 16.8354 18.4466 16.5844 17.8747C16.3879 17.432 16.7729 16.9622 17.3223 16.9622H24.1326C24.6826 16.9622 25.067 17.439 24.8711 17.8816C24.6116 18.4536 24.3996 19.0801 24.2426 19.6863C24.0066 20.5512 23.8731 21.3888 23.8731 21.995C23.8731 23.9633 25.2796 25.1345 27.0149 25.1345C28.7509 25.1345 30.1568 23.9633 30.1568 21.995C30.1568 21.3888 30.0233 20.5512 29.7879 19.6863C29.6309 19.0731 29.4109 18.4466 29.1594 17.8747C28.9634 17.432 29.3479 16.9622 29.8979 16.9622H36.7081C37.2575 16.9622 37.6425 17.439 37.446 17.8816C37.1871 18.4536 36.9751 19.0801 36.8175 19.6863C36.5821 20.5512 36.4486 21.3888 36.4486 21.995C36.4486 23.9633 37.8545 25.1345 39.5905 25.1345C41.3264 25.1345 42.7323 23.9633 42.7323 21.995C42.7323 21.3888 42.5988 20.5512 42.3634 19.6863C42.2064 19.0731 41.9864 18.4466 41.7349 17.8747C41.5384 17.432 41.9234 16.9622 42.4734 16.9622H49.0161H48.9926Z" fill="#FFCDB2"/>
</g>
<mask id="mask1_793_1714" style="mask-type:luminance" maskUnits="userSpaceOnUse" x="5" y="16" width="8" height="4">
<path d="M5 16.9622H12.4067V19.7775H5V16.9622Z" fill="white"/>
</mask>
<g mask="url(#mask1_793_1714)">
<path d="M11.6591 19.6863H5.00635V16.9622H11.5571C12.0991 16.9622 12.4841 17.439 12.2875 17.8816C12.036 18.4536 11.8166 19.0731 11.6591 19.6863Z" fill="#FFDCCD"/>
</g>
<mask id="mask2_793_1714" style="mask-type:luminance" maskUnits="userSpaceOnUse" x="16" y="16" width="10" height="4">
<path d="M16.5132 16.9622H25.0199V19.7775H16.5132V16.9622Z" fill="white"/>
</mask>
<g mask="url(#mask2_793_1714)">
<path d="M16.5764 17.8747C16.3799 17.432 16.7649 16.9622 17.3149 16.9622H24.1246C24.6666 16.9622 25.0516 17.439 24.8551 17.8816C24.6036 18.4536 24.3841 19.0731 24.2266 19.6863H17.2049C17.0474 19.0731 16.8279 18.4466 16.5764 17.8747Z" fill="#FFDCCD"/>
</g>
<mask id="mask3_793_1714" style="mask-type:luminance" maskUnits="userSpaceOnUse" x="28" y="16" width="10" height="4">
<path d="M28.98 16.9622H37.4866V19.7775H28.98V16.9622Z" fill="white"/>
</mask>
<g mask="url(#mask3_793_1714)">
<path d="M29.1443 17.8747C28.9478 17.432 29.3328 16.9622 29.8828 16.9622H36.6925C37.2345 16.9622 37.6195 17.439 37.423 17.8816C37.1714 18.4536 36.952 19.0731 36.7945 19.6863H29.7728C29.6152 19.0731 29.3958 18.4466 29.1443 17.8747Z" fill="#FFDCCD"/>
</g>
<mask id="mask4_793_1714" style="mask-type:luminance" maskUnits="userSpaceOnUse" x="41" y="16" width="8" height="4">
<path d="M41.5933 16.9622H48.9999V19.7775H41.5933V16.9622Z" fill="white"/>
</mask>
<g mask="url(#mask4_793_1714)">
<path d="M48.9929 16.9622V19.6863H42.3402C42.1826 19.0731 41.9632 18.4466 41.7117 17.8747C41.5152 17.432 41.9002 16.9622 42.4502 16.9622H48.9929Z" fill="#FFDCCD"/>
</g>
<mask id="mask5_793_1714" style="mask-type:luminance" maskUnits="userSpaceOnUse" x="5" y="25" width="44" height="14">
<path d="M5 25.8612H49V39H5V25.8612Z" fill="white"/>
</mask>
<g mask="url(#mask5_793_1714)">
<path d="M43.4914 28.8087C42.3736 27.1191 40.3421 25.9846 38 25.9846C35.6579 25.9846 33.6178 27.1191 32.5086 28.8087C31.4 30.5065 29.3507 31.641 27 31.641C24.6579 31.641 22.6086 30.5065 21.4914 28.8087C20.3736 27.1191 18.3421 25.9846 16 25.9846C13.6579 25.9846 11.6178 27.1191 10.5086 28.8087C9.4 30.5065 7.35068 31.641 5 31.641V38.9881H49V31.641C46.6579 31.641 44.6086 30.5065 43.4914 28.8087Z" fill="#EF6D78"/>
</g>
<path d="M40.2146 11.0447H32.7577L33.761 10.1664C34.0639 9.90075 34.0639 9.47151 33.761 9.20584C33.4576 8.94017 32.9676 8.94017 32.6647 9.20584L30.3321 11.2489C30.0286 11.5146 30.0286 11.9438 30.3321 12.2095L32.6647 14.2526C32.8201 14.3884 33.0147 14.4499 33.2166 14.4499C33.4185 14.4499 33.613 14.3819 33.7684 14.2526C34.0718 13.9869 34.0718 13.5577 33.7684 13.292L32.7657 12.4137H40.2225C40.6502 12.4137 41.0001 12.1069 41.0001 11.7327C41.0001 11.358 40.6502 11.0517 40.2225 11.0517L40.2146 11.0447Z" fill="#49454F"/>
<path d="M21.3274 9.19888C21.0246 8.93371 20.5346 8.93371 20.2311 9.19888C19.9283 9.46455 19.9283 9.89379 20.2311 10.1595L21.2344 11.0378H13.7776C13.3499 11.0378 13 11.3446 13 11.7188C13 12.0935 13.3499 12.3998 13.7776 12.3998H21.2344L20.2311 13.2786C19.9283 13.5443 19.9283 13.973 20.2311 14.2387C20.3865 14.375 20.5811 14.4364 20.7835 14.4364C20.9854 14.4364 21.18 14.368 21.3354 14.2387L23.668 12.1956C23.9715 11.9299 23.9715 11.5012 23.668 11.2355L21.3354 9.19244L21.3274 9.19888Z" fill="#49454F"/>
<mask id="mask6_793_1714" style="mask-type:luminance" maskUnits="userSpaceOnUse" x="5" y="34" width="3" height="3">
<path d="M5 34.8369H7.42V36.3097H5V34.8369Z" fill="white"/>
</mask>
<g mask="url(#mask6_793_1714)">
<path d="M5 36.1842H6.61448C7.00464 36.1842 7.32432 35.8924 7.32432 35.5352C7.32432 35.1785 7.00464 34.8861 6.61448 34.8861H5V36.1842Z" fill="#D74962"/>
</g>
<path d="M11.0589 34.8861C10.6687 34.8861 10.3496 35.1785 10.3496 35.5352C10.3496 35.8924 10.6687 36.1842 11.0589 36.1842H12.6739C13.0641 36.1842 13.3832 35.8924 13.3832 35.5352C13.3832 35.1785 13.0641 34.8861 12.6739 34.8861H11.0589Z" fill="#D74962"/>
<path d="M16.3994 35.5352C16.3994 35.8924 16.7185 36.1842 17.1087 36.1842H18.7237C19.1139 36.1842 19.433 35.8924 19.433 35.5352C19.433 35.1785 19.1139 34.8861 18.7237 34.8861H17.1087C16.7185 34.8861 16.3994 35.1785 16.3994 35.5352Z" fill="#D74962"/>
<path d="M23.1679 36.1842H24.7823C25.1725 36.1842 25.4922 35.8924 25.4922 35.5352C25.4922 35.1785 25.1725 34.8861 24.7823 34.8861H23.1679C22.7777 34.8861 22.458 35.1785 22.458 35.5352C22.458 35.8924 22.7777 36.1842 23.1679 36.1842Z" fill="#D74962"/>
<path d="M29.2264 36.1842H30.8414C31.2316 36.1842 31.5507 35.8924 31.5507 35.5352C31.5507 35.1785 31.2316 34.8861 30.8414 34.8861H29.2264C28.8362 34.8861 28.5171 35.1785 28.5171 35.5352C28.5171 35.8924 28.8276 36.1842 29.2264 36.1842Z" fill="#D74962"/>
<path d="M35.2762 36.1842H36.8912C37.2814 36.1842 37.6005 35.8924 37.6005 35.5352C37.6005 35.1785 37.2814 34.8861 36.8912 34.8861H35.2762C34.886 34.8861 34.5669 35.1785 34.5669 35.5352C34.5669 35.8924 34.886 36.1842 35.2762 36.1842Z" fill="#D74962"/>
<path d="M41.3353 34.8861C40.9452 34.8861 40.6255 35.1785 40.6255 35.5352C40.6255 35.8924 40.9452 36.1842 41.3353 36.1842H42.9498C43.34 36.1842 43.6597 35.8924 43.6597 35.5352C43.6597 35.1785 43.34 34.8861 42.9498 34.8861H41.3353Z" fill="#D74962"/>
<mask id="mask7_793_1714" style="mask-type:luminance" maskUnits="userSpaceOnUse" x="46" y="34" width="3" height="3">
<path d="M46.5801 34.8369H49.0001V36.3097H46.5801V34.8369Z" fill="white"/>
</mask>
<g mask="url(#mask7_793_1714)">
<path d="M49.0001 34.8861H47.3856C46.9955 34.8861 46.6758 35.1785 46.6758 35.5352C46.6758 35.8924 46.9955 36.1842 47.3856 36.1842H49.0001V34.8861Z" fill="#D74962"/>
</g>
</svg>
