<svg width="54" height="54" viewBox="0 0 54 54" fill="none" xmlns="http://www.w3.org/2000/svg">
<mask id="mask0_793_1946" style="mask-type:luminance" maskUnits="userSpaceOnUse" x="5" y="25" width="44" height="20">
<path d="M5 25.9203H49V44.1005H5V25.9203Z" fill="white"/>
</mask>
<g mask="url(#mask0_793_1946)">
<path d="M5.00537 26.0155H48.9939V44.0467H5.00537V26.0155Z" fill="#FFCDBE"/>
</g>
<mask id="mask1_793_1946" style="mask-type:luminance" maskUnits="userSpaceOnUse" x="5" y="27" width="44" height="19">
<path d="M5 27.8198H49V46H5V27.8198Z" fill="white"/>
</mask>
<g mask="url(#mask1_793_1946)">
<path d="M5.00537 27.915H48.9939V45.9462H5.00537V27.915Z" fill="#FFDCCD"/>
</g>
<mask id="mask2_793_1946" style="mask-type:luminance" maskUnits="userSpaceOnUse" x="5" y="31" width="44" height="15">
<path d="M5 31.7941H49V45.9667H5V31.7941Z" fill="white"/>
</mask>
<g mask="url(#mask2_793_1946)">
<path d="M43.4914 34.9735C42.3736 33.151 40.3421 31.9272 38 31.9272C35.6579 31.9272 33.6178 33.151 32.5086 34.9735C31.4 36.805 29.3507 38.0287 27 38.0287C24.6579 38.0287 22.6086 36.805 21.4914 34.9735C20.3736 33.151 18.3421 31.9272 16 31.9272C13.6579 31.9272 11.6178 33.151 10.5086 34.9735C9.4 36.805 7.35068 38.0287 5 38.0287V45.9538H49V38.0287C46.6579 38.0287 44.6086 36.805 43.4914 34.9735Z" fill="#EF6D78"/>
</g>
<mask id="mask3_793_1946" style="mask-type:luminance" maskUnits="userSpaceOnUse" x="5" y="40" width="3" height="3">
<path d="M5 40.8104H7.42V42.3862H5V40.8104Z" fill="white"/>
</mask>
<g mask="url(#mask3_793_1946)">
<path d="M5 42.2519H6.61448C7.00464 42.2519 7.32432 41.9396 7.32432 41.5575C7.32432 41.1758 7.00464 40.863 6.61448 40.863H5V42.2519Z" fill="#D74962"/>
</g>
<path d="M11.0589 40.863C10.6687 40.863 10.3496 41.1758 10.3496 41.5575C10.3496 41.9396 10.6687 42.2519 11.0589 42.2519H12.6739C13.0641 42.2519 13.3832 41.9396 13.3832 41.5575C13.3832 41.1758 13.0641 40.863 12.6739 40.863H11.0589Z" fill="#D74962"/>
<path d="M16.3994 41.5575C16.3994 41.9396 16.7185 42.2519 17.1087 42.2519H18.7237C19.1139 42.2519 19.433 41.9396 19.433 41.5575C19.433 41.1758 19.1139 40.863 18.7237 40.863H17.1087C16.7185 40.863 16.3994 41.1758 16.3994 41.5575Z" fill="#D74962"/>
<path d="M23.1679 42.2519H24.7823C25.1725 42.2519 25.4922 41.9396 25.4922 41.5575C25.4922 41.1758 25.1725 40.863 24.7823 40.863H23.1679C22.7777 40.863 22.458 41.1758 22.458 41.5575C22.458 41.9396 22.7777 42.2519 23.1679 42.2519Z" fill="#D74962"/>
<path d="M29.2264 42.2519H30.8414C31.2316 42.2519 31.5507 41.9396 31.5507 41.5575C31.5507 41.1758 31.2316 40.863 30.8414 40.863H29.2264C28.8362 40.863 28.5171 41.1758 28.5171 41.5575C28.5171 41.9396 28.8276 42.2519 29.2264 42.2519Z" fill="#D74962"/>
<path d="M35.2762 42.2519H36.8912C37.2814 42.2519 37.6005 41.9396 37.6005 41.5575C37.6005 41.1758 37.2814 40.863 36.8912 40.863H35.2762C34.886 40.863 34.5669 41.1758 34.5669 41.5575C34.5669 41.9396 34.886 42.2519 35.2762 42.2519Z" fill="#D74962"/>
<path d="M41.3353 40.863C40.9452 40.863 40.6255 41.1758 40.6255 41.5575C40.6255 41.9396 40.9452 42.2519 41.3353 42.2519H42.9498C43.34 42.2519 43.6597 41.9396 43.6597 41.5575C43.6597 41.1758 43.34 40.863 42.9498 40.863H41.3353Z" fill="#D74962"/>
<mask id="mask4_793_1946" style="mask-type:luminance" maskUnits="userSpaceOnUse" x="46" y="40" width="3" height="3">
<path d="M46.5801 40.8104H49.0001V42.3862H46.5801V40.8104Z" fill="white"/>
</mask>
<g mask="url(#mask4_793_1946)">
<path d="M49.0001 40.863H47.3856C46.9955 40.863 46.6758 41.1758 46.6758 41.5575C46.6758 41.9396 46.9955 42.2519 47.3856 42.2519H49.0001V40.863Z" fill="#D74962"/>
</g>
<path d="M27.7026 21.5621C28.632 19.9236 30.5251 17.208 33.5768 15.5695C34.1155 15.2829 34.1498 14.515 33.6228 14.2167C31.9932 13.2893 29.3087 11.421 27.7026 8.4305C27.4039 7.87987 26.636 7.84561 26.3373 8.39624C25.4765 9.94286 23.6989 12.3952 20.4062 14.2284C19.8784 14.5267 19.855 15.2829 20.3945 15.5695C21.989 16.4402 24.6283 18.2734 26.3716 21.5162C26.6586 22.0551 27.4273 22.0894 27.7252 21.5513L27.7026 21.5621Z" fill="#FFD36C"/>
<path d="M43.8204 24.3418C44.2912 23.5661 45.1395 22.4372 46.4203 21.6767C46.7673 21.4695 46.7904 20.9856 46.4433 20.7784C45.6643 20.3097 44.5533 19.4881 43.8131 18.2287C43.6044 17.8753 43.1032 17.8596 42.8951 18.213C42.4552 18.9427 41.6452 19.9642 40.2643 20.7857C39.9172 20.9935 39.9093 21.4773 40.2564 21.6845C41.0203 22.1297 42.1233 22.9596 42.9181 24.3188C43.1184 24.6643 43.6123 24.6873 43.8204 24.3418Z" fill="#FFD36C"/>
<path d="M10.8204 24.3418C11.2912 23.5661 12.1395 22.4372 13.4203 21.6767C13.7673 21.4695 13.7904 20.9856 13.4433 20.7784C12.6643 20.3097 11.5533 19.4881 10.8131 18.2287C10.6044 17.8753 10.1032 17.8596 9.89508 18.213C9.45521 18.9427 8.64521 19.9642 7.26427 20.7857C6.91721 20.9935 6.90933 21.4773 7.25639 21.6845C8.02027 22.1297 9.12333 22.9596 9.91814 24.3188C10.1184 24.6643 10.6123 24.6873 10.8204 24.3418Z" fill="#FFD36C"/>
</svg>
