<svg width="55" height="54" viewBox="0 0 55 54" fill="none" xmlns="http://www.w3.org/2000/svg">
<path fill-rule="evenodd" clip-rule="evenodd" d="M21.4634 14.2079L32.5929 14.1134C32.8449 14.1764 33.1277 14.0196 33.2215 13.7368C33.3475 13.2019 33.442 12.6363 33.442 12.07C33.442 8.51746 30.5496 5.625 26.997 5.625C23.476 5.625 20.5835 8.51746 20.5835 12.07C20.5835 12.6678 20.6773 13.2649 20.8348 13.8306C20.8978 14.0511 21.1176 14.2079 21.3381 14.2079C21.3696 14.2079 21.4319 14.2079 21.4634 14.2079Z" fill="#503E45"/>
<path d="M27.3335 48.6C27.3335 48.6 27.1794 48.6 27.1171 48.5687C19.9085 48.6 14.6762 39.9634 13.8369 32.8568C13.8057 32.6013 13.992 32.3466 14.2718 32.2827L16.2004 21.1604L16.2316 21.0966L16.2627 21.0647L29.3255 14.8819L29.3878 14.85L29.4189 14.8819L38.9672 23.8378L38.9984 23.9009L40.3356 29.4784C40.5842 29.4784 40.8335 29.7012 40.8335 29.9886C40.8335 30.2433 40.8335 30.53 40.8335 30.7848C40.8335 38.7209 36.7835 48.6 27.4592 48.5687C27.3968 48.6 27.3335 48.6 27.3335 48.6Z" fill="#F9C5B8"/>
<path fill-rule="evenodd" clip-rule="evenodd" d="M14.2595 33.697C14.0712 33.697 13.8822 33.6032 13.7884 33.4142C11.5876 29.3276 12.2162 22.8195 15.3284 17.6317C18.1894 12.8849 22.5596 10.1808 27.3071 10.1808C35.2298 10.1808 41.6434 17.1291 41.6434 25.6805C41.6434 27.5355 41.4229 29.1701 40.9833 30.5848C40.9203 30.8053 40.7312 30.9306 40.5114 30.9306C40.2601 30.9306 40.0711 30.8053 40.0081 30.5848C39.348 28.6044 37.4615 26.8124 36.3926 25.9003C35.5441 25.1772 34.5382 24.5486 33.5008 23.8885C31.4253 22.5675 29.2874 21.2473 28.0617 18.9835C27.5584 22.1909 25.5781 23.6056 22.5596 25.4915C17.7491 28.5099 15.1716 31.5907 14.7628 33.2889C14.6998 33.5087 14.5115 33.6662 14.3225 33.697C14.291 33.697 14.2595 33.697 14.2595 33.697Z" fill="#6E555E"/>
<path fill-rule="evenodd" clip-rule="evenodd" d="M15.3598 27.975C15.2345 27.975 15.077 27.9127 14.9825 27.8182C14.7942 27.6292 14.7942 27.2834 14.9825 27.0951C17.0889 25.0203 19.5102 23.4165 20.7675 22.5989C24.0687 20.5556 25.0746 19.927 24.7288 16.0601C24.6973 15.7766 24.9171 15.5253 25.2006 15.4938C25.4834 15.4623 25.7347 15.6828 25.7662 15.9656C26.1436 20.4611 24.6343 21.4362 21.3331 23.4795C20.1073 24.2656 17.749 25.8372 15.7057 27.8182C15.6111 27.9127 15.4858 27.975 15.3598 27.975ZM38.6563 24.58C38.531 24.58 38.4365 24.5485 38.3105 24.454C38.1845 24.3287 38.0592 24.2341 37.9332 24.1081C36.9273 23.2905 35.8898 22.5989 34.7579 21.9073C34.5381 21.7505 34.2861 21.6245 34.0663 21.4677C33.1234 20.8699 32.1168 20.1783 31.2999 19.3607C30.1994 18.2609 29.6016 17.066 29.4133 15.5883C29.3818 15.3055 29.5708 15.0535 29.8536 14.9912C30.1364 14.9597 30.4192 15.1795 30.4507 15.4623C30.6082 16.7202 31.0794 17.6946 32.023 18.6375C32.7776 19.3922 33.7205 20.0215 34.6319 20.5871C34.8524 20.7446 35.0722 20.8699 35.3235 21.0274C36.424 21.719 37.5559 22.4421 38.5933 23.322C38.7193 23.448 38.8768 23.5425 39.0021 23.6678C39.2226 23.8568 39.2534 24.2026 39.0651 24.4225C38.9391 24.517 38.8138 24.58 38.6563 24.58Z" fill="#59454D"/>
<path fill-rule="evenodd" clip-rule="evenodd" d="M17.1632 48.5402C17.4157 48.5402 17.6683 48.5154 17.9208 48.4395C18.3506 48.3382 18.7297 48.1363 19.083 47.8331C19.5633 47.4287 19.8918 46.8729 20.195 46.4184C20.2957 46.2412 20.4223 46.014 20.5483 45.7867C20.7508 45.4329 20.978 45.0037 21.2306 44.5993L21.3318 44.4733C21.4578 44.2961 21.4072 44.0435 21.2053 43.9175C21.054 43.8163 20.8515 43.8416 20.7255 43.9676L16.0517 42.8308C16.0517 42.7554 16.0263 42.6795 16.001 42.6035C15.875 42.4269 15.6472 42.3763 15.4453 42.4775C15.3187 42.5782 15.1927 42.6542 15.0662 42.7802C14.5863 43.1846 14.2578 43.715 13.98 44.1954L13.854 44.3973C13.5761 44.8518 13.2476 45.4329 12.8432 45.6602C12.5653 45.8373 12.414 46.1912 12.5147 46.5191C12.5906 46.8729 12.8938 47.1002 13.2476 47.1002C13.7021 47.1002 14.2832 47.4287 14.7377 47.7065L14.9402 47.8078C15.6219 48.1869 16.3548 48.5402 17.1632 48.5402Z" fill="#5EA12B"/>
<path fill-rule="evenodd" clip-rule="evenodd" d="M16.1528 45.9381C16.2535 45.9381 16.3295 45.9133 16.4054 45.8627C16.4307 45.8374 17.6682 44.8519 19.3861 44.6246C19.5886 44.574 19.7399 44.3974 19.7146 44.1701C19.6893 43.9676 19.4873 43.8163 19.2854 43.8416C17.3397 44.1195 15.9757 45.2057 15.925 45.231C15.7484 45.3823 15.7231 45.6101 15.8497 45.7868C15.925 45.888 16.0516 45.9381 16.1528 45.9381Z" fill="#98DB7C"/>
<path fill-rule="evenodd" clip-rule="evenodd" d="M21.0036 44.65C21.1043 44.65 21.2056 44.5994 21.2815 44.5235C21.3574 44.4481 21.4075 44.3469 21.3822 44.2203C21.3574 43.6899 21.3574 43.1594 21.3822 42.6796C21.3822 42.427 21.3822 42.1745 21.3822 41.972C21.3574 40.9617 21.2815 39.9003 20.4479 39.0667C20.1194 38.7635 19.7402 38.5109 19.3111 38.3849C18.73 38.1577 18.0983 38.1324 17.5426 38.1324H17.29C16.759 38.1324 16.1026 38.1324 15.6981 37.9045C15.4202 37.7279 15.0164 37.7785 14.7886 38.0311C14.536 38.2837 14.4854 38.6375 14.6626 38.966C14.8645 39.3445 14.8898 40.0269 14.8898 40.5573V40.7845C14.8898 41.7447 14.9911 42.8309 15.8247 43.6899C16.1279 43.993 16.5064 44.2203 16.9362 44.3722C17.5426 44.5994 18.1742 44.6247 18.73 44.6247H18.9319C19.0832 44.6247 19.2604 44.6247 19.4371 44.6247C19.6142 44.6247 19.8162 44.6247 20.0434 44.6247C20.3972 44.6247 20.7004 44.6247 20.9783 44.65H21.0036Z" fill="#74BA29"/>
<path fill-rule="evenodd" clip-rule="evenodd" d="M22.8222 46.7975C22.9487 46.7975 23.1 46.7216 23.176 46.595C23.2772 46.3931 23.2013 46.1658 22.9994 46.0646C22.2411 45.6602 21.6854 45.0037 21.3574 44.1195C20.3719 41.4667 17.7192 40.3805 17.5932 40.3299C17.3907 40.254 17.1634 40.3552 17.0875 40.5572C17.0121 40.7591 17.1128 40.9869 17.3153 41.0623C17.34 41.0876 19.7655 42.0731 20.6245 44.3973C21.0289 45.4329 21.7107 46.2412 22.6455 46.7469C22.6962 46.7722 22.7721 46.7975 22.8222 46.7975Z" fill="#98DB7C"/>
<path d="M28.3289 41.94H27.2382C26.4692 41.94 25.7459 41.6402 25.2019 41.0963L25.1147 41.0091C24.8335 40.7278 24.8335 40.2722 25.1147 39.991C25.396 39.7097 25.8516 39.7097 26.1329 39.991L26.2201 40.0782C26.4923 40.3498 26.8534 40.5 27.2382 40.5H28.3289C28.7136 40.5 29.0753 40.3504 29.347 40.0782L29.4342 39.991C29.7154 39.7097 30.1716 39.7097 30.4529 39.991C30.7341 40.2722 30.7341 40.7278 30.4529 41.0091L30.3651 41.0963C29.8217 41.6402 29.0984 41.94 28.3289 41.94Z" fill="#F26E81"/>
<path d="M22.7435 32.58C21.5521 32.58 20.5835 31.6108 20.5835 30.42C20.5835 30.0223 20.9058 29.7 21.3035 29.7C21.7012 29.7 22.0235 30.0223 22.0235 30.42C22.0235 30.8165 22.3464 31.14 22.7435 31.14C23.1401 31.14 23.4635 30.8165 23.4635 30.42C23.4635 30.0223 23.7858 29.7 24.1835 29.7C24.5812 29.7 24.9035 30.0223 24.9035 30.42C24.9035 31.6108 23.9343 32.58 22.7435 32.58Z" fill="#463C4B"/>
<path d="M32.8236 32.58C31.6322 32.58 30.6636 31.6108 30.6636 30.42C30.6636 30.0223 30.9859 29.7 31.3836 29.7C31.7813 29.7 32.1036 30.0223 32.1036 30.42C32.1036 30.8165 32.4264 31.14 32.8236 31.14C33.2201 31.14 33.5436 30.8165 33.5436 30.42C33.5436 30.0223 33.8659 29.7 34.2636 29.7C34.6613 29.7 34.9836 30.0223 34.9836 30.42C34.9836 31.6108 34.0144 32.58 32.8236 32.58Z" fill="#463C4B"/>
<path d="M29.1675 35.7864H29.1692L28.1297 32.1217H28.128C28.0853 31.9709 27.948 31.8601 27.7838 31.8601C27.6189 31.8601 27.4817 31.9709 27.4389 32.1217H27.4373L26.3978 35.7864H26.3994C26.364 35.9118 26.3438 36.0434 26.3438 36.1801C26.3438 36.9749 26.9884 37.6201 27.7838 37.6201C28.5786 37.6201 29.2238 36.9749 29.2238 36.1801C29.2238 36.0434 29.2035 35.9118 29.1675 35.7864Z" fill="#F0915A"/>
</svg>
