<svg width="55" height="54" viewBox="0 0 55 54" fill="none" xmlns="http://www.w3.org/2000/svg">
<path fill-rule="evenodd" clip-rule="evenodd" d="M21.4214 14.5829L32.5509 14.4884C32.8029 14.5514 33.0857 14.3946 33.1796 14.1118C33.3056 13.5769 33.4001 13.0113 33.4001 12.445C33.4001 8.89246 30.5076 6 26.955 6C23.434 6 20.5415 8.89246 20.5415 12.445C20.5415 13.0428 20.6353 13.6399 20.7928 14.2056C20.8558 14.4261 21.0756 14.5829 21.2961 14.5829C21.3276 14.5829 21.3899 14.5829 21.4214 14.5829Z" fill="#463C4B"/>
<path d="M27.5166 48.3C27.5166 48.3 27.3625 48.3 27.3002 48.2688C20.0916 48.3 14.8593 39.6635 14.02 32.5569C13.9888 32.3014 14.1751 32.0467 14.4549 31.9828L16.3835 20.8605L16.4147 20.7967L16.4458 20.7647L29.5086 14.582L29.5709 14.55L29.602 14.582L39.1503 23.5378L39.1815 23.601L40.5187 29.1785C40.7673 29.1785 41.0166 29.4013 41.0166 29.6887C41.0166 29.9434 41.0166 30.2301 41.0166 30.4848C41.0166 38.421 36.9666 48.3 27.6423 48.2688C27.5799 48.3 27.5166 48.3 27.5166 48.3Z" fill="#FAB991"/>
<path fill-rule="evenodd" clip-rule="evenodd" d="M14.4426 33.397C14.2543 33.397 14.0653 33.3032 13.9715 33.1142C11.7707 29.0275 12.3993 22.5195 15.5116 17.3317C18.3725 12.5849 22.7427 9.88074 27.4902 9.88074C35.4129 9.88074 41.8265 16.8291 41.8265 25.3804C41.8265 27.2355 41.606 28.87 41.1664 30.2847C41.1034 30.5052 40.9144 30.6305 40.6945 30.6305C40.4432 30.6305 40.2542 30.5052 40.1912 30.2847C39.5311 28.3044 37.6446 26.5124 36.5757 25.6002C35.7273 24.8771 34.7213 24.2485 33.6839 23.5884C31.6084 22.2675 29.4705 20.9473 28.2448 18.6834C27.7415 21.8909 25.7612 23.3056 22.7427 25.1914C17.9322 28.2099 15.3548 31.2907 14.9459 32.9889C14.8829 33.2087 14.6946 33.3662 14.5056 33.397C14.4741 33.397 14.4426 33.397 14.4426 33.397Z" fill="#555A6E"/>
<path fill-rule="evenodd" clip-rule="evenodd" d="M15.5429 27.6751C15.4176 27.6751 15.2601 27.6128 15.1656 27.5183C14.9773 27.3293 14.9773 26.9835 15.1656 26.7952C17.272 24.7203 19.6933 23.1166 20.9506 22.299C24.2518 20.2557 25.2577 19.627 24.9119 15.7602C24.8804 15.4767 25.1002 15.2254 25.3837 15.1939C25.6665 15.1624 25.9179 15.3829 25.9494 15.6657C26.3267 20.1611 24.8174 21.1363 21.5162 23.1796C20.2904 23.9657 17.9321 25.5373 15.8888 27.5183C15.7943 27.6128 15.669 27.6751 15.5429 27.6751ZM38.8394 24.28C38.7141 24.28 38.6196 24.2485 38.4936 24.154C38.3676 24.0287 38.2423 23.9342 38.1163 23.8082C37.1104 22.9906 36.073 22.299 34.941 21.6074C34.7212 21.4506 34.4692 21.3246 34.2494 21.1678C33.3065 20.57 32.2999 19.8783 31.483 19.0607C30.3825 17.961 29.7847 16.7661 29.5964 15.2884C29.5649 15.0055 29.7539 14.7535 30.0367 14.6912C30.3195 14.6597 30.6023 14.8795 30.6338 15.1624C30.7914 16.4203 31.2625 17.3947 32.2061 18.3376C32.9607 19.0922 33.9036 19.7215 34.815 20.2872C35.0355 20.4447 35.2553 20.57 35.5066 20.7275C36.6071 21.4191 37.739 22.1422 38.7764 23.0221C38.9024 23.1481 39.0599 23.2426 39.1852 23.3679C39.4057 23.5569 39.4365 23.9027 39.2482 24.1225C39.1222 24.217 38.9969 24.28 38.8394 24.28Z" fill="#463C4B"/>
<path d="M27.3863 27.88H22.3463C22.1472 27.88 21.9863 27.7186 21.9863 27.52C21.9863 27.3209 22.1472 27.16 22.3463 27.16H27.3863C27.5849 27.16 27.7463 27.3209 27.7463 27.52C27.7463 27.7186 27.5849 27.88 27.3863 27.88Z" fill="#F0915A"/>
<path d="M27.7245 27.88H32.7645C32.9636 27.88 33.1245 27.7186 33.1245 27.52C33.1245 27.3209 32.9636 27.16 32.7645 27.16H27.7245C27.5259 27.16 27.3645 27.3209 27.3645 27.52C27.3645 27.7186 27.5259 27.88 27.7245 27.88Z" fill="#F0915A"/>
<path d="M27.3868 25.72H23.7868C23.5876 25.72 23.4268 25.5586 23.4268 25.36C23.4268 25.1609 23.5876 25 23.7868 25H27.3868C27.5853 25 27.7468 25.1609 27.7468 25.36C27.7468 25.5586 27.5853 25.72 27.3868 25.72Z" fill="#F0915A"/>
<path d="M27.7246 25.72H31.3246C31.5237 25.72 31.6846 25.5586 31.6846 25.36C31.6846 25.1609 31.5237 25 31.3246 25H27.7246C27.526 25 27.3646 25.1609 27.3646 25.36C27.3646 25.5586 27.526 25.72 27.7246 25.72Z" fill="#F0915A"/>
<path d="M18.7465 32.92C18.6543 32.92 18.562 32.8846 18.4917 32.8143C18.3511 32.6736 18.3511 32.4458 18.4917 32.3052L19.2117 31.5852C19.3523 31.4446 19.5807 31.4446 19.7208 31.5852C19.8614 31.7258 19.8614 31.9536 19.7208 32.0943L19.0008 32.8143C18.9304 32.8846 18.8382 32.92 18.7465 32.92Z" fill="#F0915A"/>
<path d="M36.3194 33.258C36.4117 33.258 36.5039 33.2226 36.5742 33.1523C36.7148 33.0117 36.7148 32.7838 36.5742 32.6432L35.8542 31.9232C35.7136 31.7826 35.4852 31.7826 35.3452 31.9232C35.2045 32.0638 35.2045 32.2917 35.3452 32.4323L36.0652 33.1523C36.1355 33.2226 36.2277 33.258 36.3194 33.258Z" fill="#F0915A"/>
<path d="M18.7465 30.76H18.0265C17.8274 30.76 17.6665 30.5986 17.6665 30.4C17.6665 30.2009 17.8274 30.04 18.0265 30.04H18.7465C18.9451 30.04 19.1065 30.2009 19.1065 30.4C19.1065 30.5986 18.9451 30.76 18.7465 30.76Z" fill="#F0915A"/>
<path d="M36.3194 31.0981H37.0394C37.2385 31.0981 37.3994 30.9366 37.3994 30.7381C37.3994 30.5389 37.2385 30.3781 37.0394 30.3781H36.3194C36.1209 30.3781 35.9594 30.5389 35.9594 30.7381C35.9594 30.9366 36.1209 31.0981 36.3194 31.0981Z" fill="#F0915A"/>
<path d="M22.3463 40.1201C22.1472 40.1201 21.9863 39.9586 21.9863 39.7601C21.9863 38.7352 22.3851 37.7716 23.1096 37.0471L24.2515 35.9053C24.3921 35.7646 24.6205 35.7646 24.7606 35.9053C24.9012 36.0459 24.9012 36.2737 24.7606 36.4143L23.6187 37.5562C23.0303 38.1451 22.7063 38.9276 22.7063 39.7601C22.7063 39.9586 22.5449 40.1201 22.3463 40.1201Z" fill="#F0915A"/>
<path d="M32.1341 40.3233C32.3333 40.3233 32.4941 40.1619 32.4941 39.9633C32.4941 38.9385 32.0953 37.9749 31.3708 37.2504L30.229 36.1085C30.0883 35.9679 29.86 35.9679 29.7199 36.1085C29.5793 36.2491 29.5793 36.477 29.7199 36.6176L30.8618 37.7595C31.4501 38.3484 31.7741 39.1308 31.7741 39.9633C31.7741 40.1619 31.9356 40.3233 32.1341 40.3233Z" fill="#F0915A"/>
<path d="M27.9314 41.92H26.8407C26.0718 41.92 25.3484 41.6202 24.8045 41.0763L24.7173 40.9891C24.436 40.7078 24.436 40.2522 24.7173 39.9709C24.9985 39.6897 25.4542 39.6897 25.7354 39.9709L25.8226 40.0581C26.0948 40.3298 26.456 40.48 26.8407 40.48H27.9314C28.3162 40.48 28.6778 40.3304 28.9495 40.0581L29.0367 39.9709C29.318 39.6897 29.7742 39.6897 30.0554 39.9709C30.3367 40.2522 30.3367 40.7078 30.0554 40.9891L29.9677 41.0763C29.4243 41.6202 28.7009 41.92 27.9314 41.92Z" fill="#F26E81"/>
<path d="M22.3465 32.5599C21.1551 32.5599 20.1865 31.5907 20.1865 30.3999C20.1865 30.0022 20.5088 29.6799 20.9065 29.6799C21.3042 29.6799 21.6265 30.0022 21.6265 30.3999C21.6265 30.7965 21.9494 31.1199 22.3465 31.1199C22.7431 31.1199 23.0665 30.7965 23.0665 30.3999C23.0665 30.0022 23.3888 29.6799 23.7865 29.6799C24.1842 29.6799 24.5065 30.0022 24.5065 30.3999C24.5065 31.5907 23.5373 32.5599 22.3465 32.5599Z" fill="#463C4B"/>
<path d="M32.4266 32.5599C31.2352 32.5599 30.2666 31.5907 30.2666 30.3999C30.2666 30.0022 30.5889 29.6799 30.9866 29.6799C31.3843 29.6799 31.7066 30.0022 31.7066 30.3999C31.7066 30.7965 32.0295 31.1199 32.4266 31.1199C32.8232 31.1199 33.1466 30.7965 33.1466 30.3999C33.1466 30.0022 33.4689 29.6799 33.8666 29.6799C34.2643 29.6799 34.5866 30.0022 34.5866 30.3999C34.5866 31.5907 33.6174 32.5599 32.4266 32.5599Z" fill="#463C4B"/>
<path d="M28.77 35.7662H28.7717L27.7322 32.1015H27.7305C27.6878 31.9508 27.5505 31.84 27.3863 31.84C27.2215 31.84 27.0842 31.9508 27.0415 32.1015H27.0398L26.0003 35.7662H26.002C25.9665 35.8917 25.9463 36.0233 25.9463 36.16C25.9463 36.9548 26.5909 37.6 27.3863 37.6C28.1811 37.6 28.8263 36.9548 28.8263 36.16C28.8263 36.0233 28.806 35.8917 28.77 35.7662Z" fill="#F0915A"/>
</svg>
