<svg width="41" height="40" viewBox="0 0 41 40" fill="none" xmlns="http://www.w3.org/2000/svg">
<path d="M0.75 20C0.75 8.95418 9.70418 0 20.75 0C31.7958 0 40.75 8.95418 40.75 20C40.75 31.0458 31.7958 40 20.75 40C9.70418 40 0.75 31.0458 0.75 20Z" fill="white"/>
<path d="M2.75 20C2.75 10.0588 10.8088 2 20.75 2C30.6912 2 38.75 10.0588 38.75 20C38.75 29.9412 30.6912 38 20.75 38C10.8088 38 2.75 29.9412 2.75 20Z" fill="#FFD8BE"/>
<path d="M16.2848 20C16.2848 17.5338 18.2838 15.5348 20.75 15.5348C23.2162 15.5348 25.2152 17.5338 25.2152 20C25.2152 22.4662 23.2162 24.4653 20.75 24.4653C18.2838 24.4653 16.2848 22.4662 16.2848 20Z" fill="#FFB1B2"/>
<path d="M18.2955 10.1548C18.2955 8.79924 19.3945 7.70032 20.75 7.70032C22.1055 7.70032 23.2045 8.79924 23.2045 10.1548C23.2045 11.5103 22.1055 12.6092 20.75 12.6092C19.3945 12.6092 18.2955 11.5103 18.2955 10.1548Z" fill="#FFB1B2"/>
<path d="M26.2632 11.4819C27.2534 10.5564 28.8068 10.6073 29.7324 11.5975C30.6579 12.5877 30.606 14.1401 29.6168 15.0667C28.6266 15.9922 27.0742 15.9403 26.1477 14.9511C25.2221 13.9609 25.274 12.4075 26.2632 11.4819Z" fill="#FFB1B2"/>
<path d="M30.5953 17.5455C31.9508 17.5455 33.0497 18.6445 33.0497 20C33.0497 21.3555 31.9508 22.4544 30.5953 22.4544C29.2397 22.4544 28.1408 21.3555 28.1408 20C28.1408 18.6445 29.2397 17.5455 30.5953 17.5455Z" fill="#FFB1B2"/>
<path d="M29.2681 25.5132C30.1937 26.5034 30.1428 28.0568 29.1526 28.9823C28.1623 29.9079 26.6099 29.856 25.6834 28.8667C24.7578 27.8765 24.8098 26.3241 25.799 25.3976C26.7892 24.472 28.3426 24.5239 29.2681 25.5132Z" fill="#FFB1B2"/>
<path d="M23.2045 29.8452C23.2045 31.2007 22.1055 32.2997 20.75 32.2997C19.3945 32.2997 18.2955 31.2007 18.2955 29.8452C18.2955 28.4897 19.3945 27.3907 20.75 27.3907C22.1055 27.3907 23.2045 28.4897 23.2045 29.8452Z" fill="#FFB1B2"/>
<path d="M15.2368 28.5181C14.2466 29.4436 12.6932 29.3927 11.7676 28.4025C10.8421 27.4123 10.894 25.8599 11.8832 24.9334C12.8734 24.0078 14.4268 24.0597 15.3524 25.0489C16.2779 26.0391 16.226 27.5925 15.2368 28.5181Z" fill="#FFB1B2"/>
<path d="M10.9047 22.4544C9.54922 22.4544 8.45029 21.3555 8.45029 20C8.45029 18.6445 9.54922 17.5455 10.9047 17.5455C12.2603 17.5455 13.3592 18.6445 13.3592 20C13.3592 21.3555 12.2603 22.4544 10.9047 22.4544Z" fill="#FFB1B2"/>
<path d="M12.2319 14.4867C11.3063 13.4965 11.3572 11.9432 12.3474 11.0176C13.3377 10.092 14.8901 10.1439 15.8166 11.1332C16.7422 12.1234 16.6902 13.6767 15.701 14.6023C14.7108 15.5279 13.1574 15.476 12.2319 14.4867Z" fill="#FFB1B2"/>
<path d="M32.7291 6.68005C34.4905 8.2445 35.9261 10.1401 36.9539 12.2586C37.9817 14.3771 38.5816 16.677 38.7193 19.027C38.8571 21.377 38.5299 23.7311 37.7566 25.9548C36.9833 28.1786 35.779 30.2285 34.2124 31.9875C32.6458 33.7464 30.7476 35.18 28.6262 36.2064C26.5047 37.2328 24.2017 37.8319 21.8484 37.9694C19.4951 38.107 17.1378 37.7803 14.9109 37.0081C12.6841 36.2358 10.6314 35.0332 8.86999 33.4687C8.86999 33.4687 20.4099 34.5548 28.1286 25.9548C35.8472 17.3549 32.7291 6.68005 32.7291 6.68005Z" fill="black" fill-opacity="0.1"/>
</svg>
