<svg width="41" height="40" viewBox="0 0 41 40" fill="none" xmlns="http://www.w3.org/2000/svg">
<path d="M0.25 20C0.25 8.95418 9.20418 0 20.25 0C31.2958 0 40.25 8.95418 40.25 20C40.25 31.0458 31.2958 40 20.25 40C9.20418 40 0.25 31.0458 0.25 20Z" fill="white"/>
<path d="M2.25 20C2.25 10.0588 10.3088 2 20.25 2C30.1912 2 38.25 10.0588 38.25 20C38.25 29.9412 30.1912 38 20.25 38C10.3088 38 2.25 29.9412 2.25 20Z" fill="#FFD8BE"/>
<path d="M15.1021 17.908C15.012 17.908 14.9219 17.909 14.8318 17.9119C14.7681 17.9129 14.7044 17.9148 14.6408 17.9168C14.5321 17.9207 14.4234 17.9266 14.3146 17.9334C14.1942 17.9413 14.0737 17.9491 13.9542 17.9589C13.9199 17.9619 13.8866 17.9648 13.8533 17.9687C13.8337 17.9697 13.8141 17.9716 13.7955 17.9736C13.7711 17.9765 13.7475 17.9805 13.7231 17.9844C13.676 17.9912 13.629 17.9981 13.582 18.0059C13.5213 18.0157 13.4606 18.0255 13.3998 18.0363C13.3616 18.0422 13.3235 18.049 13.2853 18.0569C13.2167 18.0706 13.1491 18.0862 13.0806 18.1009C12.9699 18.1264 12.8592 18.1538 12.7495 18.1822C12.6467 18.2096 12.5458 18.2381 12.4439 18.2674C12.3186 18.3037 12.1951 18.3428 12.0708 18.384C12.0306 18.3977 11.9904 18.4114 11.9503 18.4251C11.8455 18.4614 11.7436 18.4996 11.6408 18.5378C11.582 18.5603 11.5242 18.5838 11.4664 18.6063C11.3803 18.6416 11.295 18.6788 11.2098 18.716C11.107 18.7611 11.0051 18.81 10.9052 18.859C10.8092 18.907 10.7152 18.956 10.6222 19.0069C10.5859 19.0265 10.5507 19.0471 10.5154 19.0676C10.4204 19.1205 10.3283 19.1773 10.2363 19.2361C10.203 19.2576 10.1697 19.2802 10.1364 19.3017C10.0482 19.3605 9.96106 19.4222 9.87683 19.4868C9.84549 19.5103 9.81512 19.5338 9.78476 19.5583C9.70347 19.622 9.62414 19.6886 9.54774 19.7581C9.53011 19.7738 9.51248 19.7904 9.49485 19.8071C9.43021 19.8659 9.3685 19.9276 9.30876 19.9912C9.29211 20.0079 9.27644 20.0255 9.26077 20.0431C9.19319 20.1166 9.12854 20.194 9.06684 20.2733C8.8925 20.5015 8.74559 20.7513 8.64079 21.0196C8.61434 21.0745 8.63687 21.1411 8.6927 21.1675C8.74754 21.195 8.81415 21.1714 8.84059 21.1166C8.97281 20.8913 9.13932 20.6876 9.32933 20.5084C9.37634 20.4633 9.42531 20.4202 9.47526 20.3791C9.49387 20.3634 9.51248 20.3477 9.53207 20.3321C9.5497 20.3184 9.56733 20.3047 9.58496 20.2909C9.62609 20.2596 9.66723 20.2283 9.71033 20.1989C9.73089 20.1842 9.75146 20.1695 9.77301 20.1558C9.79162 20.143 9.81023 20.1303 9.82884 20.1186C9.88466 20.0823 9.94049 20.0471 9.99828 20.0138C10.0208 20.001 10.0424 19.9883 10.0649 19.9756C10.0972 19.9579 10.1285 19.9403 10.1609 19.9237C10.2089 19.8982 10.2578 19.8727 10.3078 19.8482C10.343 19.8316 10.3793 19.814 10.4155 19.7973C10.4488 19.7826 10.4831 19.7669 10.5164 19.7513C10.581 19.7238 10.6457 19.6964 10.7113 19.671C10.7495 19.6563 10.7877 19.6416 10.8259 19.6269C10.8621 19.6142 10.8974 19.6004 10.9336 19.5877C11.012 19.5603 11.0913 19.5338 11.1707 19.5094C11.2539 19.4839 11.3372 19.4584 11.4214 19.4359C11.4625 19.4251 11.5037 19.4143 11.5448 19.4036C11.5996 19.3899 11.6545 19.3752 11.7093 19.3624C11.7348 19.3566 11.7593 19.3507 11.7838 19.3448C11.8847 19.3223 11.9865 19.2998 12.0874 19.2811C12.1276 19.2733 12.1667 19.2655 12.2059 19.2586C12.3195 19.2381 12.4331 19.2194 12.5477 19.2028C12.633 19.191 12.7191 19.1793 12.8053 19.1685C12.8563 19.1626 12.9082 19.1568 12.9601 19.1519C13.0228 19.144 13.0854 19.1381 13.1481 19.1323C13.2049 19.1264 13.2617 19.1215 13.3186 19.1176C13.347 19.1156 13.3754 19.1127 13.4038 19.1107C13.4145 19.1097 13.4253 19.1097 13.4351 19.1088C13.4674 19.1058 13.4988 19.1029 13.5311 19.1C13.5869 19.0951 13.6427 19.0902 13.6986 19.0853C13.7407 19.0823 13.7828 19.0794 13.8239 19.0764C13.8523 19.0755 13.8798 19.0735 13.9072 19.0715C13.9229 19.0706 13.9376 19.0686 13.9532 19.0666C13.9758 19.0647 13.9973 19.0627 14.0198 19.0608C14.0933 19.0539 14.1658 19.048 14.2392 19.0422C14.3646 19.0324 14.4909 19.0265 14.6173 19.0226C14.6947 19.0196 14.772 19.0177 14.8494 19.0177C14.9454 19.0167 15.0414 19.0187 15.1374 19.0206C15.1971 19.0226 15.2578 19.0245 15.3176 19.0275C15.4057 19.0324 15.4939 19.0382 15.583 19.0461C15.6476 19.052 15.7113 19.0588 15.7759 19.0666C15.8925 19.0804 16.0091 19.097 16.1246 19.1146C16.1658 19.1205 16.2069 19.1264 16.248 19.1333C16.3479 19.1499 16.4478 19.1685 16.5477 19.1881C16.6075 19.1999 16.6672 19.2106 16.726 19.2234C17.0002 19.2821 17.2725 19.3477 17.5419 19.4232C17.6574 19.4555 17.773 19.4888 17.8876 19.5231C17.9542 19.5436 18.0218 19.5652 18.0884 19.5857C18.1756 19.6122 18.2627 19.6396 18.3499 19.667C18.4145 19.6886 18.4792 19.7101 18.5448 19.7317C18.629 19.7591 18.7142 19.7875 18.7985 19.8169C18.8631 19.8384 18.9278 19.8619 18.9924 19.8845C19.06 19.908 19.1276 19.9315 19.1951 19.956C19.2764 19.9854 19.3577 20.0147 19.439 20.0441C19.4997 20.0676 19.5624 20.0902 19.6232 20.1127C19.7123 20.146 19.8014 20.1803 19.8905 20.2145C19.9806 20.2488 20.0708 20.2831 20.1609 20.3184C20.3705 20.4016 20.5801 20.4849 20.7887 20.5701C20.8533 20.5955 20.918 20.621 20.9826 20.6475C21.0698 20.6827 21.1569 20.718 21.2441 20.7532C21.3039 20.7777 21.3636 20.8012 21.4224 20.8247C21.5154 20.8619 21.6085 20.8992 21.7015 20.9354C21.7711 20.9638 21.8416 20.9903 21.9121 21.0177C21.9973 21.051 22.0825 21.0843 22.1677 21.1166C22.25 21.147 22.3323 21.1773 22.4155 21.2067C22.4919 21.2351 22.5683 21.2625 22.6447 21.29C22.7955 21.3419 22.9464 21.3918 23.0982 21.4418C23.2676 21.4966 23.439 21.5495 23.6114 21.6004C23.7779 21.6484 23.9444 21.6954 24.1129 21.7395C24.1951 21.7601 24.2774 21.7826 24.3597 21.8032C24.4459 21.8247 24.5321 21.8443 24.6183 21.8639C24.6956 21.8815 24.773 21.8992 24.8514 21.9158C24.9454 21.9364 25.0404 21.954 25.1354 21.9726C25.2235 21.9893 25.3127 22.0049 25.4018 22.0196C25.4851 22.0343 25.5693 22.0461 25.6525 22.0578C25.7133 22.0666 25.773 22.0745 25.8337 22.0823C26.0257 22.1068 26.2187 22.1244 26.4116 22.1362C26.4792 22.1401 26.5458 22.143 26.6134 22.145C26.632 22.146 26.6516 22.146 26.6702 22.147C26.6809 22.147 26.6917 22.1479 26.7025 22.1479C26.7152 22.1479 26.728 22.147 26.7407 22.146C26.7603 22.145 26.7789 22.144 26.7985 22.143C26.8856 22.1381 26.9718 22.1303 27.058 22.1235C27.0864 22.1205 27.1158 22.1176 27.1442 22.1146C27.1775 22.1117 27.2108 22.1088 27.2441 22.1048C27.347 22.0921 27.4498 22.0764 27.5517 22.0598C27.5771 22.0559 27.6016 22.051 27.6271 22.0471C27.6711 22.0402 27.7162 22.0314 27.7603 22.0236C27.8053 22.0157 27.8494 22.0069 27.8945 21.9981C27.9885 21.9805 28.0825 21.9599 28.1765 21.9383C28.203 21.9325 28.2294 21.9266 28.2549 21.9207C28.5928 21.8424 28.9268 21.7483 29.2549 21.6386C29.3313 21.6132 29.4077 21.5877 29.4831 21.5613C29.631 21.5094 29.7769 21.4545 29.9219 21.3967C30.107 21.3233 30.2911 21.2459 30.4723 21.1636C30.536 21.1352 30.5997 21.1058 30.6633 21.0764C30.8602 20.9854 31.057 20.8904 31.251 20.7904C31.5046 20.6602 31.7554 20.5231 32.0022 20.382C32.061 20.3536 32.0854 20.2841 32.057 20.2263C32.0296 20.1675 31.9591 20.144 31.9013 20.1714C31.5801 20.2988 31.2549 20.4173 30.9268 20.525C30.8347 20.5554 30.7426 20.5848 30.6506 20.6132C30.6045 20.6269 30.5585 20.6416 30.5115 20.6553C30.3871 20.6905 30.2617 20.7248 30.1354 20.7581C30.0042 20.7914 29.8729 20.8238 29.7407 20.8531C29.679 20.8659 29.6173 20.8796 29.5556 20.8923C29.3225 20.9403 29.0874 20.9814 28.8504 21.0118C28.7142 21.0294 28.5771 21.0451 28.439 21.0559C28.3959 21.0588 28.3519 21.0627 28.3088 21.0657C28.2549 21.0686 28.201 21.0725 28.1462 21.0745C28.1148 21.0764 28.0835 21.0774 28.0521 21.0784C28.011 21.0784 27.9689 21.0804 27.9268 21.0804C27.9023 21.0813 27.8778 21.0813 27.8523 21.0813C27.7711 21.0823 27.6898 21.0823 27.6075 21.0794C27.4733 21.0735 27.3391 21.0666 27.2049 21.0559C27.1814 21.0529 27.1589 21.0529 27.1354 21.051C27.0972 21.048 27.059 21.0451 27.0208 21.0412C26.9581 21.0353 26.8954 21.0294 26.8328 21.0226C26.8092 21.0196 26.7857 21.0167 26.7632 21.0138C26.7554 21.0128 26.7485 21.0118 26.7407 21.0108C26.725 21.0098 26.7093 21.0098 26.6937 21.0089C26.6643 21.0079 26.6359 21.0059 26.6065 21.004C26.5095 20.9981 26.4116 20.9912 26.3146 20.9814C26.1501 20.9648 25.9865 20.9452 25.8239 20.9197C25.7593 20.909 25.6956 20.8972 25.632 20.8855C25.5448 20.8678 25.4567 20.8502 25.3705 20.8306C25.296 20.814 25.2216 20.7953 25.1481 20.7758C25.0708 20.7562 24.9934 20.7356 24.917 20.7131C24.8465 20.6915 24.7759 20.67 24.7064 20.6475C24.6271 20.622 24.5477 20.5955 24.4684 20.5681C24.4106 20.5476 24.3519 20.525 24.2941 20.5035C24.1893 20.4643 24.0854 20.4241 23.9826 20.382C23.8024 20.3095 23.6232 20.2332 23.4449 20.1548C23.3773 20.1244 23.3097 20.0941 23.2431 20.0637C23.2089 20.048 23.1756 20.0324 23.1413 20.0177C23.0384 19.9716 22.9356 19.9256 22.8318 19.8786C22.7887 19.859 22.7456 19.8384 22.7025 19.8198C22.6281 19.7865 22.5536 19.7532 22.4792 19.7199C22.4038 19.6857 22.3293 19.6523 22.2539 19.619C22.1785 19.5857 22.1041 19.5524 22.0286 19.5201C21.9532 19.4868 21.8768 19.4525 21.8014 19.4192C21.7446 19.3948 21.6868 19.3713 21.63 19.3468C21.533 19.3056 21.4371 19.2645 21.3391 19.2243C21.201 19.1666 21.061 19.1107 20.9209 19.0549C20.8328 19.0196 20.7446 18.9863 20.6555 18.9521C20.5703 18.9197 20.4851 18.8874 20.3998 18.8561C20.3391 18.8335 20.2774 18.812 20.2167 18.7904C20.1168 18.7552 20.0159 18.7199 19.916 18.6866C19.8308 18.6582 19.7466 18.6308 19.6614 18.6044C19.584 18.5799 19.5066 18.5554 19.4283 18.5319C19.347 18.5074 19.2647 18.4849 19.1824 18.4614C19.1001 18.4388 19.0179 18.4163 18.9356 18.3948C18.8367 18.3693 18.7378 18.3458 18.6398 18.3223C18.5928 18.3115 18.5468 18.3007 18.5007 18.2909C18.4772 18.2851 18.4537 18.2792 18.4302 18.2743C18.0306 18.1901 17.6281 18.1225 17.2245 18.0676C17.1158 18.0529 17.0081 18.0402 16.8994 18.0275C16.8014 18.0157 16.7044 18.0049 16.6065 17.9952C16.534 17.9873 16.4616 17.9814 16.3891 17.9736C16.1099 17.9472 15.8318 17.9237 15.5517 17.9148C15.486 17.9119 15.4204 17.9109 15.3548 17.9099C15.2706 17.909 15.1863 17.907 15.1021 17.908Z" fill="#FFCDAC"/>
<path d="M32.2291 6.67993C33.9905 8.24437 35.4261 10.14 36.4539 12.2584C37.4817 14.3769 38.0816 16.6768 38.2193 19.0269C38.3571 21.3769 38.0299 23.731 37.2566 25.9547C36.4833 28.1785 35.279 30.2284 33.7124 31.9873C32.1458 33.7463 30.2476 35.1799 28.1262 36.2063C26.0047 37.2327 23.7017 37.8318 21.3484 37.9693C18.9951 38.1068 16.6378 37.7802 14.4109 37.0079C12.1841 36.2357 10.1314 35.033 8.36999 33.4686C8.36999 33.4686 19.9099 34.5546 27.6286 25.9547C35.3472 17.3548 32.2291 6.67993 32.2291 6.67993Z" fill="black" fill-opacity="0.1"/>
</svg>
