<svg width="41" height="40" viewBox="0 0 41 40" fill="none" xmlns="http://www.w3.org/2000/svg">
<path d="M20.25 0C17.2564 0 14.417 0.657919 11.8674 1.83633C11.5801 1.9694 11.2966 2.1087 11.0167 2.25483C9.76247 2.9084 8.58655 3.69069 7.50577 4.58554C7.29185 4.76276 7.08166 4.94434 6.87459 5.1309C5.20492 6.63392 3.78958 8.41428 2.70072 10.3992C2.56826 10.6411 2.44078 10.8855 2.31766 11.1336C0.993735 13.8057 0.25 16.8161 0.25 20C0.25 20.1256 0.251244 20.2512 0.253731 20.3768C0.260572 20.7506 0.277983 21.1224 0.304723 21.4912C0.601968 25.5239 2.09503 29.2246 4.43133 32.2393C4.62908 32.4942 4.83243 32.7449 5.04261 32.9899C6.0382 34.1546 7.16624 35.2043 8.40248 36.1147C8.67547 36.3155 8.95406 36.5102 9.23763 36.698C11.6286 38.2775 14.3779 39.3576 17.3385 39.7892C17.6345 39.8327 17.9324 39.8694 18.2327 39.8993C18.8962 39.9658 19.5691 40 20.25 40C22.1367 40 23.9618 39.7388 25.6918 39.2507C26.0973 39.1362 26.4965 39.01 26.8908 38.8713C27.4492 38.6748 27.9964 38.4541 28.5312 38.2103C28.8173 38.0797 29.1002 37.9429 29.3788 37.7999C34.44 35.1993 38.2476 30.5031 39.6561 24.8573C39.7258 24.5768 39.7898 24.2939 39.8483 24.0091C40.1119 22.7138 40.25 21.373 40.25 20C40.25 16.8541 39.5237 13.8785 38.2296 11.23C38.0984 10.9614 37.961 10.6959 37.8179 10.4334C36.8665 8.68976 35.6632 7.10341 34.2566 5.72352C34.0825 5.55314 33.9059 5.38586 33.7262 5.22169C30.9117 2.65406 27.3621 0.879299 23.4289 0.251228C23.136 0.204589 22.8413 0.164169 22.544 0.129967C21.7916 0.0441514 21.0261 0 20.25 0Z" fill="white"/>
<path d="M20.25 2C17.5558 2 15.0003 2.59213 12.7057 3.6527C12.4471 3.77246 12.1919 3.89783 11.9401 4.02935C10.8112 4.61756 9.75289 5.32162 8.78019 6.12698C8.58767 6.28649 8.3985 6.44991 8.21213 6.61781C6.70942 7.97052 5.43562 9.57285 4.45565 11.3593C4.33644 11.577 4.22171 11.797 4.11089 12.0203C2.91936 14.4252 2.25 17.1345 2.25 20C2.25 20.1131 2.25112 20.2261 2.25336 20.3392C2.25951 20.6755 2.27518 21.0102 2.29925 21.3421C2.56677 24.9715 3.91053 28.3021 6.0132 31.0154C6.19117 31.2448 6.37418 31.4704 6.56335 31.6909C7.45938 32.7391 8.47461 33.6838 9.58723 34.5032C9.83292 34.684 10.0837 34.8591 10.3389 35.0282C12.4908 36.4497 14.9651 37.4219 17.6296 37.8103C17.896 37.8494 18.1641 37.8825 18.4344 37.9093C19.0316 37.9692 19.6372 38 20.25 38C21.948 38 23.5906 37.7649 25.1476 37.3256C25.5125 37.2226 25.8719 37.109 26.2267 36.9842C26.7293 36.8074 27.2218 36.6087 27.7031 36.3893C27.9605 36.2717 28.2152 36.1486 28.4659 36.0199C33.021 33.6794 36.4479 29.4528 37.7155 24.3716C37.7782 24.1191 37.8358 23.8645 37.8885 23.6082C38.1258 22.4424 38.25 21.2357 38.25 20C38.25 17.1686 37.5963 14.4906 36.4316 12.107C36.3136 11.8652 36.1899 11.6263 36.0611 11.3901C35.2049 9.82078 34.1219 8.39307 32.8559 7.15117C32.6992 6.99782 32.5403 6.84727 32.3785 6.69952C29.8455 4.38866 26.6509 2.79137 23.111 2.22611C22.8474 2.18413 22.5821 2.14775 22.3146 2.11697C21.6374 2.03974 20.9485 2 20.25 2Z" fill="#FFD8BE"/>
<path d="M22.3147 2.11694C22.3141 2.17515 22.313 2.23335 22.3124 2.29156C22.3063 2.66486 22.3001 3.0376 22.2956 3.41033C22.2923 3.69576 22.2917 3.98119 22.285 4.26606C22.2727 4.8442 22.2442 5.42289 22.2789 6.00103C22.2872 6.14319 22.299 6.28534 22.3164 6.42694C22.3259 6.50977 22.3371 6.59316 22.3533 6.67543C22.3695 6.75602 22.3902 6.83549 22.4093 6.91553C22.4227 6.96981 22.4367 7.02466 22.4451 7.08063C22.491 7.38061 22.5072 7.68451 22.566 7.98281C22.6018 8.1619 22.6522 8.33932 22.7283 8.50554C22.7937 8.64769 22.8777 8.77978 22.965 8.90906C23.0019 8.96391 23.0389 9.01875 23.0764 9.07248C23.1351 9.15587 23.2034 9.23087 23.2728 9.3053C23.2991 9.33329 23.3254 9.36127 23.3501 9.39093C23.3685 9.41276 23.3876 9.43571 23.4015 9.46145C23.4088 9.47544 23.4139 9.49055 23.4189 9.50566C23.4267 9.52805 23.434 9.551 23.4402 9.5745C23.4637 9.66517 23.4771 9.75807 23.4889 9.85098C23.504 9.96795 23.5152 10.0855 23.5325 10.2019C23.5409 10.2612 23.5515 10.32 23.561 10.3787C23.5812 10.5002 23.5985 10.6222 23.6159 10.7442C23.6579 11.0447 23.6948 11.3464 23.7413 11.6464C23.7737 11.8529 23.8107 12.0589 23.8566 12.2631C23.7441 12.1932 23.6316 12.1227 23.5202 12.051C22.3673 11.3095 21.2754 10.4778 20.2114 9.6148C18.9528 8.59341 17.731 7.52724 16.4824 6.4941C15.5561 5.72847 14.6142 4.98132 13.6337 4.28621C13.3287 4.06962 13.0192 3.85807 12.7058 3.65267C12.4472 3.77244 12.192 3.8978 11.9401 4.02932C14.134 5.45759 16.0968 7.21103 18.0713 8.92305C19.354 10.0351 20.6491 11.1371 22.0259 12.1322C22.5704 12.5256 23.1267 12.9028 23.6982 13.256C23.8823 13.3696 24.0675 13.4804 24.2545 13.589C23.8974 13.6427 23.5392 13.6914 23.181 13.7367C21.8373 13.908 20.4868 14.044 19.1548 14.2986C18.6063 14.4039 18.0612 14.5292 17.5256 14.6871C17.3482 14.7397 17.1725 14.7951 16.9973 14.855C16.9066 14.8863 16.8159 14.9182 16.7258 14.9523C16.4611 15.0531 16.2065 15.1796 15.9636 15.3245C15.6541 15.5092 15.3625 15.7219 15.0804 15.9446C14.7732 16.1875 14.4749 16.4416 14.167 16.6839C13.9303 16.8698 13.6863 17.0494 13.4277 17.2044C13.1451 16.4601 12.8401 15.7247 12.5227 14.9943C11.8601 13.4675 11.1465 11.9637 10.4721 10.442C10.0943 9.59017 9.72889 8.73332 9.39421 7.8636C9.1737 7.2905 8.96718 6.71181 8.78025 6.12696C8.58773 6.28646 8.39856 6.44988 8.21219 6.61778C8.60675 7.858 9.08527 9.07192 9.59233 10.2702C10.2427 11.8087 10.9417 13.3254 11.5982 14.8611C11.8159 15.3693 12.0286 15.8808 12.2334 16.3946C11.9843 16.1836 11.7291 15.9799 11.4694 15.7823C10.9747 15.4062 10.4626 15.0525 9.94212 14.7117C8.64369 13.8615 7.29434 13.0926 5.96401 12.2934C5.45695 11.9895 4.95269 11.68 4.45571 11.3593C4.3365 11.577 4.22177 11.7969 4.11095 12.0202C4.50776 12.2861 4.9096 12.5447 5.31368 12.7999C6.62218 13.6259 7.9553 14.4145 9.23974 15.2781C9.85033 15.6883 10.4509 16.1153 11.0251 16.5754C11.4588 16.9224 11.8774 17.2884 12.2687 17.6824C11.8237 17.8195 11.3743 17.9426 10.9227 18.0557C10.2969 18.2124 9.66676 18.3506 9.0349 18.481C7.54059 18.7911 6.03565 19.0648 4.56876 19.4935C3.77963 19.7241 3.00281 20.0005 2.25342 20.3391C2.25957 20.6755 2.27524 21.0102 2.29931 21.3421C2.91271 21.0393 3.54849 20.7835 4.19658 20.5652C5.70041 20.0582 7.26132 19.7526 8.81103 19.4258C9.54196 19.2713 10.2729 19.1118 10.9971 18.9288C11.2008 18.8773 11.404 18.8236 11.606 18.7676C11.4588 18.9943 11.315 19.2226 11.1745 19.4537C10.9378 19.8421 10.7105 20.2367 10.4912 20.6352C9.72161 22.0349 9.05617 23.4889 8.43662 24.9603C7.64077 26.8514 6.92104 28.7733 6.1515 30.6751C6.10616 30.7887 6.05915 30.9017 6.01326 31.0153C6.19123 31.2448 6.37424 31.4703 6.56341 31.6909C6.57516 31.6623 6.58748 31.6338 6.59979 31.6052C7.54787 29.3817 8.40695 27.1212 9.38413 24.9099C10.1761 23.1184 11.0475 21.356 12.1047 19.7039C12.3834 19.2679 12.6755 18.8403 12.9805 18.4223C12.9805 18.4228 12.9811 18.424 12.9811 18.4251C13.1266 18.8599 13.2632 19.2982 13.3852 19.7397C13.4994 20.1544 13.6012 20.572 13.6969 20.9906C13.9907 22.2761 14.2353 23.5796 14.6942 24.8193C14.8677 25.2883 15.0703 25.7472 15.3076 26.1876C15.4834 26.5139 15.6776 26.8296 15.8886 27.134C15.5768 27.471 15.2657 27.8084 14.9556 28.1476C13.8587 29.3486 12.7802 30.567 11.7359 31.814C10.9993 32.6938 10.2802 33.5887 9.58729 34.5032C9.83298 34.6839 10.0837 34.8591 10.3389 35.0281C10.9792 34.1719 11.6424 33.3329 12.3207 32.5074C13.4126 31.1782 14.5454 29.8837 15.6961 28.606C15.8265 28.4616 15.9569 28.3177 16.0878 28.1739C16.1074 28.3765 16.1298 28.5791 16.1561 28.7806C16.2328 29.3722 16.3369 29.9592 16.4538 30.5435C16.6072 31.3075 16.7824 32.0664 16.9542 32.8259C17.0644 33.3116 17.1725 33.7974 17.2721 34.2843C17.4126 34.9711 17.5357 35.6611 17.6152 36.3574C17.6381 36.5572 17.6571 36.7581 17.6717 36.9584C17.6756 37.0155 17.6795 37.0726 17.6829 37.1297C17.6868 37.2013 17.6901 37.2718 17.6879 37.3429C17.6834 37.4761 17.6661 37.6082 17.6431 37.7392C17.6387 37.7632 17.6342 37.7867 17.6297 37.8102C17.8961 37.8494 18.1642 37.8824 18.4345 37.9093C18.4714 37.7213 18.4977 37.5299 18.5039 37.3379C18.5089 37.1935 18.4994 37.0491 18.491 36.9047C18.4782 36.6926 18.4608 36.4805 18.4395 36.2689C18.3444 35.3242 18.1731 34.3884 17.9829 33.4588C17.834 32.7335 17.675 32.0099 17.525 31.2845C17.3493 30.431 17.1876 29.5731 17.0846 28.7078C17.5239 29.2367 18.0064 29.7292 18.5117 30.1954C19.3283 30.9471 20.2047 31.6282 21.0711 32.3199C21.7511 32.8628 22.426 33.4141 23.0635 34.0068C23.1139 34.0532 23.1642 34.1002 23.2129 34.1489C23.2706 34.2071 23.326 34.2681 23.3786 34.3314C23.5135 34.4959 23.6243 34.6772 23.7122 34.8709C23.8213 35.111 23.8991 35.3639 23.9842 35.6136C24.0799 35.8939 24.1862 36.1693 24.325 36.4324C24.3726 36.5219 24.4218 36.612 24.4783 36.6965C24.5338 36.7799 24.5959 36.8588 24.6642 36.9321C24.8063 37.086 24.9714 37.2142 25.1477 37.3256C25.5126 37.2226 25.8719 37.109 26.2267 36.9842C26.0521 36.9075 25.8786 36.828 25.7124 36.734C25.5467 36.64 25.3861 36.5303 25.2574 36.3881C25.2188 36.3456 25.1835 36.2997 25.1522 36.2516C25.1259 36.2107 25.1024 36.1676 25.0789 36.1251C25.043 36.0591 25.0095 35.9919 24.9781 35.9236C24.9082 35.7731 24.8494 35.6175 24.7962 35.4608C24.7274 35.2587 24.6658 35.0544 24.5942 34.8535C24.5097 34.6173 24.4101 34.3868 24.2813 34.1713C24.1274 33.9127 23.936 33.6788 23.7189 33.4706C22.8833 32.668 21.9806 31.941 21.0823 31.2107C20.1583 30.4585 19.2348 29.6979 18.4177 28.8287C18.0371 28.4241 17.6801 27.9976 17.3571 27.5454C17.2547 27.4016 17.1562 27.2555 17.0611 27.1072C17.4461 26.688 17.8317 26.2699 18.2185 25.8524C18.4496 25.6028 18.6808 25.3532 18.9125 25.1036C19.0927 24.9088 19.274 24.7157 19.4475 24.5148C19.691 24.2322 19.9221 23.9383 20.142 23.6372C20.8696 22.6433 21.4808 21.5698 22.0522 20.4807C22.8044 19.0469 23.4877 17.5777 24.2539 16.1506C24.4778 15.7331 24.7095 15.3189 24.9524 14.9115C25.0296 15.2674 25.1096 15.6223 25.1925 15.9765C25.3934 16.8345 25.6089 17.6891 25.8288 18.5426C26.2905 20.3375 26.7724 22.1284 27.1877 23.935C27.5067 25.3213 27.7865 26.7177 27.9796 28.1275C28.0563 28.6877 28.119 29.2501 28.1637 29.8137C28.1878 30.1132 28.2074 30.4131 28.2203 30.7137C28.2975 32.5902 28.0171 34.4567 27.7171 36.3031C27.7121 36.3316 27.7076 36.3602 27.7031 36.3893C27.9606 36.2717 28.2152 36.1486 28.466 36.0199C28.7077 34.609 28.9221 33.193 28.9702 31.7608C28.982 31.4032 28.9842 31.0444 28.9736 30.6868C28.9652 30.4019 28.9501 30.1171 28.9311 29.8322C28.8952 29.2865 28.8426 28.7414 28.7777 28.198C28.612 26.8178 28.3619 25.4483 28.072 24.0889C27.6847 22.2711 27.2252 20.4701 26.7803 18.6663C26.5172 17.6001 26.2586 16.5328 26.0253 15.4594C26.3683 15.8305 26.8413 16.0342 27.3002 16.2261C27.4082 16.2715 27.5168 16.3168 27.6242 16.3649C27.7524 16.422 27.88 16.483 28.0014 16.5547C28.1626 16.6498 28.316 16.7651 28.4301 16.9157C28.4469 16.9375 28.4621 16.9604 28.4777 16.9834C28.5068 17.0259 28.5348 17.069 28.5628 17.1121C28.6445 17.2391 28.7217 17.369 28.7956 17.5011C29.0184 17.899 29.2126 18.3126 29.4152 18.7211C29.6312 19.1588 29.8584 19.5925 30.1338 19.9966C30.4047 20.3951 30.7237 20.7611 31.097 21.0667C31.1966 21.1484 31.2996 21.2256 31.4053 21.2984C31.5223 21.3779 31.6426 21.4523 31.7624 21.5267C31.9885 21.6661 32.2169 21.8004 32.448 21.9308C33.2864 22.4026 34.1567 22.8157 35.0348 23.208C35.9241 23.6048 36.8229 23.9809 37.7156 24.3715C37.7783 24.1191 37.8359 23.8645 37.8885 23.6081C37.1369 23.2712 36.3813 22.9433 35.6314 22.6024C34.7275 22.1911 33.8315 21.7618 32.9674 21.2715C32.7105 21.1255 32.457 20.9738 32.2073 20.816C32.0993 20.7471 31.9907 20.6789 31.8855 20.605C31.7932 20.5401 31.7031 20.4707 31.6175 20.3973C31.3566 20.1763 31.1294 19.9177 30.9324 19.639C30.7164 19.3329 30.5351 19.0043 30.3672 18.6702C30.0817 18.1038 29.831 17.5212 29.5198 16.9683C29.4538 16.8496 29.3844 16.7326 29.3122 16.6179C29.2708 16.5519 29.2282 16.4864 29.184 16.4226C29.1281 16.342 29.0654 16.2653 28.9982 16.1937C28.945 16.1377 28.888 16.084 28.8292 16.0336C28.4621 15.7191 28.011 15.5344 27.5722 15.3441C27.4983 15.3116 27.4244 15.2792 27.3511 15.2456C27.3052 15.2243 27.2599 15.202 27.2151 15.1796C27.1233 15.1337 27.0332 15.0839 26.9476 15.0268C26.8138 14.9383 26.6896 14.8292 26.6096 14.6893C26.5844 14.6451 26.5637 14.5986 26.5474 14.5505C26.506 14.4279 26.4937 14.2986 26.4937 14.1705C26.4931 14.0776 26.4657 13.992 26.4193 13.9192C26.7914 13.8134 27.1597 13.6914 27.524 13.5616C28.471 13.2246 29.3989 12.834 30.3582 12.5318C30.8238 12.3851 31.2973 12.2603 31.7781 12.1719C31.9493 12.1406 32.1212 12.1143 32.2941 12.0924C32.4105 12.0779 32.528 12.0661 32.645 12.0549C33.2472 11.9984 33.8528 11.9783 34.4572 11.9872C35.0124 11.9962 35.5665 12.0298 36.1189 12.0785C36.2235 12.0874 36.3276 12.0969 36.4317 12.107C36.3136 11.8652 36.1899 11.6262 36.0612 11.3901C35.5323 11.3419 35.0018 11.3078 34.4706 11.296C34.3134 11.2921 34.1555 11.291 33.9977 11.2916C33.5254 11.2927 33.053 11.3123 32.5818 11.3537C32.4038 11.3688 32.2253 11.3867 32.0484 11.4108C31.8117 11.4427 31.576 11.4835 31.3427 11.5322C30.7153 11.6615 30.1013 11.8462 29.4963 12.0544C28.8667 12.2715 28.246 12.5139 27.6198 12.74C27.1065 12.9252 26.5877 13.1004 26.0594 13.2392C26.1881 13.0663 26.3202 12.8961 26.4568 12.7288C26.8217 12.2833 27.2325 11.8775 27.6584 11.4908C28.1218 11.0699 28.6036 10.6703 29.0906 10.2769C29.8791 9.63942 30.6806 9.01707 31.4619 8.3701C31.937 7.97609 32.4055 7.57313 32.856 7.15115C32.6993 6.9978 32.5403 6.84725 32.3786 6.69949C31.871 7.16682 31.341 7.61007 30.8043 8.04269C30.0543 8.64769 29.2887 9.23367 28.5365 9.83587C28.1139 10.1745 27.6947 10.5187 27.289 10.8774C26.9218 11.2015 26.5648 11.5378 26.2329 11.8971C26.1075 12.0331 25.9866 12.173 25.8691 12.3152C25.6676 12.5586 25.4751 12.8099 25.2893 13.0657C25.2775 13.0193 25.2585 12.9739 25.2317 12.9314C25.2014 12.8838 25.1695 12.8368 25.1365 12.7909C25.0878 12.7232 25.0369 12.6577 24.9876 12.5911C24.9546 12.5463 24.9222 12.5021 24.8936 12.4551C24.874 12.4232 24.8561 12.3907 24.8427 12.356C24.8293 12.3225 24.8209 12.2872 24.8113 12.2525C24.7957 12.196 24.7817 12.1395 24.7677 12.0829C24.7218 11.8938 24.6854 11.7024 24.653 11.5109C24.6015 11.2082 24.5606 10.9037 24.5136 10.6004C24.4979 10.4957 24.4817 10.3916 24.4638 10.2875C24.4509 10.2136 24.4364 10.1403 24.4246 10.0664C24.4089 9.96907 24.3978 9.87057 24.3849 9.77262C24.3653 9.62599 24.3412 9.47936 24.3015 9.33664C24.2769 9.24934 24.2472 9.16147 24.2069 9.07976C24.1778 9.02043 24.1431 8.96447 24.1039 8.9113C24.0564 8.84638 24.0026 8.78649 23.9478 8.72829C23.9013 8.67904 23.8526 8.63202 23.8107 8.57886C23.7933 8.55703 23.7782 8.53352 23.762 8.51058C23.7362 8.47364 23.7099 8.4367 23.6842 8.39976C23.6221 8.31022 23.5599 8.21843 23.5146 8.11825C23.4726 8.02646 23.4458 7.92796 23.4239 7.82946C23.3915 7.68507 23.373 7.53732 23.3545 7.39012C23.3361 7.24069 23.3176 7.0907 23.2924 6.94183C23.2762 6.84501 23.2516 6.7493 23.2264 6.65416C23.2197 6.62786 23.2129 6.60211 23.2062 6.57581C23.2006 6.55286 23.1961 6.52936 23.19 6.50641C23.1883 6.50025 23.1872 6.4913 23.1861 6.48458C23.1838 6.47395 23.1822 6.46332 23.1799 6.45268C23.1721 6.40903 23.1665 6.36481 23.1603 6.3206C23.1441 6.19635 23.1318 6.07099 23.1223 5.94562C23.082 5.38652 23.1038 4.82573 23.1088 4.26606C23.1116 3.98231 23.1088 3.69856 23.1083 3.41481C23.1077 3.04319 23.11 2.67101 23.1111 2.29939C23.1111 2.27477 23.1111 2.2507 23.1111 2.22608C22.8475 2.1841 22.5822 2.14773 22.3147 2.11694ZM24.4431 14.3333C24.2271 14.6826 24.02 15.0363 23.8191 15.3945C22.9745 16.8983 22.2391 18.4598 21.4315 19.9826C21.1142 20.5809 20.7862 21.1736 20.4336 21.7512C20.1336 22.2426 19.8158 22.7239 19.4716 23.1856C19.2678 23.4582 19.0552 23.7234 18.8313 23.9792C18.6561 24.1796 18.472 24.3727 18.2895 24.5663C18.0461 24.8254 17.8026 25.084 17.5597 25.3431C17.2346 25.689 16.91 26.036 16.5865 26.383C16.5512 26.3572 16.5132 26.336 16.4729 26.3209C16.3492 26.1328 16.2322 25.9403 16.1231 25.7427C15.8891 25.319 15.6905 24.8764 15.5203 24.4236C15.2808 23.785 15.1 23.1263 14.9377 22.4647C14.8006 21.9084 14.6758 21.3493 14.542 20.7925C14.4385 20.3621 14.3288 19.9334 14.2062 19.508C14.0753 19.053 13.9292 18.6025 13.7742 18.1548C13.7574 18.1066 13.74 18.0585 13.7232 18.0104C14.0484 17.8257 14.3534 17.6052 14.6461 17.3729C15.0356 17.0651 15.4073 16.7354 15.8018 16.4338C16.1645 16.1567 16.5501 15.9043 16.9743 15.7325C17.093 15.6844 17.2144 15.6424 17.3353 15.601C17.5301 15.5344 17.7271 15.4723 17.9252 15.4152C18.5587 15.2327 19.2046 15.0956 19.8538 14.982C20.4784 14.8729 21.1069 14.7856 21.7354 14.7033C22.2772 14.6322 22.8201 14.5645 23.3618 14.4917C23.7228 14.443 24.0832 14.391 24.4431 14.3333Z" fill="#FFE2CE"/>
<path d="M32.2291 6.68005C33.9905 8.2445 35.4261 10.1401 36.4539 12.2586C37.4817 14.3771 38.0816 16.677 38.2193 19.027C38.3571 21.377 38.0299 23.7311 37.2566 25.9548C36.4833 28.1786 35.279 30.2285 33.7124 31.9875C32.1458 33.7464 30.2476 35.18 28.1262 36.2064C26.0047 37.2328 23.7017 37.8319 21.3484 37.9694C18.9951 38.107 16.6378 37.7803 14.4109 37.0081C12.1841 36.2358 10.1314 35.0332 8.36999 33.4687C8.36999 33.4687 19.9099 34.5548 27.6286 25.9548C35.3472 17.3549 32.2291 6.68005 32.2291 6.68005Z" fill="black" fill-opacity="0.1"/>
</svg>
