<svg width="41" height="40" viewBox="0 0 41 40" fill="none" xmlns="http://www.w3.org/2000/svg">
<path d="M0.75 20C0.75 8.95405 9.70405 0 20.75 0C31.796 0 40.75 8.95405 40.75 20C40.75 31.046 31.796 40 20.75 40C9.70405 40 0.75 31.046 0.75 20Z" fill="white"/>
<path d="M2.75 20C2.75 10.0586 10.8086 2 20.75 2C30.6914 2 38.75 10.0586 38.75 20C38.75 29.9414 30.6914 38 20.75 38C10.8086 38 2.75 29.9414 2.75 20Z" fill="#FFD8BE"/>
<path d="M20.75 28.6832C20.75 28.6832 20.5933 24.4986 18.4223 22.3277C16.2514 20.1567 12.0668 20 12.0668 20C12.0668 20 16.2514 19.8433 18.4223 17.6723C20.5933 15.5014 20.75 11.3168 20.75 11.3168C20.75 11.3168 20.9067 15.5014 23.0777 17.6723C25.2486 19.8433 29.4332 20 29.4332 20C29.4332 20 25.2486 20.1567 23.0777 22.3277C20.9067 24.4986 20.75 28.6832 20.75 28.6832Z" fill="#87B8DB"/>
<path d="M32.7291 6.68005C34.4905 8.2445 35.9261 10.1401 36.9539 12.2586C37.9817 14.3771 38.5816 16.677 38.7193 19.027C38.8571 21.377 38.5299 23.7311 37.7566 25.9548C36.9833 28.1786 35.779 30.2285 34.2124 31.9875C32.6458 33.7464 30.7476 35.18 28.6262 36.2064C26.5047 37.2328 24.2017 37.8319 21.8484 37.9694C19.4951 38.107 17.1378 37.7803 14.9109 37.0081C12.6841 36.2358 10.6314 35.0332 8.86999 33.4687C8.86999 33.4687 20.4099 34.5548 28.1286 25.9548C35.8472 17.3549 32.7291 6.68005 32.7291 6.68005Z" fill="black" fill-opacity="0.1"/>
</svg>
