<svg width="40" height="40" viewBox="0 0 40 40" fill="none" xmlns="http://www.w3.org/2000/svg">
<path d="M0 20C0 8.95404 8.95404 0 20 0C31.046 0 40 8.95404 40 20C40 31.046 31.046 40 20 40C8.95404 40 0 31.046 0 20Z" fill="white"/>
<path d="M2 20C2 10.0586 10.0698 2 20.025 2C29.9802 2 38.0501 10.0586 38.0501 20C38.0501 29.9414 29.9802 38 20.025 38C10.0698 38 2 29.9414 2 20Z" fill="#FFD8BE"/>
<path d="M31.9791 6.68005C33.7405 8.2445 35.1761 10.1401 36.2039 12.2586C37.2317 14.3771 37.8316 16.677 37.9693 19.027C38.1071 21.377 37.7799 23.7311 37.0066 25.9548C36.2333 28.1786 35.029 30.2285 33.4624 31.9875C31.8958 33.7464 29.9976 35.18 27.8762 36.2064C25.7547 37.2328 23.4517 37.8319 21.0984 37.9694C18.7451 38.107 16.3878 37.7803 14.1609 37.0081C11.9341 36.2358 9.88139 35.0332 8.11999 33.4687C8.11999 33.4687 19.6599 34.5548 27.3786 25.9548C35.0972 17.3549 31.9791 6.68005 31.9791 6.68005Z" fill="black" fill-opacity="0.1"/>
<path d="M37.592 35.4567L31.5545 29.4045L31.1738 29.0221C30.9966 28.843 30.7073 28.843 30.5279 29.0221L30.4443 29.1078L29.1306 30.4252L29.129 30.4235L29.0454 30.5092C28.8677 30.6883 28.8677 30.9767 29.0454 31.1558L29.4277 31.5382L35.4652 37.5909C36.0071 38.1364 36.8884 38.1364 37.4324 37.5909L37.592 37.4294C38.136 36.8861 38.136 36.0027 37.592 35.4567Z" fill="#E7F2F1"/>
<path d="M29.1928 27.852C32.0391 24.3367 31.8317 19.1634 28.5689 15.8915C25.0845 12.3982 19.4337 12.3982 15.9498 15.8915C12.4659 19.3865 12.4659 25.0492 15.9498 28.5442C19.2126 31.8144 24.3732 32.0238 27.8769 29.1693L29.129 30.4235L30.4443 29.1078L29.1928 27.852Z" fill="#E7F2F1"/>
<path d="M27.7196 17.2209L21.8218 29.6154C21.0627 29.5715 20.3068 29.4105 19.5895 29.1314L25.9356 15.786C26.4901 16.1041 27.0122 16.5002 27.4864 16.9759C27.5662 17.0556 27.6437 17.1374 27.7196 17.2209Z" fill="#D6EAE8"/>
<path d="M25.9355 15.786L19.5894 29.1314C18.6564 28.771 17.7834 28.214 17.0319 27.4597C16.8905 27.3186 16.7552 27.1708 16.6276 27.0219L16.6732 26.984L22.4654 14.8065C23.6674 14.8406 24.8611 15.1669 25.9355 15.786Z" fill="#C3DDDA"/>
<path d="M22.4654 14.8065L16.6732 26.984L16.6276 27.0219C16.0318 26.3193 15.5851 25.5332 15.2919 24.7031L19.8006 15.2246C20.6599 14.9219 21.5648 14.7829 22.4654 14.8065Z" fill="#D6EAE8"/>
<path d="M21.8218 29.6154C23.8566 29.7368 25.9317 29.0182 27.4863 27.4597C30.2947 24.6432 30.3728 20.1308 27.7196 17.2209C27.6436 17.1374 27.5661 17.0556 27.4863 16.9759C27.0121 16.5002 26.49 16.1041 25.9355 15.786C24.8612 15.1669 23.6674 14.8406 22.4654 14.8065C21.5649 14.7829 20.6599 14.9219 19.8006 15.2246C18.7901 15.5805 17.8417 16.1662 17.0319 16.9759C14.9475 19.0662 14.3671 22.0937 15.2919 24.7031C15.5851 25.5332 16.0318 26.3193 16.6276 27.0219C16.7552 27.1708 16.8905 27.3186 17.0319 27.4597C17.7834 28.214 18.6564 28.771 19.5894 29.1314C20.3067 29.4105 21.0626 29.5714 21.8218 29.6154ZM29.1928 27.852C28.9991 28.0904 28.7901 28.3217 28.5689 28.5442C28.3472 28.7672 28.1162 28.9743 27.8769 29.1693C24.3732 32.0238 19.2126 31.8144 15.9498 28.5442C12.4659 25.0492 12.4659 19.3865 15.9498 15.8915C19.4337 12.3982 25.0845 12.3982 28.5689 15.8915C31.8317 19.1634 32.0391 24.3367 29.1928 27.852Z" fill="#655F68"/>
<path d="M37.592 35.4572C38.1361 36.0027 38.1361 36.886 37.592 37.4294L37.4325 37.5909C36.8884 38.1364 36.0071 38.1364 35.4653 37.5909L29.4277 31.5381L31.5545 29.4044L37.592 35.4572Z" fill="#604533"/>
<path d="M31.1738 29.0221L31.5545 29.4045L29.4277 31.5382L29.0454 31.1558C28.8677 30.9767 28.8677 30.6883 29.0454 30.5092L29.129 30.4235L29.1306 30.4252L30.4443 29.1078L30.5279 29.0221C30.7073 28.843 30.9966 28.843 31.1738 29.0221Z" fill="#655F68"/>
<path d="M29.1927 27.8519L30.4442 29.1077L29.1289 30.4234L27.8768 29.1693C28.1161 28.9743 28.3472 28.7671 28.5689 28.5441C28.79 28.3216 28.9991 28.0903 29.1927 27.8519Z" fill="#ABA9A0"/>
<path d="M19.8743 28.5327L19.5894 29.1315C19.135 28.9562 18.6943 28.7337 18.274 28.4629C18.7703 28.5085 19.3083 28.5387 19.8743 28.5327Z" fill="#B8D3CF"/>
<path d="M22.4699 28.2518L21.8218 29.6153C21.0627 29.5714 20.3068 29.4104 19.5895 29.1313L19.8744 28.5325C20.6996 28.5265 21.5825 28.4485 22.4699 28.2518Z" fill="#C3DDDA"/>
<path d="M29.5113 20.7856C29.9717 23.1264 29.2962 25.6441 27.4863 27.4597C25.9317 29.0182 23.8567 29.7368 21.8218 29.6154L22.4698 28.2519C25.4058 27.6069 28.3891 25.6743 29.5113 20.7856Z" fill="#D6EAE8"/>
<path d="M29.1928 27.8519C28.9992 28.0903 28.7901 28.3216 28.569 28.5441C28.3473 28.7671 28.1162 28.9742 27.8769 29.1693C24.3732 32.0237 19.2126 31.8144 15.9499 28.5441C15.7507 28.343 15.5615 28.1365 15.386 27.9233C15.386 27.9233 16.5759 28.3013 18.2741 28.4628C18.6944 28.7336 19.135 28.9561 19.5894 29.1314C20.3068 29.4104 21.0626 29.5714 21.8218 29.6153C23.8567 29.7367 25.9317 29.0182 27.4863 27.4597C29.2962 25.6441 29.9718 23.1264 29.5113 20.7856C29.7248 19.8545 29.8722 18.8151 29.9382 17.6587C31.8158 20.8317 31.5665 24.92 29.1928 27.8519Z" fill="#5D5560"/>
</svg>
