<svg width="229" height="240" viewBox="0 0 229 240" fill="none" xmlns="http://www.w3.org/2000/svg">
<path d="M207.858 189.448C210.037 193.89 211.838 198.468 212.777 203.343C213.707 208.192 214.73 213.033 214.726 218.006C214.713 228.731 206.363 238.227 195.754 239.631C193.783 239.89 191.821 239.992 189.837 239.992C143.555 239.992 97.2769 239.992 50.9946 240C39.7776 240 31.1982 233.941 28.1359 223.946C26.6748 219.181 27.3671 214.433 28.0722 209.69C28.5479 206.491 29.2657 203.33 29.8773 200.152C30.3402 198.757 30.7565 197.344 31.2789 195.969C32.9948 191.455 35.1311 187.276 39.3019 184.399C43.8762 181.247 48.9347 179.151 54.0908 177.259C66.2167 172.808 78.7759 169.936 91.3775 167.25C92.8343 166.94 93.4501 166.325 93.6667 165.018C95.2595 155.426 96.8267 145.829 98.4704 136.244C98.636 135.281 98.4959 134.632 97.7654 134.025C95.2213 131.908 92.9999 129.46 90.6937 127.097C89.0245 124.971 87.1982 122.952 85.7117 120.703C82.4625 115.794 79.2686 110.839 77.6843 105.06C77.4975 104.377 77.1917 103.707 76.253 103.41C72.9826 102.375 69.9459 100.898 67.44 98.4331C64.5901 95.6329 62.7255 92.3023 61.8803 88.4457C61.2008 85.3485 62.8954 82.3489 62.5047 79.2305C62.4919 79.1159 62.6236 78.9802 62.6873 78.8571C62.6873 78.0086 62.683 77.1558 62.6788 76.3072C64.7344 76.8673 64.1951 74.7501 64.9978 74.0077C67.2488 71.9245 69.8609 70.8723 72.8425 70.2571C74.8089 69.8541 75.6329 70.6644 76.236 72.1409C77.5612 75.3865 79.5616 78.3098 80.7254 81.6361C80.891 82.107 81.201 82.8283 81.7999 82.8028C82.4625 82.7731 82.4031 81.984 82.6367 81.4961C83.4649 79.7905 82.6876 78.0425 82.815 76.3157C83.0528 73.0616 83.3884 69.8244 83.8938 66.5956C84.6711 61.6274 85.924 56.8204 87.9924 52.2213C89.1434 49.6672 90.6767 47.3888 92.2651 45.0808C94.4992 41.8309 97.2981 39.5143 100.908 38.11C104.629 36.659 108.456 35.5601 112.295 34.4527C115.328 33.5787 116.326 33.846 117.957 36.4129C118.067 36.5911 118.152 36.8117 118.309 36.9305C121.44 39.3276 123.58 42.7091 126.596 45.2208C129.012 47.2361 131.319 49.3787 133.65 51.4873C135.901 53.5196 138.603 55.0978 141.232 56.6634C145.33 59.0987 149.395 61.5892 153.986 63.1124C158.013 64.4446 162.052 65.4925 166.312 65.7259C167.497 65.7895 168.915 65.9211 169.344 67.5078C170.444 71.5681 171.71 75.5775 172.3 79.7693C172.619 82.0179 172.649 84.3811 173.919 86.4134C172.831 88.3523 173.133 90.4695 173.12 92.5442C173.12 93.0363 173.09 93.626 173.647 93.8C174.093 93.94 174.373 93.4563 174.666 93.1721C176.794 91.0974 178.043 88.5263 178.565 85.6582C179.041 83.0489 177.635 80.202 175.66 79.2517C175.431 76.9097 176.701 74.8392 176.849 72.5566C176.926 71.3941 177.767 71.0844 178.82 71.1862C180.328 71.3263 181.61 72.0348 182.277 73.3161C182.944 74.5932 184.333 75.0853 184.987 76.2903C185.144 77.0455 185.267 77.8091 185.471 78.5516C186.444 82.1494 186.771 85.8194 186.04 89.4554C184.804 95.5904 180.871 99.6762 175.337 102.222C173.405 103.109 172.661 104.475 172.292 106.363C171.498 110.427 170.41 114.398 168.745 118.221C165.789 125.018 161.572 130.89 156.246 136.024C151.909 140.198 146.881 143.368 141.673 146.295C141.092 146.266 140.616 146.524 140.085 146.745C137.035 148.022 133.96 149.125 130.571 149.299C122.565 149.706 115.803 146.393 109.216 142.481C107.394 141.399 105.635 140.207 103.516 138.853C103.677 139.554 103.656 139.808 103.771 139.923C108.609 144.747 113.034 150.071 118.704 153.936C124.107 157.619 126.634 158.943 133.434 154.878C136.144 153.258 138.891 151.692 141.618 150.105C141.652 154.055 141.699 158.005 141.712 161.955C141.729 166.427 141.729 166.359 146.057 167.178C159.185 169.668 172.326 172.159 185.025 176.427C193.477 179.27 202.027 181.998 207.854 189.452L207.858 189.448ZM152.886 75.429C151.586 75.255 150.355 75.6284 149.106 75.8448C137.418 77.8431 130.826 89.1033 135.387 100.601C136.245 102.765 137.252 104.865 138.123 107.02C139.104 109.456 139.015 109.736 136.589 110.618C135.617 110.975 135.732 111.594 135.753 112.281C135.782 113.21 136.466 113.202 137.125 113.155C140.234 112.939 141.932 110.745 140.994 107.729C140.038 104.653 138.76 101.67 137.562 98.6706C134.423 90.8386 138.276 83.0065 145.428 79.6463C151.009 77.02 156.543 77.5419 161.907 80.2827C163.186 80.9361 163.785 80.6179 164.316 79.536C164.982 78.174 163.636 78.1952 163.033 77.8813C159.86 76.2224 156.399 75.6793 152.878 75.4332L152.886 75.429ZM90.3369 184.471C94.8305 187.314 99.4345 188.599 104.102 189.435C107.504 190.046 110.974 190.98 114.525 190.029C115.315 189.817 115.859 189.72 115.71 188.744C115.217 185.57 111.14 182.812 107.971 183.44C104.875 184.051 101.753 184.535 98.5723 184.484C95.9645 184.442 93.3567 184.476 90.3369 184.476V184.471ZM158.212 184.662C152.665 184.336 147.118 185.061 141.758 183.525C137.388 182.278 134.878 185.239 133.383 188.387C133.111 188.96 132.933 189.732 133.846 189.91C135.009 190.135 136.224 190.403 137.379 190.288C140.922 189.927 144.494 189.779 147.959 188.744C151.51 187.687 155.006 186.559 158.212 184.662ZM69.9119 84.6527C69.6103 87.1728 71.1563 88.9845 71.9803 91.0337C72.4984 92.3193 73.4244 93.2866 74.4607 94.1309C75.2422 94.7673 76.236 94.7801 77.0303 94.2455C77.9349 93.6345 77.4465 92.7817 77.1407 91.9714C76.6905 90.7749 75.6881 89.9519 75.2337 88.7257C74.2908 86.2013 73.4626 83.6981 73.7344 80.9573C73.8066 80.2487 73.5518 79.7354 72.8425 79.4723C72.1502 79.2135 71.7764 79.6887 71.4154 80.096C70.2389 81.4239 69.6825 82.9725 69.9161 84.6569L69.9119 84.6527Z" fill="#D07452"/>
<path d="M141.673 146.291C146.88 143.363 151.909 140.194 156.246 136.019C161.572 130.89 165.789 125.014 168.745 118.217C170.41 114.394 171.497 110.423 172.292 106.358C172.661 104.47 173.4 103.104 175.337 102.217C180.871 99.6719 184.804 95.5861 186.04 89.4511C186.771 85.8151 186.444 82.1452 185.471 78.5474C185.271 77.8049 185.148 77.0412 184.987 76.286C185.828 74.8137 185.832 73.176 185.845 71.5638C185.887 66.3368 185.743 61.1097 185.913 55.8869C186.138 48.9543 184.779 42.1108 184.914 35.1909C188.219 36.2431 190.224 38.9924 192.623 41.1859C195.448 43.7697 198.268 46.4087 200.731 49.3235C203.704 52.8364 206.355 56.6252 209.052 60.3672C212.012 64.4742 214.42 68.9376 216.705 73.4306C220.141 80.1808 222.791 87.2831 224.8 94.5763C228.389 107.623 228.984 121 228.19 134.407C227.85 140.114 226.746 145.799 225.336 151.403C223.53 158.591 221.088 165.532 218.022 172.256C215.388 178.031 212.135 183.474 208.669 188.782C208.487 189.062 208.134 189.232 207.862 189.448C202.031 181.993 193.481 179.265 185.033 176.423C172.33 172.15 159.193 169.66 146.065 167.174C141.737 166.355 141.737 166.423 141.72 161.951C141.707 158.001 141.66 154.051 141.626 150.101C141.643 148.832 141.665 147.56 141.682 146.291H141.673Z" fill="#FBE5D7"/>
<path d="M62.6745 76.3071C62.6745 77.1557 62.6787 78.0084 62.6829 78.857C61.2006 78.84 59.7141 78.8018 58.2318 78.8145C50.5146 78.8782 42.8016 78.3945 35.3009 81.2287C28.1018 83.9482 22.4997 88.4498 18.6007 94.9072C14.3492 101.954 12.6121 109.553 14.1241 117.899C15.1222 123.389 16.9783 128.399 20.3718 132.727C25.116 138.773 31.2363 143.045 38.7497 144.887C43.3792 146.019 48.0851 146.198 52.9313 145.294C57.3994 144.458 61.6806 143.075 65.7112 141.284C72.7107 138.175 79.5148 134.589 85.822 130.113C87.3383 129.036 88.5742 127.288 90.6851 127.101C92.9913 129.464 95.2169 131.908 97.7568 134.029C98.4873 134.64 98.6274 135.285 98.4618 136.248C96.8223 145.833 95.2509 155.43 93.6582 165.022C93.4416 166.325 92.8257 166.94 91.3689 167.254C78.7673 169.94 66.2082 172.812 54.0822 177.263C48.9261 179.155 43.8676 181.251 39.2933 184.403C35.1183 187.28 32.9819 191.459 31.2703 195.973C30.7479 197.348 30.3316 198.761 29.8687 200.156C29.6223 200.029 29.308 199.966 29.1424 199.77C23.3959 193.097 18.0401 186.156 14.0859 178.222C11.9453 173.924 9.5116 169.762 8.00807 165.171C6.564 160.771 5.20491 156.35 3.94347 151.887C1.39937 142.875 0.617888 133.677 0.507459 124.437C0.431009 117.928 0.940636 111.416 2.10863 104.924C3.37431 97.8941 5.13695 91.0294 7.60885 84.381C10.1317 77.5884 13.3511 71.1013 17.2119 64.9027C19.9089 60.5751 22.7928 56.4215 25.9612 52.4503C31.7842 45.1443 38.5798 38.8396 45.936 33.1076C50.8289 29.2934 56.0997 26.0563 61.5957 23.2221C66.3908 20.7529 71.3346 18.5976 76.4228 16.7562C80.1477 15.407 83.9617 14.4397 87.7757 13.4341C88.2429 13.3111 88.7058 12.9717 89.0711 13.5911C88.795 14.4736 87.9796 14.7579 87.3085 15.2204C80.6446 19.8067 75.4714 25.789 71.084 32.5052C68.2596 36.8285 66.0213 41.4446 64.5645 46.3874C63.5112 49.964 62.3899 53.5916 62.0034 57.2742C61.4427 62.5904 61.5999 67.9786 61.9057 73.333C61.9652 74.3597 61.893 75.4543 62.6702 76.3114L62.6745 76.3071Z" fill="#FBE5D7"/>
<path d="M184.97 35.1909C184.753 35.1315 184.613 35.0255 184.728 34.7751C184.808 34.9152 184.889 35.0509 184.97 35.1909Z" fill="#B0E9FD"/>
<path d="M90.6893 127.097C88.5784 127.284 87.3424 129.032 85.8261 130.109C79.5232 134.585 72.7191 138.17 65.7154 141.28C61.6848 143.071 57.4036 144.454 52.9354 145.29C48.0893 146.198 43.3876 146.019 38.7539 144.882C31.2405 143.041 25.1202 138.769 20.376 132.723C16.9824 128.395 15.1222 123.384 14.1283 117.894C12.612 109.549 14.3492 101.946 18.6049 94.903C22.5039 88.4456 28.106 83.9441 35.3051 81.2245C42.8057 78.3904 50.5187 78.8698 58.236 78.8104C59.7183 78.7977 61.2048 78.8359 62.6871 78.8528C62.6234 78.9801 62.4875 79.1116 62.5045 79.2262C62.8953 82.3446 61.2006 85.3442 61.8802 88.4414C62.7254 92.298 64.5899 95.6286 67.4398 98.4288C69.9457 100.894 72.9825 102.37 76.2529 103.405C77.1915 103.702 77.4973 104.369 77.6842 105.056C79.2684 110.835 82.4624 115.79 85.7115 120.699C87.198 122.943 89.0201 124.967 90.6935 127.093L90.6893 127.097Z" fill="#2E2423"/>
<path d="M141.673 146.291C141.656 147.559 141.635 148.832 141.618 150.101C138.887 151.692 136.143 153.253 133.434 154.874C126.634 158.938 124.107 157.615 118.704 153.932C113.03 150.067 108.608 144.742 103.771 139.918C103.656 139.804 103.673 139.549 103.516 138.849C105.635 140.203 107.394 141.395 109.216 142.477C115.803 146.388 122.565 149.702 130.571 149.295C133.964 149.121 137.035 148.018 140.085 146.741C140.611 146.52 141.087 146.257 141.673 146.291Z" fill="#A75A3B"/>
<path d="M90.3369 184.471C93.3567 184.471 95.9645 184.437 98.5723 184.48C101.753 184.531 104.871 184.047 107.971 183.436C111.14 182.812 115.217 185.566 115.71 188.739C115.863 189.715 115.319 189.813 114.525 190.025C110.974 190.975 107.504 190.038 104.102 189.431C99.4345 188.595 94.8305 187.31 90.3369 184.467V184.471Z" fill="#A75A3B"/>
<path d="M158.212 184.662C155.01 186.559 151.51 187.683 147.959 188.744C144.489 189.779 140.921 189.923 137.379 190.288C136.224 190.407 135.009 190.14 133.846 189.91C132.932 189.732 133.111 188.96 133.383 188.387C134.878 185.239 137.388 182.278 141.758 183.525C147.122 185.057 152.665 184.336 158.212 184.662Z" fill="#A75A3B"/>
<path d="M69.9117 84.6525C69.6781 82.9682 70.2345 81.4238 71.411 80.0916C71.7721 79.6843 72.1458 79.2091 72.8381 79.4679C73.5474 79.731 73.8022 80.2401 73.73 80.9529C73.4582 83.6937 74.2864 86.1969 75.2293 88.7213C75.688 89.9475 76.6861 90.7748 77.1363 91.967C77.4421 92.7773 77.9348 93.6302 77.0259 94.2411C76.2359 94.7757 75.2421 94.763 74.4563 94.1266C73.4158 93.2823 72.4898 92.3191 71.9759 91.0293C71.1519 88.9801 69.6102 87.1684 69.9075 84.6483L69.9117 84.6525Z" fill="#A75A3B"/>
<path d="M173.918 86.4176C174.496 84.0289 174.632 81.5342 175.66 79.2559C177.635 80.2062 179.041 83.0488 178.565 85.6624C178.043 88.5304 176.794 91.1016 174.666 93.1763C174.373 93.4648 174.093 93.9442 173.647 93.8042C173.09 93.6302 173.116 93.0405 173.12 92.5484C173.133 90.4737 172.831 88.3523 173.918 86.4176Z" fill="#A75A3B"/>
<path d="M165.431 67.5C165.431 85.4492 149.985 67.5 130.931 67.5C111.877 67.5 93 78.4492 93 60.5C93 42.5508 112 44.5 130.931 52C152.5 58 165.431 49.5508 165.431 67.5Z" fill="#FFD36C" fill-opacity="0.4"/>
<path d="M140.5 102.492C140.5 109.826 137.59 114 134 114C130.41 114 125.5 109.826 125.5 102.492C125.5 83.9036 130.5 80 133 81.2477C135.685 82.5878 140.5 99.5 140.5 102.492Z" fill="#FFD36C" fill-opacity="0.4"/>
<path d="M152.886 75.4291C156.403 75.6794 159.868 76.2182 163.041 77.8771C163.644 78.1911 164.991 78.1656 164.324 79.5318C163.793 80.6137 163.194 80.9319 161.916 80.2785C156.551 77.5377 151.017 77.0159 145.436 79.6421C138.284 83.0066 134.427 90.8386 137.57 98.6665C138.772 101.666 140.047 104.649 141.002 107.725C141.941 110.741 140.242 112.935 137.133 113.151C136.475 113.198 135.791 113.206 135.761 112.277C135.736 111.59 135.625 110.97 136.598 110.614C139.023 109.727 139.112 109.447 138.131 107.016C137.26 104.861 136.254 102.756 135.396 100.597C130.834 89.0949 137.426 77.839 149.114 75.8406C150.363 75.6285 151.595 75.2551 152.894 75.4248L152.886 75.4291Z" fill="#A75A3B"/>
<path d="M142.635 139.512C142.635 143.102 136.367 146.012 128.635 146.012C120.903 146.012 114.635 143.102 114.635 139.512C114.635 133 121.268 137.5 129 137.5C136.732 137.5 142.635 134 142.635 139.512Z" fill="#FFD36C" fill-opacity="0.4"/>
<path d="M62.6745 76.3072C61.8973 75.4502 61.9695 74.3555 61.91 73.3288C61.6042 67.9745 61.447 62.5905 62.0077 57.2701C62.3942 53.5916 63.5155 49.9599 64.5688 46.3832C66.0256 41.4405 68.2681 36.8244 71.0883 32.501C75.4757 25.7848 80.6488 19.8026 87.3128 15.2162C87.9839 14.7537 88.7993 14.4694 89.0754 13.5869C92.9362 11.7414 96.5761 9.47999 100.564 7.86351C107.653 4.99118 115.013 3.42138 122.603 3.41289C130.834 3.40865 138.87 2.01278 146.974 0.960585C152.194 0.281749 157.443 -0.469164 162.769 0.375139C169.956 1.51643 174.883 5.52579 178.217 11.8093C181.636 18.2455 183.02 25.2587 184.137 32.3483C184.269 33.1799 184.184 34.0496 184.732 34.7751C184.617 35.0255 184.753 35.1315 184.974 35.1909H184.919C184.783 42.1108 186.142 48.9543 185.917 55.8869C185.747 61.1055 185.887 66.3368 185.849 71.5638C185.836 73.176 185.832 74.8137 184.991 76.2859C184.337 75.081 182.948 74.5931 182.281 73.3118C181.615 72.0347 180.332 71.3262 178.824 71.1819C177.771 71.0844 176.93 71.3941 176.853 72.5524C176.705 74.835 175.435 76.9054 175.664 79.2474C174.636 81.5257 174.496 84.0204 173.923 86.4091C172.649 84.3768 172.619 82.0137 172.305 79.765C171.714 75.5732 170.448 71.5638 169.348 67.5035C168.919 65.9125 167.501 65.7852 166.316 65.7215C162.06 65.4882 158.021 64.4403 153.99 63.1081C149.399 61.5849 145.335 59.0944 141.236 56.6591C138.607 55.0978 135.906 53.5195 133.655 51.483C131.323 49.3744 129.017 47.2318 126.6 45.2165C123.584 42.7048 121.448 39.3233 118.314 36.9262C118.156 36.8074 118.076 36.5868 117.961 36.4086C116.33 33.8417 115.332 33.5744 112.299 34.4484C108.46 35.5558 104.633 36.6589 100.912 38.1057C97.3066 39.51 94.5076 41.8308 92.2693 45.0765C90.6809 47.3845 89.1476 49.6586 87.9966 52.217C85.9282 56.8161 84.6753 61.6231 83.898 66.5913C83.3926 69.82 83.0571 73.053 82.8192 76.3114C82.6918 78.0382 83.469 79.7862 82.6408 81.4918C82.4072 81.9755 82.4667 82.7646 81.8041 82.7985C81.2052 82.8282 80.8952 82.1027 80.7295 81.6318C79.5658 78.3055 77.5654 75.3822 76.2402 72.1366C75.6371 70.6601 74.8132 69.8455 72.8467 70.2528C69.8609 70.8638 67.2488 71.9202 65.002 74.0034C64.1993 74.7458 64.7386 76.863 62.683 76.3029L62.6745 76.3072Z" fill="#2E2423"/>
<path d="M160.384 103.469C158.634 103.469 156.884 103.473 155.129 103.469C154.696 103.469 154.216 103.41 154.152 102.879C154.08 102.301 154.458 101.94 154.998 101.847C158.922 101.18 162.826 101.168 166.657 102.403C167.384 102.637 168.301 102.998 168.28 103.868C168.254 104.981 167.158 104.645 166.462 104.807C165.366 105.057 164.274 105.316 163.179 105.55C162.775 105.639 162.376 105.592 162.388 106.25C162.414 107.634 161.458 107.702 160.367 107.741C158.697 107.804 157.143 107.575 155.72 106.649C155.287 106.369 154.887 106.127 154.921 105.528C154.959 104.866 155.354 104.577 155.928 104.335C157.338 103.737 158.833 103.987 160.384 103.473V103.469Z" fill="#FDB39B"/>
<path d="M105.657 101.91C106.281 102.483 107.573 102.517 107.084 103.702C106.668 104.717 105.827 104.139 105.079 104.071C103.682 103.944 102.255 104.084 100.866 103.91C100.135 103.821 98.9374 103.952 98.8907 102.819C98.8524 101.859 99.8379 101.524 100.611 101.184C101.235 100.908 102.034 101.099 102.798 100.152C101.588 100.152 100.611 100.169 99.6382 100.144C99.0351 100.127 98.4447 99.9312 98.5041 99.2051C98.5509 98.6361 98.8737 98.1393 99.5661 98.0884C101.979 97.9101 104.476 97.8931 106.562 99.1075C109.14 100.615 106.188 100.895 105.653 101.91H105.657Z" fill="#FDB39B"/>
</svg>
