<svg width="229" height="240" viewBox="0 0 229 240" fill="none" xmlns="http://www.w3.org/2000/svg">
<path d="M202.729 191.963C205.091 198.179 206.752 204.561 207.674 211.16C208.583 217.669 208.566 223.953 204.713 229.694C200.206 236.411 193.928 239.91 185.867 239.953C171.225 240.033 156.579 239.987 141.938 239.987C109.329 239.987 76.7163 239.948 44.1076 239.995C34.3126 240.008 27.2234 235.774 22.7804 227.083C20.3848 222.391 20.6312 217.38 21.1706 212.365C21.8927 205.673 23.6045 199.211 25.7622 192.859C26.1615 192.213 26.5862 191.585 26.96 190.927C28.5231 188.162 30.6512 185.993 33.2295 184.103C36.7635 181.513 40.8497 180.141 44.7362 178.324C48.0621 176.766 51.7447 176.15 55.0281 174.473C55.6822 174.626 56.2726 174.392 56.8843 174.21C66.0251 171.484 75.2891 169.25 84.6295 167.365C86.3413 167.021 86.9402 166.257 87.1993 164.66C88.5246 156.516 89.7096 148.338 91.4214 140.274C92.2327 136.453 91.4044 134.062 88.5288 131.383C80.6878 124.071 74.4948 115.507 71.2284 105.12C70.8589 103.944 70.1283 103.609 69.1641 103.324C65.1756 102.157 61.8625 99.9146 59.2459 96.7343C55.5463 92.2333 54.803 87.087 55.6865 81.3887C56.7144 74.7477 60.0488 71.062 66.641 70.1194C68.0767 69.9156 68.9389 70.2595 69.6058 71.7117C71.5385 75.9112 73.6665 80.0172 75.7181 84.1614C76.2448 80.1021 76.0876 76.1107 76.5676 72.1363C77.4214 65.0962 78.7211 58.175 81.6307 51.6699C84.8886 44.3877 89.7904 38.8762 97.8523 36.681C100.775 35.8827 103.714 35.0886 106.598 34.163C108.62 33.5176 109.775 34.0738 111.096 35.5939C118.597 44.2306 126.94 51.9331 136.798 57.8523C144.278 62.3489 152.213 65.559 161.09 65.8011C162.254 65.8308 162.602 66.3191 162.896 67.3636C164.68 73.6862 165.962 80.1148 167.084 86.5775C168.171 88.8661 166.684 91.3204 167.215 93.8384C169.314 92.3268 170.163 90.3396 171.136 88.4967C172.831 85.2866 171.722 80.8452 169.05 79.3972C169.123 76.9132 169.993 74.5736 170.35 72.1448C170.575 70.6077 171.378 70.6926 172.419 71.096C175.345 72.2297 177.397 74.2636 178.459 77.2147C178.981 78.6584 179.351 80.1573 179.792 81.6307C179.792 84.1274 179.784 86.6199 179.78 89.1167C177.945 95.8553 173.825 100.518 167.215 102.912C166.311 103.239 166.264 103.948 166.124 104.747C163.354 120.576 155.513 133.162 142.057 142.109C139.776 143.625 137.41 145.017 135.082 146.469C120.568 153.183 108.505 147.098 96.8966 138.843C97.7546 140.003 98.6126 140.979 99.4409 141.977C103.489 146.881 108.233 151.009 113.326 154.796C117.047 157.565 120.785 157.87 124.965 155.904C128.55 154.219 131.684 151.832 135.121 149.922C135.146 154.864 135.21 159.811 135.18 164.753C135.172 166.112 135.507 166.681 137.002 166.919C145.285 168.231 153.5 169.891 161.676 171.768C167.793 173.169 173.765 175.072 179.831 176.655C181.81 177.5 183.794 178.345 185.777 179.186C187.208 179.792 188 180 189.948 180.893C194.447 183.092 198.711 185.538 201.43 190.022C201.816 190.659 202 191 202.725 191.958L202.729 191.963ZM147.377 76.0189C140.097 75.4287 133.488 79.2248 130.051 84.7108C127.652 88.5451 126.859 92.4117 127.823 96.6748C128.605 100.131 130.172 103.418 131.468 106.751C132.517 109.46 132.593 109.498 130.019 110.776C129.127 111.218 129.267 111.851 129.28 112.53C129.289 113.018 129.544 113.26 130.074 113.298C133.307 113.536 135.422 110.594 134.437 107.524C133.252 103.838 131.285 100.441 130.444 96.6493C128.864 89.5328 131.786 83.7708 137.393 80.3951C143.085 76.9684 149.201 77.2614 155.195 80.0596C155.964 80.4206 156.834 81.2655 157.471 79.877C158.062 78.582 156.99 78.5454 156.051 78.2524C152.988 77.297 150.083 75.5476 147.042 76.2185L147.377 76.0189ZM83.746 184.761C86.3243 186.039 88.6987 186.948 91.1453 187.767C96.6077 189.589 102.168 190.532 107.928 190.222C108.658 190.184 109.384 190.256 109.138 189.092C108.259 184.952 104.793 182.608 100.673 183.564C96.3911 184.557 92.0543 184.698 87.6963 184.715C86.49 184.719 85.3049 183.768 83.746 184.761ZM152.026 184.863C151.771 184.213 151.363 184.256 151.053 184.307C145.553 185.19 140.133 184.664 134.717 183.517C131.179 182.766 127.972 185.033 127.025 188.498C126.638 189.912 126.944 190.285 128.312 190.239C131.056 190.15 133.791 190.302 136.535 189.831C141.951 188.905 147.018 187.02 152.026 184.863ZM123.278 58.5953C121.728 59.1091 120.229 58.8544 118.823 59.4573C118.249 59.7036 117.854 59.9923 117.816 60.6505C117.782 61.2492 118.181 61.4912 118.614 61.7715C120.037 62.6971 121.592 62.9264 123.261 62.8627C124.349 62.8203 125.309 62.7566 125.283 61.3723C125.27 60.7142 125.67 60.7609 126.073 60.6717C127.169 60.4339 128.261 60.1749 129.357 59.9286C130.057 59.7715 131.149 60.107 131.175 58.9902C131.196 58.124 130.278 57.7589 129.552 57.5253C125.721 56.2897 121.821 56.3024 117.892 56.9691C117.353 57.0625 116.975 57.4234 117.047 58.0009C117.111 58.5274 117.591 58.5868 118.024 58.5911C119.774 58.5996 121.524 58.5911 123.278 58.5911V58.5953ZM63.3704 84.051C63.4511 88.1486 65.3327 91.0359 67.6307 93.7322C68.3952 94.6324 69.3042 95.1122 70.3661 94.2885C71.4705 93.4308 71.0118 92.5518 70.3831 91.5412C68.6034 88.6921 66.9978 85.7537 67.2442 82.1997C67.3164 81.1806 67.1804 79.9365 66.1823 79.669C65.0949 79.3803 64.6616 80.5564 64.2156 81.4566C63.7441 82.4078 63.1962 83.3037 63.3746 84.051H63.3704ZM127.241 140.601C127.777 139.586 130.729 139.306 128.15 137.799C126.069 136.584 123.567 136.601 121.155 136.78C120.462 136.831 120.139 137.327 120.093 137.896C120.033 138.627 120.619 138.822 121.227 138.835C122.199 138.86 123.172 138.843 124.387 138.843C123.622 139.79 122.824 139.603 122.199 139.875C121.426 140.215 120.441 140.55 120.479 141.51C120.526 142.648 121.724 142.512 122.454 142.601C123.843 142.775 125.27 142.631 126.668 142.763C127.415 142.83 128.257 143.412 128.673 142.393C129.161 141.208 127.87 141.174 127.246 140.601H127.241ZM95.754 69.0961C95.0191 69.6056 94.4712 69.8901 94.0464 70.302C93.422 70.9134 93.4178 71.7754 94.2716 71.9792C95.4991 72.2722 96.5653 73.1257 97.8778 73.0238C98.5361 72.9728 99.3389 73.3634 99.8062 72.5906C100.375 71.6522 99.0883 71.3975 98.9864 70.578C99.3644 70.5398 99.7212 70.5525 100.044 70.4591C100.826 70.234 101.887 70.1916 101.883 69.0918C101.883 68.1449 100.906 68.1534 100.239 67.7925C98.8759 67.0579 97.3808 67.0707 95.9621 66.7904C94.8195 66.5654 92.8868 66.128 92.6532 67.559C92.3941 69.147 94.4372 68.5313 95.7497 69.0918L95.754 69.0961Z" fill="#FC8E6A"/>
<path d="M179.793 81.6264C179.351 80.1529 178.981 78.6541 178.459 77.2104C177.393 74.2593 175.341 72.2254 172.419 71.0917C171.374 70.6883 170.575 70.6034 170.35 72.1405C169.993 74.5693 169.118 76.9089 169.05 79.3929C167.912 81.6518 168.324 84.3397 167.084 86.5731C165.962 80.1105 164.684 73.6818 162.896 67.3593C162.598 66.3148 162.254 65.8264 161.09 65.7967C152.213 65.5547 144.283 62.3403 136.798 57.8479C126.944 51.9245 118.598 44.2263 111.096 35.5896C109.775 34.0695 108.62 33.5132 106.598 34.1587C103.714 35.0801 100.779 35.8783 97.8523 36.6766C89.7947 38.8761 84.8929 44.3876 81.6308 51.6655C78.717 58.1749 77.4172 65.0919 76.5677 72.132C76.0877 76.1064 76.2406 80.0978 75.7182 84.1571C73.6666 80.0128 71.5385 75.9026 69.6059 71.7074C68.939 70.2552 68.0768 69.9112 66.6411 70.1151C60.0446 71.0577 56.7144 74.7434 55.6865 81.3843C54.803 87.0827 55.5464 92.229 59.246 96.7299C61.8625 99.9103 65.1757 102.152 69.1641 103.32C70.1326 103.604 70.8589 103.94 71.2285 105.116C74.4949 115.502 80.6921 124.067 88.5289 131.379C91.4045 134.062 92.2328 136.453 91.4215 140.27C89.7097 148.333 88.5246 156.511 87.1994 164.656C86.9403 166.252 86.3371 167.016 84.6296 167.36C75.2849 169.246 66.0209 171.483 56.8844 174.205C56.2685 174.388 55.6823 174.621 55.0282 174.468C55.0154 174.116 54.9899 173.764 54.9899 173.407C54.9899 137.395 54.8922 101.388 55.0409 65.3763C55.1174 47.1052 62.1938 31.7723 75.5695 19.3226C79.6854 15.4926 84.4725 12.6646 89.2382 9.77725C95.2826 7.19559 101.429 4.97486 107.979 3.97277C112.757 3.23818 117.574 3.44623 122.369 3.14051C129.153 2.7074 135.826 1.45904 142.554 0.639529C146.908 0.10876 151.262 -0.281886 155.658 0.261622C163.185 1.19153 168.337 5.31879 171.794 11.8833C174.054 16.1719 175.218 20.8215 176.509 25.4413C176.773 27.0379 177.057 28.6302 177.295 30.231C179.848 47.2793 179.852 64.4507 179.797 81.6221L179.793 81.6264Z" fill="#783C29"/>
<path d="M89.2297 9.78154C84.4681 12.6689 79.6768 15.4969 75.5609 19.3269C62.181 31.7766 55.1045 47.1095 55.0323 65.3806C54.8837 101.388 54.9814 137.4 54.9814 173.411C54.9814 173.764 55.0068 174.116 55.0196 174.473C51.7362 176.15 48.0535 176.766 44.7277 178.324C40.8411 180.146 36.755 181.517 33.221 184.103C30.6469 185.988 28.5146 188.162 26.9515 190.927C26.5777 191.585 26.153 192.217 25.7537 192.859C24.2331 189.733 21.7185 187.3 19.8581 184.396C16.1796 178.647 12.6329 172.851 9.96966 166.545C7.07705 159.696 4.55824 152.711 3.05035 145.429C1.71236 138.962 0.616482 132.449 0.53153 125.791C0.416845 116.959 0.531518 108.144 2.324 99.473C3.66624 92.9594 5.39077 86.535 7.72694 80.2719C10.5941 72.5821 14.3532 65.3509 18.7579 58.4807C22.3216 52.9224 26.3569 47.7039 31.008 42.9355C35.1961 38.6384 39.4734 34.4517 44.1797 30.7533C49.039 26.9317 54.2126 23.5603 59.7132 20.6644C62.9498 18.9617 66.2162 17.3524 69.5378 15.8281C74.3631 13.6201 79.422 12.1042 84.5021 10.6477C86.044 10.2061 87.5391 9.4461 89.2254 9.78154H89.2297Z" fill="#FDF3E9"/>
<path d="M179.793 81.6264C179.848 64.4507 179.843 47.2793 177.291 30.2352C177.053 28.6344 176.768 27.0421 176.505 25.4456C177.911 25.5984 178.943 26.5071 180.022 27.2629C188.046 32.8933 195.224 39.4961 201.578 46.9226C206.187 52.311 210.176 58.1919 213.693 64.3828C216.16 68.7223 218.599 73.1171 220.34 77.7497C222.481 83.448 224.46 89.2567 225.705 95.265C227.119 102.097 227.905 108.972 228.325 115.948C229.031 127.608 227.557 138.992 224.685 150.189C222.702 157.93 219.779 165.365 216.003 172.503C213.676 176.902 211.148 181.165 208.51 185.343C207.155 187.491 205.55 189.585 203.885 191.568C203.66 191.835 203.395 191.877 203 192C202.5 192 201.816 190.663 201.434 190.026C198.716 185.542 194.447 183.092 189.953 180.897C188 180 187.5 180 185.777 179.19C183.798 178.345 181.814 177.5 179.831 176.655C179.839 149.59 179.852 122.53 179.852 95.4646C179.852 93.3458 179.805 91.2269 179.78 89.1081C179.78 86.6114 179.788 84.1189 179.793 81.6221V81.6264Z" fill="#FDF3E9"/>
<path d="M179.78 89.1123C179.805 91.2311 179.852 93.35 179.852 95.4688C179.852 122.534 179.839 149.594 179.831 176.659C173.769 175.076 167.793 173.178 161.676 171.772C153.5 169.895 145.285 168.231 137.002 166.923C135.507 166.685 135.172 166.116 135.18 164.757C135.21 159.815 135.15 154.868 135.121 149.926C135.108 148.775 135.099 147.624 135.087 146.474C137.414 145.021 139.776 143.629 142.061 142.113C155.518 133.162 163.359 120.576 166.128 104.751C166.268 103.948 166.315 103.243 167.22 102.917C173.825 100.522 177.949 95.8594 179.784 89.1208L179.78 89.1123Z" fill="#783C29"/>
<path d="M135.087 146.469C135.099 147.62 135.112 148.771 135.121 149.921C131.689 151.828 128.55 154.214 124.965 155.904C120.785 157.87 117.047 157.565 113.326 154.796C108.233 151.008 103.489 146.881 99.4409 141.977C98.6126 140.975 97.7546 139.998 96.8966 138.843C108.505 147.098 120.564 153.187 135.082 146.469H135.087Z" fill="#F37556"/>
<path d="M147.192 75.618C148.953 75.5813 153.139 76.6965 156.201 77.6519C157.136 77.9449 158.058 78.5776 157.467 79.8727C156.834 81.2612 155.964 80.4162 155.19 80.0553C149.197 77.257 143.081 76.964 137.389 80.3907C131.782 83.7664 128.86 89.5284 130.44 96.645C131.281 100.437 133.247 103.838 134.433 107.519C135.422 110.589 133.307 113.532 130.07 113.294C129.544 113.256 129.284 113.014 129.276 112.526C129.263 111.846 129.123 111.218 130.015 110.772C132.589 109.494 132.513 109.456 131.463 106.747C130.172 103.413 128.601 100.127 127.819 96.6704C126.855 92.4073 127.462 88.1399 129.862 84.3056C133.298 78.8196 139.608 75.614 147.188 75.6138L147.192 75.618Z" fill="#F37556"/>
<path d="M83.7461 184.761C85.305 183.767 86.4858 184.719 87.6964 184.714C92.0586 184.697 96.3912 184.557 100.673 183.564C104.793 182.608 108.259 184.952 109.138 189.092C109.385 190.256 108.658 190.183 107.928 190.222C102.168 190.527 96.6078 189.589 91.1454 187.767C88.703 186.952 86.3244 186.039 83.7461 184.761Z" fill="#F37556"/>
<path d="M152.026 184.863C147.018 187.02 141.951 188.905 136.535 189.831C133.791 190.298 131.056 190.145 128.312 190.239C126.944 190.285 126.638 189.912 127.025 188.498C127.972 185.033 131.179 182.77 134.717 183.517C140.129 184.664 145.548 185.19 151.053 184.307C151.368 184.256 151.771 184.218 152.026 184.863Z" fill="#F37556"/>
<path d="M123.278 58.5952C121.528 58.5952 119.778 58.5995 118.024 58.5952C117.591 58.5952 117.111 58.5358 117.047 58.005C116.975 57.4276 117.353 57.0666 117.892 56.9732C121.817 56.3066 125.721 56.2938 129.552 57.5295C130.278 57.763 131.196 58.1239 131.175 58.9944C131.149 60.1069 130.053 59.7714 129.357 59.9328C128.261 60.1833 127.169 60.4423 126.073 60.6759C125.67 60.765 125.271 60.7183 125.283 61.3765C125.309 62.7607 124.353 62.8287 123.261 62.8669C121.592 62.9306 120.037 62.7013 118.615 61.7756C118.181 61.4954 117.782 61.2533 117.816 60.6546C117.854 59.9922 118.249 59.7035 118.823 59.4615C120.233 58.8628 121.728 59.1133 123.278 58.5995V58.5952Z" fill="#FDB39B"/>
<path d="M152.432 105.678C150.682 105.678 148.932 105.682 147.178 105.678C146.745 105.678 146.265 105.619 146.201 105.088C146.129 104.511 146.507 104.15 147.046 104.056C150.971 103.39 154.875 103.377 158.706 104.612C159.432 104.846 160.35 105.207 160.329 106.077C160.303 107.19 159.207 106.854 158.511 107.016C157.415 107.266 156.323 107.525 155.227 107.759C154.824 107.848 154.424 107.801 154.437 108.459C154.463 109.844 153.507 109.912 152.415 109.95C150.746 110.014 149.191 109.784 147.768 108.859C147.335 108.578 146.936 108.336 146.97 107.738C147.008 107.075 147.403 106.786 147.977 106.544C149.387 105.946 150.882 106.196 152.432 105.682V105.678Z" fill="#FDB39B"/>
<path d="M63.3703 84.0511C63.1877 83.3037 63.7399 82.4078 64.2114 81.4567C64.6531 80.5565 65.0906 79.3803 66.178 79.669C67.1804 79.9323 67.3121 81.1807 67.2399 82.1997C66.9935 85.7495 68.5991 88.6921 70.3789 91.5413C71.0117 92.5518 71.4662 93.4308 70.3619 94.2885C69.3042 95.1123 68.3952 94.6325 67.6264 93.7323C65.3285 91.036 63.4468 88.1528 63.3661 84.0511H63.3703Z" fill="#F37556"/>
<path d="M167.079 86.5731C168.32 84.3396 167.912 81.656 169.046 79.3928C171.714 80.8408 172.822 85.2822 171.132 88.4923C170.159 90.3309 169.309 92.3223 167.211 93.834C166.684 91.3203 168.167 88.8617 167.079 86.5731Z" fill="#F37556"/>
<path d="M127.241 140.601C127.866 141.174 129.157 141.208 128.669 142.393C128.252 143.408 127.411 142.83 126.664 142.762C125.266 142.635 123.839 142.775 122.45 142.601C121.719 142.512 120.522 142.643 120.475 141.51C120.437 140.55 121.422 140.215 122.195 139.875C122.82 139.599 123.618 139.79 124.383 138.843C123.172 138.843 122.195 138.86 121.222 138.835C120.619 138.818 120.029 138.622 120.088 137.896C120.135 137.327 120.458 136.831 121.15 136.78C123.563 136.601 126.06 136.584 128.146 137.799C130.724 139.306 127.772 139.586 127.237 140.601H127.241Z" fill="#FDB39B"/>
<path d="M97.7059 104.119C98.3303 104.692 99.6216 104.726 99.1331 105.911C98.7168 106.926 97.8758 106.348 97.1283 106.28C95.7308 106.153 94.3036 106.293 92.9146 106.119C92.184 106.03 90.9862 106.162 90.9395 105.028C90.9013 104.068 91.8867 103.733 92.6598 103.393C93.2842 103.117 94.0827 103.308 94.8473 102.361C93.6367 102.361 92.6598 102.378 91.6871 102.353C91.0839 102.336 90.4935 102.14 90.553 101.414C90.5997 100.845 90.9225 100.349 91.6149 100.298C94.0275 100.119 96.5251 100.102 98.6107 101.317C101.189 102.824 98.2369 103.104 97.7017 104.119H97.7059Z" fill="#FDB39B"/>
<path d="M95.7539 69.0959C94.4414 68.5354 92.3984 69.1511 92.6575 67.5631C92.8911 66.1364 94.8195 66.5737 95.9663 66.7945C97.3893 67.0705 98.8802 67.062 100.244 67.7966C100.911 68.1533 101.883 68.1448 101.887 69.0959C101.887 70.1957 100.834 70.2382 100.048 70.4632C99.7254 70.5566 99.3686 70.5439 98.9906 70.5821C99.0883 71.4058 100.375 71.6564 99.8104 72.5948C99.3431 73.3676 98.5404 72.9769 97.882 73.0279C96.5652 73.1255 95.4991 72.2721 94.2758 71.9833C93.422 71.7795 93.4263 70.9218 94.0506 70.3061C94.4712 69.8942 95.0234 69.6097 95.7582 69.1002L95.7539 69.0959Z" fill="#FDB39B"/>
<path d="M127.265 110.035C124.321 109.941 123.115 108.96 122.86 106.731C122.796 106.162 122.788 105.61 123.344 105.542C125.145 105.313 127.01 104.948 128.645 106.141C129.155 106.515 129.788 107.202 129.121 107.691C128.233 108.345 129.197 110.561 127.265 110.035Z" fill="#FDB39B"/>
</svg>
