<svg width="229" height="240" viewBox="0 0 229 240" fill="none" xmlns="http://www.w3.org/2000/svg">
<path d="M203.974 194.686C206.162 201.296 207.304 208.12 208.086 215.027C209.415 226.833 200.708 238.342 189.185 239.673C187.065 239.918 184.963 239.996 182.847 239.996C137.132 239.996 91.4116 239.996 45.6959 240C41.5716 240 37.4855 239.811 33.6925 237.916C26.2254 234.192 21.6763 228.245 20.9118 219.763C20.3341 213.348 21.7315 207.083 23.1247 200.865C23.5749 198.854 24.2206 196.887 24.777 194.897C26.7691 189.795 29.4959 185.278 34.3806 182.48C37.8932 180.469 41.5291 178.781 45.3009 177.27C50.9458 175.005 56.7479 173.326 62.5457 171.599C65.3023 170.777 68.1864 170.398 70.926 169.532C75.4878 168.094 80.1685 167.224 84.845 166.372C86.2892 166.109 86.8328 165.364 87.0495 164.232C87.6993 160.813 88.226 157.364 88.8292 153.933C89.118 152.301 88.6678 151.685 86.8668 151.702C76.8215 151.801 66.7719 151.771 56.7224 151.754C56.1532 151.754 55.4311 152.107 55.0234 151.332C59.9462 151.285 64.8691 151.237 69.7919 151.194C75.8743 151.241 81.9567 151.285 88.0434 151.349C88.9481 151.358 89.2199 150.936 89.3601 150.079C90.1926 144.86 91.0633 139.642 91.985 134.44C92.1167 133.691 91.9808 133.295 91.4286 132.8C82.7255 124.989 75.8913 115.801 71.4527 104.86C71.5121 102.935 70.6711 101.923 68.7852 101.265C62.1252 98.9482 57.4784 94.5391 55.703 87.4217C55.601 87.0084 55.3462 86.8404 54.9851 86.7543C54.9851 84.313 54.9809 81.8673 54.9766 79.4259C56.2254 79.0944 55.9026 77.863 56.0428 77.1095C57.1768 71.0297 62.0615 68.1019 67.167 67.7186C68.4539 67.6196 68.8872 68.0846 69.3629 69.0792C71.0534 72.6229 72.8034 76.1407 74.5406 79.6628C74.9017 80.3991 75.1862 81.2085 76.057 81.6477C76.2948 78.3366 75.9848 75.1202 76.3416 71.9038C76.5412 70.1299 77.3057 69.9189 78.7839 69.9103C88.0391 69.8457 97.2944 70.0437 106.558 69.6519C118.608 69.1395 130.625 68.3947 142.619 67.0728C144.807 66.8317 145.325 65.9145 145.155 64.2224C144.811 60.8553 145.032 57.4925 144.964 54.1297C144.896 50.6894 144.947 47.2491 144.947 43.8088C145.329 44.7905 145.44 45.7722 145.571 46.754C146.349 52.5495 147.249 58.3321 147.844 64.1449C148.035 66.0006 148.736 66.3107 150.222 66.0609C153.761 65.4581 157.32 64.9586 160.824 64.1879C162.239 63.8779 162.629 64.2051 162.995 65.527C164.719 71.7962 166.027 78.1472 167.043 84.5627C167.913 86.4486 166.949 88.3302 167.03 90.2119C167.047 90.6252 166.949 91.1074 167.42 91.3356C167.93 91.5768 168.164 91.1763 168.419 90.8275C170.606 87.8523 172.156 84.6359 171.655 80.8124C171.439 79.1418 171.12 77.3119 168.809 77.2516C169.226 75.0083 169.642 72.765 170.062 70.5217C170.517 68.0933 170.857 67.9167 173.07 68.9759C173.388 69.1266 173.686 69.329 173.991 69.5055C176.655 71.0685 178.141 73.5659 179.343 76.3388V57.1911C179.454 57.4365 179.662 57.682 179.666 57.9274C179.683 68.8295 179.683 79.7317 179.683 90.6381C179.505 90.1903 179.326 89.7425 179.118 89.2129C178.027 91.749 176.672 93.8588 174.968 95.8223C172.853 98.2636 169.982 99.4821 167.442 101.243C165.777 101.377 166.006 102.845 165.845 103.835C163.899 115.555 158.637 125.515 150.426 133.911C145.975 138.462 140.704 141.876 135.157 144.882C133.831 145.157 132.668 145.864 131.419 146.324C128.046 147.573 124.563 148.792 120.949 148.236C112.989 147.013 105.781 143.818 99.329 138.918C98.7938 138.514 98.2926 138.031 97.4473 138.285C97.5748 138.596 97.6087 138.832 97.7404 138.966C102.6 143.827 107.081 149.119 112.662 153.166C115.665 155.341 118.982 157.041 122.894 155.638C126.097 154.492 128.934 152.637 131.729 150.725C132.786 150.001 133.776 149.201 135.135 149.201C134.897 151 135.683 151.521 137.412 151.401C139.731 151.241 142.067 151.366 144.395 151.353C151.943 151.31 159.49 151.263 167.038 151.216C168.661 151.25 170.292 151.379 171.91 151.297C174.505 151.168 177.13 151.78 179.691 150.953C179.407 152.477 178.213 151.732 177.483 151.732C164.112 151.784 150.741 151.762 137.369 151.78C136.397 151.78 135.114 151.349 135.182 153.179C135.314 156.753 135.072 160.327 135.288 163.909C135.382 165.489 136.074 165.791 137.217 165.984C140.959 166.617 144.705 167.173 148.413 168.038C153.132 169.14 157.957 169.769 162.651 170.953C168.419 172.413 174.119 174.148 179.802 175.935C185.613 177.761 191.139 180.314 196.24 183.677C200.194 186.282 202.093 190.523 203.987 194.695L203.974 194.686ZM146.693 73.8436C141.209 73.4992 136.592 75.2042 132.765 78.9416C128.076 83.5229 126.398 88.7565 127.902 95.1032C128.713 98.5219 130.051 101.855 131.61 105.054C132.655 107.202 132.374 107.865 130.128 108.757C129.397 109.045 129.21 109.562 129.227 110.264C129.24 110.841 129.461 111.159 130.072 111.276C132.812 111.792 135.271 109.136 134.464 106.44C134.018 104.946 133.534 103.461 132.986 101.992C131.61 98.3023 129.975 94.7587 129.962 90.5649C129.945 84.4249 135.484 77.9491 140.903 76.3689C145.979 74.8877 150.796 75.7101 155.426 77.9577C156.424 78.4443 156.997 78.483 157.477 77.5486C158.012 76.5023 157.254 76.4782 156.404 76.0304C153.278 74.377 149.991 73.5374 146.614 73.8388L146.693 73.8436ZM83.8851 183.995C89.7636 187.207 95.9947 188.719 102.387 189.571C104.239 189.817 106.189 189.916 108.058 189.382C108.639 189.214 109.319 189.158 109.136 188.163C108.61 185.304 105.628 182.553 102.735 182.798C97.133 183.272 91.5433 183.87 85.9111 183.634C85.308 183.608 84.6496 183.436 83.8893 183.995H83.8851ZM151.645 184.137C151.114 183.496 150.66 183.621 150.261 183.629C145.151 183.746 140.067 183.741 134.987 182.811C129.775 181.86 127.923 184.77 126.899 188.224C126.56 189.369 126.976 189.662 127.974 189.636C130.293 189.576 132.591 189.588 134.919 189.283C140.759 188.512 146.277 186.828 151.641 184.137H151.645ZM63.3145 82.3711C63.8879 86.1645 64.9455 89.6865 68.2883 92.0805C69.1378 92.6876 69.8047 92.7479 70.531 92.0892C71.2403 91.4433 71.1044 90.7328 70.6159 89.9836C68.4072 86.5864 66.7677 83.004 67.1882 78.7715C67.2561 78.0739 66.9928 77.4841 66.224 77.329C65.5104 77.187 65.056 77.5228 64.6482 78.1213C63.7775 79.4001 63.2635 80.7608 63.3187 82.3711H63.3145Z" fill="#FC8E6A"/>
<path d="M54.9681 79.4173C54.9681 81.8586 54.9724 84.3043 54.9766 86.7457C54.9469 107.921 54.9172 129.097 54.8959 150.268C54.8959 150.621 54.9766 150.974 55.0191 151.328C57 151 56.4308 151 57 151C67.0496 151.017 76.9504 151.099 87 151C88.8009 150.983 89.1095 152.296 88.8249 153.928C88.2217 157.36 87.6993 160.805 87.0452 164.228C86.8285 165.364 86.2891 166.105 84.8407 166.368C80.1643 167.22 75.4835 168.085 70.9217 169.528C68.1821 170.393 65.298 170.772 62.5414 171.595C56.7436 173.321 50.9457 175.005 45.2966 177.265C41.5248 178.777 37.8889 180.465 34.3763 182.475C29.4874 185.274 26.7605 189.791 24.7727 194.893C23.6259 192.176 21.5106 190.127 19.9433 187.69C15.9039 181.412 12.3275 174.923 9.43075 168.021C7.92289 164.421 6.60193 160.77 5.42962 157.05C3.74337 151.689 2.656 146.208 1.73005 140.662C0.485532 133.209 0.447319 125.73 0.523774 118.225C0.578991 112.791 1.22461 107.418 2.22702 102.087C3.95575 92.8814 6.49574 83.9297 10.361 75.3957C14.3706 66.5517 19.2637 58.2201 25.2654 50.642C29.0839 45.8282 33.2974 41.3287 37.8762 37.1866C42.0218 33.432 46.3245 29.897 50.967 26.827C55.4269 23.8775 59.9037 20.9496 64.8478 18.7924C68.233 17.3156 71.5461 15.6622 74.995 14.3231C75.87 13.9829 76.6133 13.9183 77.4076 14.3834C77.14 14.7063 76.9149 15.0852 76.5963 15.3435C72.1874 18.9259 68.5516 23.2316 65.4552 27.9809C60.1925 36.0585 56.871 44.8766 55.584 54.5258C54.4754 62.8187 55.138 71.1201 54.9766 79.4173H54.9681Z" fill="#EFE8FA"/>
<path d="M54.9681 79.4172C55.1295 71.1201 54.4712 62.8186 55.5755 54.5257C56.8625 44.8809 60.184 36.0584 65.4467 27.9808C68.5431 23.2316 72.179 18.9259 76.5879 15.3435C76.9064 15.0851 77.1315 14.7062 77.3991 14.3833C84.0295 9.17766 91.2332 5.11301 99.3035 2.62429C109.332 -0.467236 119.509 -0.493085 129.754 0.833084C138.087 1.91383 146.022 4.32509 153.34 8.63514C158.216 11.5071 162.468 15.1239 166.167 19.4253C166.626 19.9592 166.966 20.6137 167.646 20.9194C167.815 22.2972 168.962 23.0723 169.638 24.1358C176.034 34.207 178.744 45.3674 179.326 57.1781V76.3257C178.124 73.5528 176.638 71.0555 173.974 69.4925C173.669 69.3117 173.371 69.1136 173.053 68.9629C170.84 67.9037 170.5 68.0802 170.045 70.5087C169.625 72.752 169.209 74.9953 168.792 77.2385C168.138 79.6584 168.168 82.2461 167.025 84.5454C166.01 78.1255 164.698 71.7746 162.978 65.5097C162.617 64.1878 162.222 63.8563 160.807 64.1706C157.303 64.9414 153.744 65.4408 150.205 66.0436C148.719 66.2977 148.014 65.9833 147.827 64.1275C147.232 58.3148 146.332 52.5322 145.554 46.7367C145.423 45.755 145.312 44.7732 144.93 43.7915C144.93 47.2318 144.875 50.6721 144.947 54.1124C145.015 57.4752 144.794 60.8423 145.138 64.2051C145.312 65.8972 144.79 66.8143 142.602 67.0555C130.607 68.3816 118.596 69.1265 106.541 69.6346C97.2774 70.0264 88.0263 69.8283 78.7668 69.8929C77.2887 69.9015 76.5241 70.1168 76.3245 71.8865C75.9635 75.1029 76.2735 78.3193 76.0399 81.6304C75.1692 81.1912 74.8846 80.3817 74.5236 79.6454C72.7864 76.1233 71.0364 72.6099 69.3459 69.0619C68.8744 68.0673 68.4369 67.6023 67.1499 67.7013C62.0487 68.0888 57.1598 71.0125 56.0258 77.0922C55.8856 77.8457 56.2084 79.0771 54.9596 79.4087L54.9681 79.4172Z" fill="#A75A3B"/>
<path d="M179.33 57.1781C178.748 45.3675 176.039 34.207 169.642 24.1359C168.966 23.0767 167.82 22.3016 167.65 20.9194C172.632 22.8398 176.922 25.9916 181.174 29.1047C185.617 32.3555 189.915 35.8474 193.802 39.8044C199.362 45.4622 204.459 51.4816 208.876 58.1297C210.961 61.2686 212.992 64.4591 214.767 67.7401C216.938 71.753 218.887 75.9296 220.535 80.2311C221.984 84.0201 223.279 87.8651 224.256 91.792C225.505 96.8211 226.796 101.837 227.399 107.034C227.977 112.003 228.406 116.994 228.487 121.958C228.631 130.526 227.595 139.022 225.883 147.444C224.57 153.898 222.723 160.184 220.268 166.234C217.337 173.455 213.871 180.456 209.369 186.859C207.546 189.451 205.767 192.073 203.97 194.682C202.076 190.51 200.177 186.269 196.223 183.664C191.121 180.301 185.595 177.748 179.785 175.922C174.106 174.139 168.402 172.4 162.633 170.94C157.94 169.752 153.111 169.127 148.396 168.025C144.688 167.16 140.942 166.6 137.199 165.971C136.053 165.778 135.365 165.476 135.271 163.896C135.054 160.309 135.297 156.74 135.165 153.166C135.097 151.336 136.527 151 137.5 151C150.871 150.987 163.034 151.281 177.5 151C178.226 151 179.653 151.053 179.674 150.936C179.713 150.725 179.781 150.514 179.781 150.303C179.747 130.41 179.704 110.518 179.666 90.6208C179.666 79.7187 179.343 72.4064 179.326 61.5C179.326 61.2546 179.326 57.5 179.326 57.1738L179.33 57.1781Z" fill="#EFE8FA"/>
<path d="M55.0148 151.332C54.9723 150.979 54.8916 150.626 54.8916 150.273C54.9128 129.097 54.9426 107.921 54.9723 86.75C55.3333 86.8361 55.5839 87.0041 55.6901 87.4174C57.4656 94.5391 62.1123 98.9482 68.7724 101.26C70.6625 101.915 71.4993 102.931 71.4398 104.856C70.0679 105.243 70.1741 106.341 70.1741 107.439C70.1868 121.123 70.1868 134.802 70.1783 148.486C70.1783 149.403 70.3652 150.363 69.7791 151.194C64.8562 151.241 59.9334 151.289 55.0105 151.332H55.0148Z" fill="#A75A3B"/>
<path d="M179.67 90.6251C179.708 110.518 179.751 130.41 179.785 150.307C179.785 150.518 179.717 150.729 179.679 150.94C177.117 151.767 174.488 151.155 171.897 151.284C170.279 151.366 168.648 151.237 167.025 151.207C167.017 135.383 167.008 119.56 166.983 103.736C166.983 102.862 167.081 102.031 167.429 101.23C169.969 99.4734 172.84 98.2506 174.955 95.8093C176.659 93.8458 178.014 91.736 179.105 89.2C179.318 89.7296 179.496 90.1773 179.67 90.6251Z" fill="#A75A3B"/>
<path d="M167.429 101.226C167.081 102.027 166.983 102.858 166.983 103.732C167.008 119.555 167.013 135.379 167.025 151.203C159.478 151.25 151.93 151.297 144.382 151.34C142.054 151.353 139.718 151.228 137.399 151.388C135.67 151.508 134.885 150.983 135.123 149.188C135.131 147.749 135.139 146.307 135.144 144.869C140.691 141.868 145.962 138.453 150.413 133.898C158.62 125.502 163.886 115.542 165.832 103.822C165.997 102.832 165.764 101.364 167.429 101.23V101.226Z" fill="#A75A3B"/>
<path d="M167.429 101.226C167.081 102.027 166.983 102.858 166.983 103.732C167.008 119.555 167.013 135.379 167.025 151.203C159.478 151.25 151.93 151.297 144.382 151.34C142.054 151.353 139.718 151.228 137.399 151.388C135.67 151.508 134.885 150.983 135.123 149.188C135.131 147.749 135.139 146.307 135.144 144.869C140.691 141.868 145.962 138.453 150.413 133.898C158.62 125.502 163.886 115.542 165.832 103.822C165.997 102.832 165.764 101.364 167.429 101.23V101.226Z" fill="black" fill-opacity="0.2"/>
<path d="M69.7833 151.194C70.3737 150.363 70.1826 149.403 70.1826 148.486C70.1911 134.802 70.1911 121.123 70.1783 107.439C70.1783 106.341 70.0721 105.239 71.4441 104.856C75.8827 115.801 82.7169 124.989 91.42 132.796C91.9722 133.291 92.1124 133.691 91.9765 134.436C91.0548 139.642 90.184 144.856 89.3515 150.075C89.2156 150.931 88.9395 151.358 88.0348 151.345C81.9524 151.28 75.87 151.237 69.7833 151.19V151.194Z" fill="#A75A3B"/>
<path d="M69.7833 151.194C70.3737 150.363 70.1826 149.403 70.1826 148.486C70.1911 134.802 70.1911 121.123 70.1783 107.439C70.1783 106.341 70.0721 105.239 71.4441 104.856C75.8827 115.801 82.7169 124.989 91.42 132.796C91.9722 133.291 92.1124 133.691 91.9765 134.436C91.0548 139.642 90.184 144.856 89.3515 150.075C89.2156 150.931 88.9395 151.358 88.0348 151.345C81.9524 151.28 75.87 151.237 69.7833 151.19V151.194Z" fill="black" fill-opacity="0.2"/>
<path d="M135.139 144.86C135.131 146.299 135.122 147.741 135.118 149.179C133.759 149.179 132.769 149.98 131.712 150.703C128.921 152.615 126.079 154.471 122.877 155.616C118.965 157.016 115.648 155.319 112.645 153.145C107.063 149.097 102.578 143.805 97.7233 138.944C97.5916 138.811 97.5618 138.574 97.4302 138.264C98.2754 138.01 98.7766 138.492 99.3118 138.897C105.764 143.797 112.972 146.992 120.932 148.215C124.542 148.77 128.029 147.552 131.402 146.303C132.65 145.842 133.814 145.136 135.139 144.86Z" fill="#F37556"/>
<path d="M146.688 73.415C150.012 73.413 153.353 73.9532 156.479 75.6067C157.328 76.0545 158.008 76.4979 157.473 77.5485C156.993 78.4829 156.424 78.4442 155.421 77.9576C150.796 75.71 145.975 74.8876 140.899 76.3688C135.479 77.949 129.941 84.4248 129.958 90.5648C129.97 94.7586 131.606 98.3022 132.982 101.992C133.53 103.465 134.014 104.946 134.46 106.44C135.267 109.135 132.808 111.792 130.068 111.275C129.456 111.159 129.236 110.841 129.223 110.264C129.206 109.562 129.393 109.045 130.123 108.757C132.366 107.865 132.65 107.202 131.606 105.054C130.047 101.854 128.709 98.5218 127.898 95.1031C126.394 88.7564 128.067 83.09 132.757 78.513C136.584 74.7756 141.304 73.415 146.684 73.415H146.688Z" fill="#F37556"/>
<path d="M83.885 183.995C84.6495 183.435 85.3036 183.608 85.9068 183.634C91.5432 183.866 97.1287 183.272 102.731 182.798C105.624 182.553 108.605 185.304 109.132 188.163C109.315 189.154 108.635 189.214 108.053 189.382C106.184 189.916 104.235 189.817 102.383 189.571C95.9903 188.719 89.7593 187.207 83.8807 183.995H83.885Z" fill="#F37556"/>
<path d="M151.645 184.137C146.277 186.828 140.763 188.512 134.923 189.283C132.595 189.588 130.293 189.575 127.978 189.636C126.98 189.661 126.564 189.369 126.904 188.223C127.932 184.77 129.779 181.859 134.991 182.811C140.071 183.741 145.151 183.741 150.265 183.629C150.664 183.62 151.114 183.496 151.65 184.137H151.645Z" fill="#F37556"/>
<path d="M63.3144 82.3711C63.2592 80.7607 63.7731 79.4001 64.6439 78.1213C65.0516 77.5228 65.5061 77.1826 66.2197 77.329C66.9927 77.484 67.2561 78.0739 67.1839 78.7714C66.7634 83.004 68.4029 86.5864 70.6116 89.9836C71.1001 90.7328 71.236 91.4476 70.5267 92.0891C69.8003 92.7479 69.1335 92.6876 68.284 92.0805C64.937 89.6865 63.8836 86.1644 63.3102 82.3711H63.3144Z" fill="#F37556"/>
<path d="M167.034 84.5454C168.172 82.2461 168.147 79.6584 168.801 77.2385C171.116 77.2988 171.43 79.1288 171.651 80.7994C172.152 84.6272 170.602 87.8436 168.414 90.8146C168.159 91.159 167.93 91.5637 167.416 91.3226C166.94 91.0987 167.042 90.6122 167.025 90.1988C166.94 88.3172 167.909 86.4356 167.038 84.5497L167.034 84.5454Z" fill="#F37556"/>
</svg>
