<svg width="229" height="240" viewBox="0 0 229 240" fill="none" xmlns="http://www.w3.org/2000/svg">
<path d="M202.846 192.211C205.907 199.73 207.253 207.627 208.233 215.634C209.664 227.301 199.895 239.193 188.144 239.821C186.242 239.923 184.327 239.906 182.421 239.906C136.324 239.906 90.2277 239.783 44.1352 240C32.7788 240.051 22.386 232.341 20.9468 220.075C20.3991 215.392 21.5199 210.798 22.2629 206.205C22.9931 201.666 24.3601 197.289 25.9691 192.992C27.8074 189.761 29.6117 186.552 32.8721 184.408C41.7875 178.553 51.8958 175.704 61.9532 172.775C69.4634 170.588 77.0881 168.822 84.7808 167.374C86.1478 167.115 86.9205 166.563 87.171 164.954C88.1007 158.968 89.2597 153.02 90.3168 147.055C90.8815 143.862 91.4249 140.665 91.9556 137.464C92.2188 135.889 92.066 134.687 90.6098 133.405C87.2984 130.501 84.3308 127.215 81.5416 123.772C78.2556 119.709 75.8442 115.094 73.0423 110.725C72.8342 108.59 71.6031 106.773 71.1785 104.701C71.0002 103.83 70.1766 103.622 69.4124 103.376C61.6518 100.884 54.5747 94.4391 55.5512 83.4218C56.2219 75.8349 59.2192 70.8081 67.4383 70.1246C68.5209 70.0354 68.9412 70.2817 69.2681 71.2794C70.1426 73.9584 71.1318 76.6034 72.0743 79.2611C73.2758 82.6576 74.4772 86.0541 75.8867 90.0407C76.0565 85.7781 75.9801 82.1863 76.3027 78.5861C77.0329 70.4175 78.1113 62.3339 81.0109 54.6069C83.2185 48.7182 85.9313 43.0122 91.4589 39.5817C96.6553 36.3635 102.722 35.2257 108.585 33.7058C109.438 33.485 109.672 34.0497 110.083 34.5294C118.082 43.7551 126.972 51.9491 137.505 58.2411C144.565 62.4613 152.066 65.3907 160.392 65.7346C161.508 65.7813 162.039 66.1889 162.302 67.2461C164.064 74.2895 165.601 81.3754 166.399 88.6014C166.531 89.4251 166.641 90.253 166.802 91.0724C166.998 92.0404 166.229 93.6155 167.324 93.8448C168.216 94.0273 169.069 92.6942 169.451 91.5479C169.596 91.1063 170.054 90.7794 170.309 90.3634C172.652 86.5466 172.432 82.9378 169.676 79.363C169.473 79.0955 169.4 78.7304 169.265 78.4077C169.494 77.0194 169.668 75.6184 169.965 74.2428C170.823 70.2689 171.752 69.9632 175.038 72.5148C175.319 72.7314 175.565 72.9861 175.828 73.2196C178.732 75.8222 179.369 79.3715 179.793 82.9633C180.379 87.9137 179.356 92.4267 176.269 96.5068C174.962 98.239 172.933 99.156 171.833 101.024C171.442 101.16 171.043 101.275 170.666 101.44C168.258 102.48 166.064 103.385 165.741 106.739C165.461 109.681 164.522 112.632 163.389 115.451C161.839 119.306 160.031 123.004 157.751 126.506C152.364 134.777 145.138 140.937 136.464 145.454C135.564 145.921 135.378 146.316 135.373 147.127C135.373 153.135 135.369 159.146 135.339 165.154C135.335 166.135 135.535 166.712 136.698 166.822C138.307 166.971 139.903 167.319 141.495 167.621C156.172 170.376 170.827 173.238 184.811 178.685C192.062 181.508 199.101 184.675 202.837 192.211H202.846ZM97.4789 139.311C97.1689 140.058 97.7336 140.304 98.0393 140.623C100.667 143.357 103.202 146.193 105.991 148.757C108.674 151.224 111.353 153.797 114.643 155.448C116.906 156.586 119.152 158.153 122.005 157.117C125.401 155.882 128.593 154.238 131.578 152.252C133.187 151.182 135.641 150.536 135.004 147.637C134.796 146.69 134.834 146.354 133.616 146.8C130.411 147.972 127.226 149.229 123.703 149.407C117.229 149.734 111.612 147.161 106.067 144.431C103.096 142.971 100.353 141.043 97.4789 139.315V139.311ZM146.437 75.4995C134.647 75.0664 124.794 85.6465 128.322 98.5064C129.099 101.334 130.517 103.983 131.57 106.743C132.168 108.314 132.707 109.94 130.275 110.568C129.409 110.793 129.413 111.57 129.46 112.305C129.494 112.891 129.74 113.188 130.36 113.239C133.051 113.464 134.945 111.294 134.635 108.539C134.405 106.518 133.471 104.777 132.779 102.939C131.514 99.5891 129.833 96.3412 129.905 92.6433C130.054 85.137 137.386 78.119 144.934 78.0044C148.679 77.945 152.232 78.5266 155.569 80.2503C156.422 80.6876 157.178 80.8023 157.67 79.7239C158.188 78.5903 157.428 78.1403 156.605 77.8303C153.242 76.5567 149.888 75.2278 146.437 75.4953V75.4995ZM83.7619 184.183C85.1077 186.136 87.1498 186.229 88.8225 186.955C95.0717 189.664 101.648 190.483 108.402 190.105C108.903 190.076 109.366 190.08 109.29 189.294C108.912 185.363 105.307 182.752 101.431 183.499C98.2006 184.119 94.9656 184.764 91.6287 184.612C89.0729 184.497 86.5087 184.722 83.7577 184.178L83.7619 184.183ZM151.85 185.091C150.547 184.404 149.693 184.586 148.899 184.599C144.246 184.688 139.61 184.578 135.038 183.55C131.345 182.722 128.513 184.382 127.252 187.953C126.717 189.464 126.836 190.076 128.674 190.156C133.803 190.377 138.808 189.761 143.677 188.233C146.305 187.409 148.831 186.263 151.846 185.091H151.85ZM63.5877 84.2497C63.558 88.7288 65.651 91.5012 68.0709 94.0825C68.7799 94.8382 69.7181 94.8297 70.5629 94.2184C71.3016 93.6834 71.4587 92.9702 70.928 92.1975C68.6185 88.8137 67.1157 85.1922 67.4383 80.9848C67.4977 80.2079 66.9628 79.639 66.2369 79.4352C65.3878 79.2017 64.9335 79.8597 64.5939 80.4669C63.8212 81.8467 63.4773 83.3411 63.592 84.2539L63.5877 84.2497Z" fill="#D07452"/>
<path d="M166.403 88.6016C165.609 81.3756 164.072 74.2897 162.306 67.2462C162.043 66.1891 161.512 65.7772 160.396 65.7348C152.071 65.3909 144.573 62.4614 137.509 58.2413C126.976 51.9493 118.082 43.7553 110.088 34.5296C109.672 34.0498 109.442 33.4852 108.589 33.706C102.722 35.2259 96.6595 36.3637 91.4631 39.5819C85.9314 43.0081 83.2228 48.7184 81.0152 54.6071C78.1156 62.3341 77.0372 70.4177 76.307 78.5862C75.9844 82.1865 76.0608 85.7825 75.891 90.0409C74.4815 86.0542 73.28 82.6578 72.0786 79.2613C71.1361 76.6035 70.1469 73.9585 69.2724 71.2796C68.9455 70.2818 68.5252 70.0356 67.4426 70.1247C59.2235 70.8125 56.2262 75.8351 55.5554 83.422C54.579 94.4393 61.6603 100.884 69.4167 103.376C70.1809 103.623 71.0045 103.835 71.1828 104.701C71.6031 106.777 72.8385 108.594 73.0423 110.725C69.9304 110.819 66.8397 110.815 63.7448 110.318C42.9338 106.989 28.1258 86.5892 31.5221 65.8706C34.2392 49.3001 45.8546 36.9878 62.2802 33.3833C63.7703 33.0564 64.751 32.4195 65.5619 31.1331C67.8671 27.4692 70.7073 24.2298 73.747 21.1559C77.8523 17.0037 82.7006 13.8535 87.5531 10.699C87.5531 10.699 87.5871 10.6905 87.5828 10.6905H87.7526L87.8376 10.5419C93.6241 7.93089 99.4657 5.49392 105.774 4.40704C109.188 3.81691 112.618 3.2862 116.082 3.34139C124.246 3.46452 132.249 2.08894 140.281 0.976596C143.919 0.47137 147.562 0.00859743 151.239 0.00010622C162.06 -0.0253674 168.904 4.53016 173.098 14.5116C174.41 17.6406 175.416 20.8715 176.129 24.1831C176.316 25.0492 176.681 25.5077 177.518 25.8176C187.745 29.5707 195.043 36.5505 199.878 46.222C202.956 53.4777 204.009 60.984 202.918 68.8214C200.736 84.5089 187.282 98.5109 171.842 101.033C172.941 99.1689 174.97 98.2476 176.278 96.5154C179.364 92.4311 180.388 87.9223 179.802 82.9719C179.377 79.3802 178.74 75.8308 175.837 73.2283C175.573 72.9905 175.323 72.74 175.047 72.5235C171.761 69.9719 170.831 70.2776 169.974 74.2515C169.676 75.6271 169.502 77.0281 169.273 78.4164C168.776 79.3632 168.721 80.4203 168.475 81.4308C167.889 83.8508 167.987 86.4746 166.403 88.6101V88.6016Z" fill="#54362E"/>
<path d="M160 105.5C156.417 127 140 142 122.5 142C105 142 80.0001 117 80.0001 97C80.0001 85.1896 86.5074 58.9857 90.0001 52C91.0001 49.9999 95.5 41 105.5 41C110.5 41 138 69.5 158 72.5C160.5 72.875 161.5 96.5 160 105.5Z" fill="#FFD36C" fill-opacity="0.4"/>
<path d="M87.5532 10.7032C82.7006 13.8577 77.8524 17.0122 73.7471 21.1601C70.7074 24.2339 67.8672 27.4733 65.5619 31.1373C64.751 32.4279 63.7703 33.0605 62.2802 33.3875C45.8547 36.992 34.2392 49.3042 31.5222 65.8748C28.1258 86.5934 42.9338 106.993 63.7449 110.322C66.8398 110.819 69.9347 110.823 73.0423 110.73C75.8443 115.098 78.2557 119.713 81.5416 123.776C84.3266 127.22 87.2984 130.506 90.6099 133.41C92.066 134.688 92.2189 135.893 91.9556 137.468C91.425 140.665 90.8816 143.867 90.3169 147.059C89.2598 153.024 88.1008 158.972 87.1711 164.959C86.9206 166.568 86.1479 167.124 84.7809 167.379C77.0882 168.826 69.4634 170.593 61.9533 172.779C51.8959 175.709 41.7833 178.557 32.8722 184.412C29.6117 186.556 27.8074 189.766 25.9692 192.997C23.5366 189.566 21.0318 186.182 18.684 182.697C14.1414 175.942 10.813 168.58 7.82852 161.019C5.8077 155.894 4.2836 150.634 3.15857 145.297C1.89768 139.336 1.16747 133.278 0.683488 127.16C0.161302 120.49 0.870284 113.931 1.35851 107.363C1.88494 100.285 3.71047 93.4033 5.83317 86.5976C8.16815 79.1169 11.3522 72.0267 14.9863 65.1233C16.3533 62.5293 18.0048 60.0626 19.6478 57.6553C23.8804 51.444 28.5377 45.5426 33.9336 40.2568C42.4923 31.8718 52.0742 24.8411 62.6665 19.3218C68.7587 16.1461 75.1948 13.6157 81.8685 11.7816C83.7493 11.2636 85.5366 10.4485 87.5532 10.7117V10.7032Z" fill="#E9F2FB"/>
<path d="M171.842 101.028C187.286 98.5064 200.736 84.5044 202.918 68.8169C204.009 60.9753 202.96 53.4733 199.878 46.2175C202.196 47.0879 203.326 49.2531 204.731 50.9981C206.879 53.6643 208.734 56.581 210.564 59.485C213.774 64.584 216.669 69.8401 219.038 75.4103C221.441 81.057 223.691 86.7631 225.037 92.7324C226.892 100.956 228.233 109.248 228.454 117.747C228.692 126.871 228.017 135.88 226.123 144.741C224.587 151.937 222.4 158.981 219.394 165.774C217.119 170.915 214.589 175.887 211.748 180.718C209.426 184.667 206.497 188.186 203.793 191.863C203.627 192.088 203.169 192.101 202.846 192.211C199.11 184.675 192.071 181.508 184.82 178.685C170.835 173.238 156.18 170.376 141.504 167.621C139.912 167.319 138.316 166.975 136.707 166.822C135.543 166.716 135.344 166.135 135.348 165.154C135.378 159.146 135.378 153.135 135.382 147.127C135.382 146.316 135.573 145.926 136.473 145.454C145.146 140.937 152.376 134.777 157.76 126.506C160.039 123.004 161.848 119.31 163.397 115.451C164.531 112.632 165.469 109.681 165.749 106.739C166.068 103.385 168.267 102.48 170.674 101.44C171.052 101.279 171.451 101.164 171.842 101.024V101.028Z" fill="#E9F2FB"/>
<path d="M87.8418 10.5461L87.7569 10.6947H87.5871C87.5871 10.5886 87.5871 10.4782 87.5871 10.3721C87.672 10.4315 87.7569 10.4867 87.8418 10.5461Z" fill="#B0E9FD"/>
<path d="M97.4788 139.311C100.349 141.043 103.091 142.967 106.067 144.427C111.616 147.153 117.233 149.73 123.703 149.403C127.226 149.225 130.406 147.968 133.616 146.796C134.838 146.35 134.796 146.686 135.004 147.633C135.645 150.532 133.187 151.178 131.578 152.247C128.593 154.234 125.405 155.882 122.005 157.113C119.152 158.149 116.906 156.582 114.643 155.444C111.353 153.793 108.674 151.216 105.991 148.753C103.202 146.193 100.667 143.353 98.0392 140.619C97.7336 140.3 97.1732 140.054 97.4788 139.307V139.311Z" fill="#A75A3B"/>
<path d="M146.437 75.4997C149.889 75.2365 153.242 76.5653 156.605 77.8348C157.428 78.1447 158.184 78.5948 157.67 79.7283C157.182 80.8025 156.422 80.6921 155.569 80.2548C152.228 78.5353 148.679 77.9537 144.934 78.0089C137.386 78.1235 130.054 85.1415 129.905 92.6477C129.833 96.3414 131.514 99.5935 132.78 102.943C133.472 104.782 134.406 106.522 134.635 108.543C134.949 111.299 133.051 113.468 130.36 113.243C129.74 113.192 129.494 112.895 129.46 112.309C129.417 111.57 129.409 110.793 130.275 110.573C132.707 109.944 132.168 108.318 131.57 106.747C130.517 103.988 129.099 101.338 128.322 98.5109C124.794 85.6467 134.648 75.0709 146.437 75.504V75.4997Z" fill="#A75A3B"/>
<path d="M83.7619 184.183C86.513 184.726 89.0772 184.497 91.6329 184.616C94.9698 184.769 98.2048 184.123 101.436 183.503C105.307 182.76 108.912 185.367 109.294 189.299C109.37 190.084 108.908 190.08 108.407 190.11C101.648 190.488 95.0717 189.668 88.8267 186.959C87.154 186.233 85.112 186.14 83.7662 184.187L83.7619 184.183Z" fill="#A75A3B"/>
<path d="M151.85 185.091C148.836 186.263 146.305 187.409 143.682 188.233C138.812 189.761 133.807 190.377 128.678 190.156C126.84 190.08 126.721 189.464 127.256 187.953C128.517 184.382 131.349 182.722 135.042 183.55C139.61 184.573 144.246 184.688 148.904 184.599C149.702 184.582 150.551 184.399 151.854 185.091H151.85Z" fill="#A75A3B"/>
<path d="M63.5878 84.2498C63.4774 83.337 63.817 81.8426 64.5897 80.4627C64.9293 79.8556 65.3878 79.1975 66.2326 79.4311C66.9586 79.6348 67.4935 80.2038 67.4341 80.9807C67.1157 85.1881 68.6143 88.8138 70.9238 92.1933C71.4545 92.9703 71.2974 93.6835 70.5587 94.2142C69.7139 94.8256 68.7756 94.8341 68.0667 94.0784C65.6468 91.4971 63.5538 88.7289 63.5835 84.2456L63.5878 84.2498Z" fill="#A75A3B"/>
<path d="M166.403 88.6017C167.987 86.4704 167.889 83.8423 168.475 81.4223C168.721 80.4119 168.776 79.3547 169.273 78.408C169.405 78.7306 169.477 79.0957 169.681 79.3632C172.436 82.938 172.657 86.5468 170.313 90.3636C170.059 90.7797 169.6 91.1066 169.456 91.5481C169.078 92.6902 168.22 94.0275 167.329 93.845C166.233 93.62 167.002 92.0406 166.807 91.0726C166.641 90.2532 166.535 89.4253 166.403 88.6017Z" fill="#A75A3B"/>
</svg>
