<svg width="200" height="146" viewBox="0 0 200 146" fill="none" xmlns="http://www.w3.org/2000/svg">
<g clip-path="url(#clip0_180_2580)">
<mask id="mask0_180_2580" style="mask-type:luminance" maskUnits="userSpaceOnUse" x="0" y="53" width="200" height="91">
<path d="M0 53.8229H200V143.023H0V53.8229Z" fill="white"/>
</mask>
<g mask="url(#mask0_180_2580)">
<path fill-rule="evenodd" clip-rule="evenodd" d="M2.45208 53.8396C3.85208 53.8396 4.90417 54.8938 4.90417 56.2979C4.90417 57.7021 3.85208 58.7542 2.45208 58.7542C1.05 58.7542 0 57.7021 0 56.2979C0 54.8938 1.05 53.8396 2.45208 53.8396ZM197.548 138.092C198.95 138.092 200 139.321 200 140.55C200 141.954 198.95 143.006 197.548 143.006C196.148 143.006 195.096 141.954 195.096 140.55C195.096 139.321 196.148 138.092 197.548 138.092ZM197.548 121.242C198.95 121.242 200 122.296 200 123.7C200 125.104 198.95 126.156 197.548 126.156C196.148 126.156 195.096 125.104 195.096 123.7C195.096 122.296 196.148 121.242 197.548 121.242ZM197.548 104.392C198.95 104.392 200 105.444 200 106.848C200 108.252 198.95 109.306 197.548 109.306C196.148 109.306 195.096 108.252 195.096 106.848C195.096 105.444 196.148 104.392 197.548 104.392ZM197.548 87.5417C198.95 87.5417 200 88.5938 200 89.9979C200 91.4021 198.95 92.4563 197.548 92.4563C196.148 92.4563 195.096 91.4021 195.096 89.9979C195.096 88.5938 196.148 87.5417 197.548 87.5417ZM197.548 70.6917C198.95 70.6917 200 71.7438 200 73.1479C200 74.5521 198.95 75.6063 197.548 75.6063C196.148 75.6063 195.096 74.5521 195.096 73.1479C195.096 71.7438 196.148 70.6917 197.548 70.6917ZM181.26 138.092C182.663 138.092 183.713 139.321 183.713 140.55C183.713 141.954 182.663 143.006 181.26 143.006C180.035 143.006 178.808 141.954 178.808 140.55C178.808 139.321 180.035 138.092 181.26 138.092ZM181.26 121.242C182.663 121.242 183.713 122.296 183.713 123.7C183.713 125.104 182.663 126.156 181.26 126.156C180.035 126.156 178.808 125.104 178.808 123.7C178.808 122.296 180.035 121.242 181.26 121.242ZM181.26 104.392C182.663 104.392 183.713 105.444 183.713 106.848C183.713 108.252 182.663 109.306 181.26 109.306C180.035 109.306 178.808 108.252 178.808 106.848C178.808 105.444 180.035 104.392 181.26 104.392ZM181.26 87.5417C182.663 87.5417 183.713 88.5938 183.713 89.9979C183.713 91.4021 182.663 92.4563 181.26 92.4563C180.035 92.4563 178.808 91.4021 178.808 89.9979C178.808 88.5938 180.035 87.5417 181.26 87.5417ZM181.26 70.6917C182.663 70.6917 183.713 71.7438 183.713 73.1479C183.713 74.5521 182.663 75.6063 181.26 75.6063C180.035 75.6063 178.808 74.5521 178.808 73.1479C178.808 71.7438 180.035 70.6917 181.26 70.6917ZM165.148 138.092C166.375 138.092 167.6 139.321 167.6 140.55C167.6 141.954 166.375 143.006 165.148 143.006C163.748 143.006 162.523 141.954 162.523 140.55C162.523 139.321 163.748 138.092 165.148 138.092ZM165.148 121.242C166.375 121.242 167.6 122.296 167.6 123.7C167.6 125.104 166.375 126.156 165.148 126.156C163.748 126.156 162.523 125.104 162.523 123.7C162.523 122.296 163.748 121.242 165.148 121.242ZM165.148 104.392C166.375 104.392 167.6 105.444 167.6 106.848C167.6 108.252 166.375 109.306 165.148 109.306C163.748 109.306 162.523 108.252 162.523 106.848C162.523 105.444 163.748 104.392 165.148 104.392ZM165.148 87.5417C166.375 87.5417 167.6 88.5938 167.6 89.9979C167.6 91.4021 166.375 92.4563 165.148 92.4563C163.748 92.4563 162.523 91.4021 162.523 89.9979C162.523 88.5938 163.748 87.5417 165.148 87.5417ZM165.148 70.6917C166.375 70.6917 167.6 71.7438 167.6 73.1479C167.6 74.5521 166.375 75.6063 165.148 75.6063C163.748 75.6063 162.523 74.5521 162.523 73.1479C162.523 71.7438 163.748 70.6917 165.148 70.6917ZM148.863 138.092C150.088 138.092 151.313 139.321 151.313 140.55C151.313 141.954 150.088 143.006 148.863 143.006C147.46 143.006 146.41 141.954 146.41 140.55C146.41 139.321 147.46 138.092 148.863 138.092ZM148.863 121.242C150.088 121.242 151.313 122.296 151.313 123.7C151.313 125.104 150.088 126.156 148.863 126.156C147.46 126.156 146.41 125.104 146.41 123.7C146.41 122.296 147.46 121.242 148.863 121.242ZM148.863 104.392C150.088 104.392 151.313 105.444 151.313 106.848C151.313 108.252 150.088 109.306 148.863 109.306C147.46 109.306 146.41 108.252 146.41 106.848C146.41 105.444 147.46 104.392 148.863 104.392ZM148.863 87.5417C150.088 87.5417 151.313 88.5938 151.313 89.9979C151.313 91.4021 150.088 92.4563 148.863 92.4563C147.46 92.4563 146.41 91.4021 146.41 89.9979C146.41 88.5938 147.46 87.5417 148.863 87.5417ZM148.863 70.6917C150.088 70.6917 151.313 71.7438 151.313 73.1479C151.313 74.5521 150.088 75.6063 148.863 75.6063C147.46 75.6063 146.41 74.5521 146.41 73.1479C146.41 71.7438 147.46 70.6917 148.863 70.6917ZM132.575 138.092C133.975 138.092 135.027 139.321 135.027 140.55C135.027 141.954 133.975 143.006 132.575 143.006C131.173 143.006 130.123 141.954 130.123 140.55C130.123 139.321 131.173 138.092 132.575 138.092ZM132.575 121.242C133.975 121.242 135.027 122.296 135.027 123.7C135.027 125.104 133.975 126.156 132.575 126.156C131.173 126.156 130.123 125.104 130.123 123.7C130.123 122.296 131.173 121.242 132.575 121.242ZM132.575 104.392C133.975 104.392 135.027 105.444 135.027 106.848C135.027 108.252 133.975 109.306 132.575 109.306C131.173 109.306 130.123 108.252 130.123 106.848C130.123 105.444 131.173 104.392 132.575 104.392ZM132.575 87.5417C133.975 87.5417 135.027 88.5938 135.027 89.9979C135.027 91.4021 133.975 92.4563 132.575 92.4563C131.173 92.4563 130.123 91.4021 130.123 89.9979C130.123 88.5938 131.173 87.5417 132.575 87.5417ZM132.575 70.6917C133.975 70.6917 135.027 71.7438 135.027 73.1479C135.027 74.5521 133.975 75.6063 132.575 75.6063C131.173 75.6063 130.123 74.5521 130.123 73.1479C130.123 71.7438 131.173 70.6917 132.575 70.6917ZM116.288 138.092C117.688 138.092 118.74 139.321 118.74 140.55C118.74 141.954 117.688 143.006 116.288 143.006C114.885 143.006 113.835 141.954 113.835 140.55C113.835 139.321 114.885 138.092 116.288 138.092ZM116.288 121.242C117.688 121.242 118.74 122.296 118.74 123.7C118.74 125.104 117.688 126.156 116.288 126.156C114.885 126.156 113.835 125.104 113.835 123.7C113.835 122.296 114.885 121.242 116.288 121.242ZM116.288 104.392C117.688 104.392 118.74 105.444 118.74 106.848C118.74 108.252 117.688 109.306 116.288 109.306C114.885 109.306 113.835 108.252 113.835 106.848C113.835 105.444 114.885 104.392 116.288 104.392ZM116.288 87.5417C117.688 87.5417 118.74 88.5938 118.74 89.9979C118.74 91.4021 117.688 92.4563 116.288 92.4563C114.885 92.4563 113.835 91.4021 113.835 89.9979C113.835 88.5938 114.885 87.5417 116.288 87.5417ZM116.288 70.6917C117.688 70.6917 118.74 71.7438 118.74 73.1479C118.74 74.5521 117.688 75.6063 116.288 75.6063C114.885 75.6063 113.835 74.5521 113.835 73.1479C113.835 71.7438 114.885 70.6917 116.288 70.6917ZM100 138.092C101.402 138.092 102.452 139.321 102.452 140.55C102.452 141.954 101.402 143.006 100 143.006C98.5979 143.006 97.5479 141.954 97.5479 140.55C97.5479 139.321 98.5979 138.092 100 138.092ZM100 121.242C101.402 121.242 102.452 122.296 102.452 123.7C102.452 125.104 101.402 126.156 100 126.156C98.5979 126.156 97.5479 125.104 97.5479 123.7C97.5479 122.296 98.5979 121.242 100 121.242ZM100 104.392C101.402 104.392 102.452 105.444 102.452 106.848C102.452 108.252 101.402 109.306 100 109.306C98.5979 109.306 97.5479 108.252 97.5479 106.848C97.5479 105.444 98.5979 104.392 100 104.392ZM100 87.5417C101.402 87.5417 102.452 88.5938 102.452 89.9979C102.452 91.4021 101.402 92.4563 100 92.4563C98.5979 92.4563 97.5479 91.4021 97.5479 89.9979C97.5479 88.5938 98.5979 87.5417 100 87.5417ZM100 70.6917C101.402 70.6917 102.452 71.7438 102.452 73.1479C102.452 74.5521 101.402 75.6063 100 75.6063C98.5979 75.6063 97.5479 74.5521 97.5479 73.1479C97.5479 71.7438 98.5979 70.6917 100 70.6917ZM83.7125 138.092C85.1146 138.092 86.1646 139.321 86.1646 140.55C86.1646 141.954 85.1146 143.006 83.7125 143.006C82.4875 143.006 81.2604 141.954 81.2604 140.55C81.2604 139.321 82.4875 138.092 83.7125 138.092ZM83.7125 121.242C85.1146 121.242 86.1646 122.296 86.1646 123.7C86.1646 125.104 85.1146 126.156 83.7125 126.156C82.4875 126.156 81.2604 125.104 81.2604 123.7C81.2604 122.296 82.4875 121.242 83.7125 121.242ZM83.7125 104.392C85.1146 104.392 86.1646 105.444 86.1646 106.848C86.1646 108.252 85.1146 109.306 83.7125 109.306C82.4875 109.306 81.2604 108.252 81.2604 106.848C81.2604 105.444 82.4875 104.392 83.7125 104.392ZM83.7125 87.5417C85.1146 87.5417 86.1646 88.5938 86.1646 89.9979C86.1646 91.4021 85.1146 92.4563 83.7125 92.4563C82.4875 92.4563 81.2604 91.4021 81.2604 89.9979C81.2604 88.5938 82.4875 87.5417 83.7125 87.5417ZM83.7125 70.6917C85.1146 70.6917 86.1646 71.7438 86.1646 73.1479C86.1646 74.5521 85.1146 75.6063 83.7125 75.6063C82.4875 75.6063 81.2604 74.5521 81.2604 73.1479C81.2604 71.7438 82.4875 70.6917 83.7125 70.6917ZM67.425 138.092C68.8271 138.092 70.0521 139.321 70.0521 140.55C70.0521 141.954 68.8271 143.006 67.425 143.006C66.2 143.006 64.9729 141.954 64.9729 140.55C64.9729 139.321 66.2 138.092 67.425 138.092ZM67.425 121.242C68.8271 121.242 70.0521 122.296 70.0521 123.7C70.0521 125.104 68.8271 126.156 67.425 126.156C66.2 126.156 64.9729 125.104 64.9729 123.7C64.9729 122.296 66.2 121.242 67.425 121.242ZM67.425 104.392C68.8271 104.392 70.0521 105.444 70.0521 106.848C70.0521 108.252 68.8271 109.306 67.425 109.306C66.2 109.306 64.9729 108.252 64.9729 106.848C64.9729 105.444 66.2 104.392 67.425 104.392ZM67.425 87.5417C68.8271 87.5417 70.0521 88.5938 70.0521 89.9979C70.0521 91.4021 68.8271 92.4563 67.425 92.4563C66.2 92.4563 64.9729 91.4021 64.9729 89.9979C64.9729 88.5938 66.2 87.5417 67.425 87.5417ZM67.425 70.6917C68.8271 70.6917 70.0521 71.7438 70.0521 73.1479C70.0521 74.5521 68.8271 75.6063 67.425 75.6063C66.2 75.6063 64.9729 74.5521 64.9729 73.1479C64.9729 71.7438 66.2 70.6917 67.425 70.6917ZM51.3125 138.092C52.5396 138.092 53.7646 139.321 53.7646 140.55C53.7646 141.954 52.5396 143.006 51.3125 143.006C49.9125 143.006 48.8625 141.954 48.8625 140.55C48.8625 139.321 49.9125 138.092 51.3125 138.092ZM51.3125 121.242C52.5396 121.242 53.7646 122.296 53.7646 123.7C53.7646 125.104 52.5396 126.156 51.3125 126.156C49.9125 126.156 48.8625 125.104 48.8625 123.7C48.8625 122.296 49.9125 121.242 51.3125 121.242ZM51.3125 104.392C52.5396 104.392 53.7646 105.444 53.7646 106.848C53.7646 108.252 52.5396 109.306 51.3125 109.306C49.9125 109.306 48.8625 108.252 48.8625 106.848C48.8625 105.444 49.9125 104.392 51.3125 104.392ZM51.3125 87.5417C52.5396 87.5417 53.7646 88.5938 53.7646 89.9979C53.7646 91.4021 52.5396 92.4563 51.3125 92.4563C49.9125 92.4563 48.8625 91.4021 48.8625 89.9979C48.8625 88.5938 49.9125 87.5417 51.3125 87.5417ZM51.3125 70.6917C52.5396 70.6917 53.7646 71.7438 53.7646 73.1479C53.7646 74.5521 52.5396 75.6063 51.3125 75.6063C49.9125 75.6063 48.8625 74.5521 48.8625 73.1479C48.8625 71.7438 49.9125 70.6917 51.3125 70.6917ZM35.0271 138.092C36.4271 138.092 37.4771 139.321 37.4771 140.55C37.4771 141.954 36.4271 143.006 35.0271 143.006C33.625 143.006 32.575 141.954 32.575 140.55C32.575 139.321 33.625 138.092 35.0271 138.092ZM35.0271 121.242C36.4271 121.242 37.4771 122.296 37.4771 123.7C37.4771 125.104 36.4271 126.156 35.0271 126.156C33.625 126.156 32.575 125.104 32.575 123.7C32.575 122.296 33.625 121.242 35.0271 121.242ZM35.0271 104.392C36.4271 104.392 37.4771 105.444 37.4771 106.848C37.4771 108.252 36.4271 109.306 35.0271 109.306C33.625 109.306 32.575 108.252 32.575 106.848C32.575 105.444 33.625 104.392 35.0271 104.392ZM35.0271 87.5417C36.4271 87.5417 37.4771 88.5938 37.4771 89.9979C37.4771 91.4021 36.4271 92.4563 35.0271 92.4563C33.625 92.4563 32.575 91.4021 32.575 89.9979C32.575 88.5938 33.625 87.5417 35.0271 87.5417ZM35.0271 70.6917C36.4271 70.6917 37.4771 71.7438 37.4771 73.1479C37.4771 74.5521 36.4271 75.6063 35.0271 75.6063C33.625 75.6063 32.575 74.5521 32.575 73.1479C32.575 71.7438 33.625 70.6917 35.0271 70.6917ZM18.7396 138.092C20.1396 138.092 21.1917 139.321 21.1917 140.55C21.1917 141.954 20.1396 143.006 18.7396 143.006C17.3375 143.006 16.2875 141.954 16.2875 140.55C16.2875 139.321 17.3375 138.092 18.7396 138.092ZM18.7396 121.242C20.1396 121.242 21.1917 122.296 21.1917 123.7C21.1917 125.104 20.1396 126.156 18.7396 126.156C17.3375 126.156 16.2875 125.104 16.2875 123.7C16.2875 122.296 17.3375 121.242 18.7396 121.242ZM18.7396 104.392C20.1396 104.392 21.1917 105.444 21.1917 106.848C21.1917 108.252 20.1396 109.306 18.7396 109.306C17.3375 109.306 16.2875 108.252 16.2875 106.848C16.2875 105.444 17.3375 104.392 18.7396 104.392ZM18.7396 87.5417C20.1396 87.5417 21.1917 88.5938 21.1917 89.9979C21.1917 91.4021 20.1396 92.4563 18.7396 92.4563C17.3375 92.4563 16.2875 91.4021 16.2875 89.9979C16.2875 88.5938 17.3375 87.5417 18.7396 87.5417ZM18.7396 70.6917C20.1396 70.6917 21.1917 71.7438 21.1917 73.1479C21.1917 74.5521 20.1396 75.6063 18.7396 75.6063C17.3375 75.6063 16.2875 74.5521 16.2875 73.1479C16.2875 71.7438 17.3375 70.6917 18.7396 70.6917ZM2.45208 138.092C3.85208 138.092 4.90417 139.321 4.90417 140.55C4.90417 141.954 3.85208 143.006 2.45208 143.006C1.05 143.006 0 141.954 0 140.55C0 139.321 1.05 138.092 2.45208 138.092ZM2.45208 121.242C3.85208 121.242 4.90417 122.296 4.90417 123.7C4.90417 125.104 3.85208 126.156 2.45208 126.156C1.05 126.156 0 125.104 0 123.7C0 122.296 1.05 121.242 2.45208 121.242ZM2.45208 104.392C3.85208 104.392 4.90417 105.444 4.90417 106.848C4.90417 108.252 3.85208 109.306 2.45208 109.306C1.05 109.306 0 108.252 0 106.848C0 105.444 1.05 104.392 2.45208 104.392ZM2.45208 87.5417C3.85208 87.5417 4.90417 88.5938 4.90417 89.9979C4.90417 91.4021 3.85208 92.4563 2.45208 92.4563C1.05 92.4563 0 91.4021 0 89.9979C0 88.5938 1.05 87.5417 2.45208 87.5417ZM2.45208 70.6917C3.85208 70.6917 4.90417 71.7438 4.90417 73.1479C4.90417 74.5521 3.85208 75.6063 2.45208 75.6063C1.05 75.6063 0 74.5521 0 73.1479C0 71.7438 1.05 70.6917 2.45208 70.6917ZM197.548 53.8396C198.95 53.8396 200 54.8938 200 56.2979C200 57.7021 198.95 58.7542 197.548 58.7542C196.148 58.7542 195.096 57.7021 195.096 56.2979C195.096 54.8938 196.148 53.8396 197.548 53.8396ZM181.26 53.8396C182.663 53.8396 183.713 54.8938 183.713 56.2979C183.713 57.7021 182.663 58.7542 181.26 58.7542C180.035 58.7542 178.808 57.7021 178.808 56.2979C178.808 54.8938 180.035 53.8396 181.26 53.8396ZM165.148 53.8396C166.375 53.8396 167.6 54.8938 167.6 56.2979C167.6 57.7021 166.375 58.7542 165.148 58.7542C163.748 58.7542 162.523 57.7021 162.523 56.2979C162.523 54.8938 163.748 53.8396 165.148 53.8396ZM148.863 53.8396C150.088 53.8396 151.313 54.8938 151.313 56.2979C151.313 57.7021 150.088 58.7542 148.863 58.7542C147.46 58.7542 146.41 57.7021 146.41 56.2979C146.41 54.8938 147.46 53.8396 148.863 53.8396ZM132.575 53.8396C133.975 53.8396 135.027 54.8938 135.027 56.2979C135.027 57.7021 133.975 58.7542 132.575 58.7542C131.173 58.7542 130.123 57.7021 130.123 56.2979C130.123 54.8938 131.173 53.8396 132.575 53.8396ZM116.288 53.8396C117.688 53.8396 118.74 54.8938 118.74 56.2979C118.74 57.7021 117.688 58.7542 116.288 58.7542C114.885 58.7542 113.835 57.7021 113.835 56.2979C113.835 54.8938 114.885 53.8396 116.288 53.8396ZM100 53.8396C101.402 53.8396 102.452 54.8938 102.452 56.2979C102.452 57.7021 101.402 58.7542 100 58.7542C98.5979 58.7542 97.5479 57.7021 97.5479 56.2979C97.5479 54.8938 98.5979 53.8396 100 53.8396ZM83.7125 53.8396C85.1146 53.8396 86.1646 54.8938 86.1646 56.2979C86.1646 57.7021 85.1146 58.7542 83.7125 58.7542C82.4875 58.7542 81.2604 57.7021 81.2604 56.2979C81.2604 54.8938 82.4875 53.8396 83.7125 53.8396ZM67.425 53.8396C68.8271 53.8396 70.0521 54.8938 70.0521 56.2979C70.0521 57.7021 68.8271 58.7542 67.425 58.7542C66.2 58.7542 64.9729 57.7021 64.9729 56.2979C64.9729 54.8938 66.2 53.8396 67.425 53.8396ZM51.3125 53.8396C52.5396 53.8396 53.7646 54.8938 53.7646 56.2979C53.7646 57.7021 52.5396 58.7542 51.3125 58.7542C49.9125 58.7542 48.8625 57.7021 48.8625 56.2979C48.8625 54.8938 49.9125 53.8396 51.3125 53.8396ZM35.0271 53.8396C36.4271 53.8396 37.4771 54.8938 37.4771 56.2979C37.4771 57.7021 36.4271 58.7542 35.0271 58.7542C33.625 58.7542 32.575 57.7021 32.575 56.2979C32.575 54.8938 33.625 53.8396 35.0271 53.8396ZM18.7396 53.8396C20.1396 53.8396 21.1917 54.8938 21.1917 56.2979C21.1917 57.7021 20.1396 58.7542 18.7396 58.7542C17.3375 58.7542 16.2875 57.7021 16.2875 56.2979C16.2875 54.8938 17.3375 53.8396 18.7396 53.8396Z" fill="#222222"/>
</g>
</g>
<defs>
<clipPath id="clip0_180_2580">
<rect width="200" height="200" fill="white"/>
</clipPath>
</defs>
</svg>
