<svg width="130" height="130" viewBox="0 0 130 130" fill="none" xmlns="http://www.w3.org/2000/svg">
<path d="M57.3005 27.2936C59.4926 19.523 70.5074 19.523 72.6995 27.2936L74.1052 32.2767C75.4108 36.9046 80.4749 39.3434 84.9071 37.4786L89.6795 35.4708C97.1215 32.3397 103.989 40.9514 99.2806 47.5102L96.2611 51.7161C93.4569 55.6223 94.7076 61.1021 98.929 63.4047L103.474 65.884C110.562 69.7503 108.111 80.4889 100.048 80.8969L94.8768 81.1586C90.0744 81.4015 86.5699 85.796 87.4016 90.5321L88.2972 95.6316C89.6937 103.584 79.7697 108.363 74.4232 102.313L70.9946 98.4333C67.8104 94.8301 62.1896 94.8301 59.0054 98.4333L55.5768 102.313C50.2303 108.363 40.3063 103.584 41.7028 95.6316L42.5984 90.5321C43.4301 85.796 39.9256 81.4015 35.1232 81.1586L29.9523 80.8969C21.8887 80.4889 19.4377 69.7503 26.5257 65.884L31.071 63.4047C35.2924 61.1021 36.5432 55.6223 33.7389 51.7161L30.7194 47.5102C26.0108 40.9514 32.8785 32.3397 40.3205 35.4707L45.0929 37.4786C49.5251 39.3434 54.5892 36.9046 55.8948 32.2767L57.3005 27.2936Z" fill="#222222"/>
<g clip-path="url(#clip0_180_2550)">
<path d="M64.9996 78.5056L62.9052 76.5989C55.4663 69.8533 50.5552 65.4044 50.5552 59.9444C50.5552 55.4956 54.0507 52 58.4996 52C61.013 52 63.4252 53.17 64.9996 55.0189C66.5741 53.17 68.9863 52 71.4996 52C75.9485 52 79.4441 55.4956 79.4441 59.9444C79.4441 65.4044 74.533 69.8533 67.0941 76.6133L64.9996 78.5056Z" fill="white"/>
</g>
<defs>
<clipPath id="clip0_180_2550">
<rect width="34.6667" height="34.6667" fill="white" transform="translate(47.6665 47.6666)"/>
</clipPath>
</defs>
</svg>
