<svg width="129" height="129" viewBox="0 0 129 129" fill="none" xmlns="http://www.w3.org/2000/svg">
<path d="M71.708 37.1904C72.6204 35.5354 74.2029 35.2829 75.708 35.1304C76.2355 35.0779 77.0754 35.6779 77.3404 36.1979C77.6029 36.7129 77.3904 37.5204 77.2454 38.1679C77.1779 38.4679 76.7804 38.6929 76.4329 39.0579C79.1354 40.1429 81.7454 41.1954 84.3579 42.2379C91.0404 44.9079 97.7329 47.5454 104.393 50.2704C105.305 50.6454 106.2 51.3129 106.838 52.0704C109.303 55.0054 111.66 58.0279 114.053 61.0204C115.19 62.4429 114.865 63.7604 113.155 64.4904C111.358 65.2579 109.553 66.0154 107.713 66.6704C106.89 66.9629 106.688 67.3854 106.69 68.2104C106.718 79.9604 106.708 91.7079 106.708 103.458C106.708 105.748 106.588 105.925 104.473 106.77C91.8454 111.825 79.213 116.865 66.5979 121.953C65.2654 122.49 64.1054 122.48 62.7729 121.943C50.1204 116.84 37.4454 111.788 24.7779 106.723C22.8704 105.96 22.6554 105.643 22.6554 103.565C22.6554 91.9404 22.6354 80.3179 22.6854 68.6929C22.6904 67.4779 22.4304 66.8329 21.2029 66.4479C19.5004 65.9179 17.8629 65.1704 16.2129 64.4804C14.5129 63.7704 14.1704 62.4629 15.3229 61.0029C17.8054 57.8679 20.3004 54.7429 22.8354 51.6504C23.2354 51.1629 23.8229 50.7404 24.4104 50.5029C37.2979 45.3179 50.2004 40.1729 63.0854 34.9779C64.2204 34.5204 65.2029 34.5129 66.3054 35.0004C68.0529 35.7729 69.8454 36.4404 71.7104 37.1904H71.708ZM62.5554 117.515V74.3529C61.1754 76.0654 59.9529 77.5854 58.7279 79.1054C57.4629 80.6779 57.0154 80.7929 55.0904 80.0229C46.6329 76.6404 38.1754 73.2554 29.7179 69.8754C28.7329 69.4829 27.7404 69.1079 26.7329 68.7154C26.6854 68.9429 26.6529 69.0229 26.6529 69.1054C26.6479 80.1879 26.6529 91.2729 26.6204 102.355C26.6179 103.143 27.0379 103.31 27.5954 103.533C33.4704 105.87 39.3404 108.218 45.2079 110.568C50.9554 112.868 56.7029 115.173 62.5554 117.518V117.515ZM66.7354 74.3179V117.485C67.0229 117.388 67.2204 117.333 67.4079 117.258C78.8804 112.673 90.3479 108.075 101.833 103.518C102.583 103.22 102.675 102.793 102.675 102.113C102.66 91.3204 102.665 80.5304 102.663 69.7379C102.663 69.4304 102.63 69.1229 102.608 68.7179C101.938 68.9779 101.4 69.1804 100.865 69.3954C91.9054 72.9779 82.9454 76.5629 73.9829 80.1429C72.4104 80.7704 71.7854 80.6029 70.7329 79.2979C69.4579 77.7129 68.188 76.1254 66.7379 74.3179H66.7354ZM99.1904 52.5229C98.6204 52.2604 98.3404 52.1129 98.0479 51.9954C87.2404 47.6704 76.438 43.3354 65.6129 39.0529C65.0379 38.8254 64.2104 38.8554 63.6254 39.0854C52.8404 43.3554 42.0729 47.6729 31.3029 51.9879C30.9854 52.1154 30.6879 52.2929 30.2429 52.5179C30.5854 52.6754 30.7279 52.7479 30.8779 52.8079C41.8804 57.2104 52.878 61.6204 63.8955 65.9854C64.3979 66.1854 65.1279 66.1229 65.6504 65.9204C70.2979 64.1079 74.9229 62.2354 79.5529 60.3829C85.9954 57.8029 92.4404 55.2254 99.1904 52.5229ZM19.9379 61.6129C20.4254 61.8329 20.7979 62.0154 21.1829 62.1704C32.0679 66.5204 42.9554 70.8654 53.8404 75.2129C55.2971 75.7946 56.5188 75.4721 57.5054 74.2454C58.7904 72.6429 60.0654 71.0354 61.4079 69.3504C49.2654 64.4954 37.3079 59.7154 25.2879 54.9079C23.4879 57.1629 21.7329 59.3654 19.9354 61.6154L19.9379 61.6129ZM104.05 54.9179C91.9829 59.7379 80.0229 64.5154 67.9304 69.3479C69.4904 71.3129 71.0279 73.1654 72.4629 75.0929C73.0654 75.9004 73.5629 76.0329 74.5179 75.6454C83.1854 72.1304 91.8779 68.6779 100.56 65.2054C103.478 64.0379 106.393 62.8629 109.418 61.6454C107.595 59.3629 105.863 57.1879 104.05 54.9204V54.9179Z" fill="black"/>
<path d="M46.8455 6.4854C51.218 6.4704 54.4705 9.7354 54.618 13.8454C54.6655 15.1654 54.8755 16.2604 55.713 17.3829C57.1505 19.3154 57.043 22.0429 55.513 23.9029C54.768 24.8079 54.663 25.7004 54.6455 26.7504C54.588 30.2529 52.433 33.2954 49.3805 34.1854C46.7255 34.9604 44.418 34.2529 42.553 32.2704C40.9855 30.6029 39.548 28.8129 38.0105 27.1154C37.6405 26.7054 37.1455 26.3429 36.638 26.1354C34.1755 25.1254 32.648 23.0004 32.6505 20.4754C32.653 17.9554 34.188 15.8279 36.6555 14.8279C37.1305 14.6354 37.6005 14.3154 37.943 13.9354C39.448 12.2654 40.893 10.5404 42.3855 8.85541C43.7205 7.35041 45.398 6.5354 46.8505 6.4854H46.8455ZM44.6405 22.4854C46.5155 22.4854 48.3905 22.4979 50.2655 22.4829C51.733 22.4704 52.6355 21.6979 52.6405 20.4929C52.6455 19.2879 51.7405 18.4954 50.278 18.4904C46.528 18.4779 42.7805 18.4779 39.0305 18.4904C37.553 18.4954 36.6605 19.2654 36.658 20.4779C36.653 21.6904 37.5505 22.4679 39.018 22.4804C40.893 22.4954 42.768 22.4854 44.643 22.4854H44.6405ZM50.9505 26.6004H42.838C43.8155 27.7154 44.6155 28.7254 45.5205 29.6329C46.6955 30.8129 48.2805 30.8529 49.3555 29.5954C50.038 28.7979 50.378 27.7104 50.9505 26.6004ZM50.833 14.4329C50.478 13.5029 50.2855 12.6379 49.8455 11.9279C48.9605 10.4979 47.243 9.99041 46.1005 10.9329C44.923 11.9029 43.9705 13.1479 42.768 14.4354H50.8305L50.833 14.4329Z" fill="black"/>
<path d="M74.6805 22.4924C72.623 22.4924 71.688 21.8849 71.6655 20.5299C71.6455 19.1449 72.633 18.4899 74.748 18.4924C75.0805 18.4924 75.4155 18.4749 75.7455 18.5049C76.938 18.6174 77.698 19.4249 77.6805 20.5349C77.663 21.6474 76.8855 22.4099 75.678 22.4849C75.3455 22.5049 75.013 22.4874 74.6805 22.4899V22.4924Z" fill="black"/>
<path d="M84.498 18.6627C84.993 18.8252 85.888 19.0377 86.713 19.4077C87.7555 19.8752 88.148 20.9227 87.7755 21.8927C87.378 22.9252 86.3705 23.3877 85.233 23.0552C84.5955 22.8702 83.943 22.7152 83.323 22.4802C82.2955 22.0902 81.7905 21.3052 82.013 20.2252C82.233 19.1527 82.9705 18.6102 84.498 18.6627Z" fill="black"/>
<path d="M84.1229 38.5023C82.8879 38.3873 82.138 37.9323 81.923 36.9048C81.7005 35.8398 82.113 35.0048 83.1405 34.6023C83.868 34.3173 84.6379 34.1148 85.4054 33.9698C86.4704 33.7673 87.2805 34.1673 87.6805 35.2173C88.058 36.2073 87.6579 37.2473 86.6279 37.6923C85.7629 38.0648 84.8304 38.2798 84.1229 38.5023Z" fill="black"/>
<path d="M88.6329 28.3927C88.2404 26.6477 89.3504 25.5777 90.6679 25.5752C91.9929 25.5752 92.6679 26.6327 92.6579 28.6227C92.6579 28.9552 92.6579 29.2927 92.6154 29.6202C92.4529 30.8852 91.6054 31.6627 90.4704 31.6077C89.3404 31.5527 88.6454 30.7077 88.6354 29.3752C88.6329 29.0827 88.6354 28.7927 88.6354 28.3927H88.6329Z" fill="black"/>
<path d="M64.8604 22.4947C63.2979 22.4897 62.3854 21.7397 62.4079 20.4697C62.4279 19.2222 63.3679 18.4872 64.9254 18.4922C66.4454 18.4997 67.4104 19.2997 67.3879 20.5347C67.3654 21.7722 66.4304 22.4972 64.8604 22.4922V22.4947Z" fill="black"/>
<path d="M66.9429 40.7503C68.6279 40.7003 69.6754 42.0728 69.1304 43.3878C68.7704 44.2553 68.2379 45.0878 67.6354 45.8128C67.0179 46.5528 66.1279 46.7028 65.2654 46.1878C64.3879 45.6653 63.9304 44.8428 64.3629 43.8653C64.9554 42.5228 65.4879 41.0528 66.9454 40.7503H66.9429Z" fill="black"/>
<path d="M66.408 52.9697C66.4155 54.5522 65.703 55.4672 64.4504 55.4897C63.1879 55.5147 62.4155 54.5897 62.408 53.0447C62.4005 51.4922 63.143 50.5372 64.373 50.5122C65.613 50.4872 66.403 51.4397 66.408 52.9697Z" fill="black"/>
</svg>
