<svg width="16" height="16" viewBox="0 0 16 16" fill="none" xmlns="http://www.w3.org/2000/svg">
<path d="M2 14L5.33333 10.6667M8.83933 12.5807C6.34333 12.014 3.986 9.6567 3.41933 7.1607C3.32933 6.76603 3.28467 6.5687 3.41467 6.24803C3.544 5.92803 3.70333 5.82803 4.02067 5.63003C4.738 5.18203 5.51533 5.03937 6.32133 5.11003C7.45267 5.2107 8.01867 5.2607 8.30133 5.11337C8.58333 4.9667 8.77467 4.6227 9.15867 3.93537L9.644 3.06403C9.964 2.4907 10.124 2.20337 10.5007 2.06803C10.8773 1.9327 11.104 2.0147 11.5573 2.1787C12.0783 2.36577 12.5514 2.66577 12.9429 3.05718C13.3343 3.44859 13.6343 3.92173 13.8213 4.4427C13.9853 4.89603 14.0673 5.1227 13.932 5.49937C13.7967 5.87537 13.51 6.03537 12.936 6.35603L12.0447 6.8527C11.358 7.23537 11.0153 7.42737 10.868 7.71203C10.7213 7.99737 10.7747 8.5507 10.8813 9.65737C10.96 10.4707 10.8247 11.2534 10.3707 11.98C10.172 12.2974 10.0727 12.456 9.752 12.586C9.432 12.7154 9.23467 12.6707 8.83933 12.5807Z" stroke="#FF9500" stroke-width="1.5" stroke-linecap="round" stroke-linejoin="round"/>
</svg>
