<svg width="275" height="358" viewBox="0 0 275 358" fill="none" xmlns="http://www.w3.org/2000/svg">
<path d="M275 357.972C271.763 357.98 268.521 357.984 265.279 357.992C263.75 349.975 264.628 341.878 264.591 333.826C264.466 305.696 264.535 277.562 264.555 249.433C264.555 246.413 264.284 243.418 263.713 240.468C262.034 231.781 258.4 224.003 252.661 217.218C246.538 209.981 239.048 204.717 230.039 201.722C225.349 200.16 220.473 199.224 215.665 198.073C212.577 197.335 209.538 196.406 206.402 195.873C203.557 194.88 200.59 194.356 197.677 193.641C195.346 193.068 193.047 192.342 190.651 192.043C190.558 192.011 190.461 191.978 190.368 191.946C190.769 191.546 190.627 191.034 190.615 190.57C190.405 182.933 190.154 175.3 189.518 167.679C189.138 163.114 188.737 158.553 188.191 154.012C187.288 146.524 186.131 139.069 184.577 131.678C182.319 120.937 179.434 110.378 174.917 100.332C171.328 92.3516 166.921 84.9004 160.312 78.9669C154.808 74.0263 148.431 70.9062 140.988 70.5469C132.741 70.1473 124.566 70.9828 116.574 73.1544C110.787 74.7246 105.453 77.1989 100.993 81.2999C96.0521 85.8368 93.2193 91.5887 91.5844 97.9743C90.1113 103.73 89.3303 109.627 88.2376 115.46C87.4404 119.718 86.8617 124.021 86.2911 128.316C85.6841 132.849 85.2227 137.402 84.6562 141.943C84.0411 146.888 82.8148 151.715 81.6777 156.559C79.464 165.968 77.2099 175.36 74.6766 184.693C73.6568 188.45 72.3497 192.116 71.172 195.821C70.9818 195.954 71.0183 196.148 71.0304 196.338C70.6783 196.426 70.3262 196.503 69.9782 196.6C64.9925 198.037 60.0391 199.599 55.0129 200.887C45.5757 203.308 37.7167 208.156 31.4764 215.616C27.5996 220.249 24.9529 225.513 23.1925 231.273C21.6426 236.334 21.8004 241.574 21.3714 246.752C21.1084 249.909 21.072 253.081 20.8332 256.242C20.465 261.118 20.1331 265.994 19.8701 270.878C19.7891 272.4 19.7041 273.921 19.6111 275.439C19.3318 280.077 18.9878 284.715 18.6884 289.353C18.4941 292.352 18.4132 295.363 18.1542 298.358C17.7333 303.23 17.4703 308.114 17.2153 312.994C17.0777 315.678 16.8187 318.35 16.6933 321.034C16.4667 325.878 16.0822 330.714 15.7706 335.549C15.5885 338.391 15.4347 341.233 15.2566 344.074C14.9693 348.7 14.0992 353.297 14.597 357.964C9.73269 357.964 4.86432 357.972 0 357.976C0.00809371 357.411 0.0202417 356.85 0.0202417 356.284C0.0202417 283.972 0.0242846 211.66 0.0161909 139.352C0.0161909 132.51 0.343989 125.684 1.25858 118.907C3.05134 105.611 6.68136 92.8239 12.2579 80.6016C18.7167 66.45 27.3122 53.7433 38.085 42.4939C51.2777 28.7136 66.6638 18.1341 84.2474 10.7031C94.3443 6.43661 104.822 3.47388 115.635 1.73822C121.001 0.878469 126.412 0.426391 131.851 0.13577C136.541 -0.114488 141.207 0.014677 145.873 0.252825C151.3 0.531338 156.698 1.19331 162.048 2.17012C171.664 3.92596 181.012 6.61824 190.044 10.36C202.529 15.5347 214.022 22.3683 224.487 30.9134C236.875 41.0286 247.206 52.9199 255.458 66.5993C262.932 78.9951 268.29 92.2467 271.532 106.346C272.782 111.787 273.669 117.285 274.251 122.843C274.814 128.211 274.976 133.588 274.976 138.98C274.964 211.414 274.968 283.843 274.968 356.276C274.968 356.841 274.984 357.402 274.992 357.968L275 357.972ZM49.9342 95.2053C49.5983 97.272 49.2138 99.3063 48.7241 101.321C47.9188 104.618 45.948 106.79 42.6215 107.646C41.4155 107.956 40.1731 108.134 38.9672 108.437C38.0526 108.667 37.049 108.501 36.0818 109.026C37.2999 109.232 38.4006 109.426 39.5054 109.599C46.0653 110.633 47.9876 112.465 49.2259 118.895C49.4566 120.098 49.6468 121.313 49.8573 122.52C50.266 121.264 50.4198 120.033 50.6666 118.818C51.7269 113.535 53.0178 110.976 59.161 109.841C60.6624 109.567 62.1637 109.296 63.7096 109.018C63.4061 108.723 63.0824 108.703 62.7627 108.675C60.9537 108.513 59.1853 108.134 57.4289 107.686C54.1793 106.858 52.1113 104.86 51.2534 101.583C50.703 99.4799 50.3874 97.3446 49.9422 95.2013L49.9342 95.2053ZM254.673 134.145C254.665 134.08 254.66 134.015 254.652 133.955C253.074 133.672 251.488 133.414 249.918 133.099C244.993 132.114 242.933 130.031 241.994 125.123C241.702 123.585 241.431 122.047 241.152 120.506C240.687 122.144 240.395 123.787 240.088 125.426C239.359 129.277 237.352 131.977 233.329 132.841C232.152 133.095 230.95 133.265 229.788 133.575C229.02 133.781 228.162 133.612 227.292 134.1C229.084 134.423 230.707 134.698 232.322 135.004C235.948 135.687 238.716 137.398 239.699 141.2C239.938 142.129 240.165 143.065 240.351 144.006C240.594 145.245 240.788 146.496 241.002 147.739C241.375 146.508 241.569 145.297 241.759 144.086C242.702 138.157 244.491 136.223 250.338 134.912C251.771 134.589 253.228 134.391 254.677 134.137L254.673 134.145ZM221.889 177.685C222.14 176.309 222.371 174.933 222.642 173.56C223.257 170.456 225.001 168.45 228.21 167.824C229.695 167.534 231.173 167.199 232.682 167.013C231.249 166.694 229.829 166.44 228.405 166.174C225.135 165.56 223.225 163.606 222.634 160.349C222.379 158.936 222.116 157.528 221.857 156.115C221.581 157.887 221.254 159.61 220.8 161.318C220.137 163.816 218.542 165.281 216.07 165.964C214.415 166.42 212.691 166.521 210.825 167.045C212.861 167.263 214.641 167.562 216.385 168.071C218.668 168.733 220.121 170.178 220.764 172.466C221.246 174.17 221.541 175.905 221.893 177.685H221.889Z" fill="#E1D7CE"/>
<path d="M14.6051 357.968C14.1073 353.306 14.9774 348.704 15.2647 344.078C15.4428 341.237 15.5966 338.395 15.7787 335.553C16.0863 330.714 16.4707 325.878 16.7014 321.038C16.8268 318.354 17.0858 315.678 17.2234 312.998C17.4784 308.114 17.7374 303.234 18.1623 298.362C18.4213 295.367 18.5022 292.356 18.6965 289.357C18.9959 284.719 19.3399 280.081 19.6192 275.443C19.7122 273.921 19.7972 272.4 19.8782 270.882C20.1412 265.998 20.473 261.122 20.8413 256.246C21.0801 253.09 21.1165 249.913 21.3795 246.756C21.8085 241.578 21.6547 236.338 23.2006 231.277C24.961 225.517 27.6077 220.253 31.4845 215.62C37.7288 208.156 45.5838 203.313 55.021 200.891C60.0472 199.603 65.0006 198.037 69.9863 196.604C70.3343 196.503 70.6864 196.426 71.0385 196.342C71.1275 196.281 71.2125 196.217 71.3015 196.156C73.9603 195.442 76.6151 194.727 79.2738 194.009C81.1273 200.386 82.2483 206.901 82.9969 213.496C83.3895 211.515 83.5595 209.5 84.0491 207.571C84.984 203.91 86.5379 200.447 87.7237 196.866C88.3793 194.889 89.3303 193.012 89.6702 190.929C90.2287 190.307 90.3096 189.476 90.6253 188.749C91.4589 186.812 91.7786 184.664 93.1181 182.933C95.6231 179.687 98.0958 176.418 100.585 173.157C102.373 170.811 105.497 170.715 107.44 172.947C109.051 174.799 109.168 177.116 107.663 179.126C105.999 181.346 104.267 183.514 102.572 185.71C102.377 185.96 102.159 186.218 102.05 186.505C101.956 186.743 101.839 187.066 102.05 187.3C102.252 187.518 102.495 187.312 102.717 187.248C107.885 185.766 113.053 184.285 118.221 182.804C120.726 182.896 123.198 182.582 125.643 182.109C130.798 181.112 135.448 179.038 139.362 175.461C143.125 172.026 145.764 167.857 147.54 163.114C148.054 161.738 147.856 160.603 146.925 159.961C145.76 159.154 144.817 159.295 143.558 160.385C139.139 164.22 134.056 166.803 128.423 168.361C125.068 169.294 121.636 169.613 118.172 169.665C115.76 169.609 113.352 169.536 110.969 169.068C105.348 167.966 101.058 165.189 98.9456 159.647C98.7311 159.086 98.5369 158.516 98.3345 157.951C98.29 157.806 98.2455 157.661 98.1969 157.515C97.4442 154.193 97.1448 150.815 96.9181 147.428C96.9181 147.324 96.9182 147.215 96.9222 147.11C96.8413 143.985 96.7563 140.857 96.6753 137.733C96.6753 137.531 96.6753 137.329 96.6753 137.128C96.8129 129.297 96.3516 121.478 96.3556 113.648C96.3556 112.074 96.3111 110.737 98.1929 110.257C98.6016 110.152 98.9537 109.817 99.3139 109.563C103.575 106.54 106.02 102.313 107.44 97.3971C107.549 97.0137 107.416 96.4647 107.978 96.2791C108.031 96.3275 108.083 96.38 108.136 96.4324C108.197 96.4728 108.217 96.5293 108.193 96.5979C108.002 96.937 108.039 97.3124 108.091 97.6635C108.808 102.422 110.078 107 112.608 111.161C117.687 119.509 125.59 122.528 133.935 121.155C141.595 119.892 148.127 116.13 154.209 111.492C154.315 111.391 154.42 111.29 154.525 111.19C154.307 111 154.185 111.149 154.076 111.323C152.757 112.005 151.445 112.699 150.118 113.373C144.473 116.239 138.767 118.907 132.312 119.424C126.246 119.912 121.009 118.124 116.744 113.773C112.814 109.765 110.597 104.792 109.03 99.5001C108.8 98.7211 108.322 97.9743 108.553 97.0944C109.038 97.5344 109.253 98.1479 109.585 98.6888C112.571 103.589 116.44 107.601 121.466 110.451C128.212 114.277 135.468 114.98 142.992 113.886C145.772 113.482 148.475 112.877 151.021 111.492C153.934 109.91 157.172 109.724 160.425 110.354C168.167 111.852 173.59 119.464 172.287 127.222C171.263 133.329 167.815 137.378 161.951 139.388C160.822 138.488 159.693 137.584 158.556 136.696C158.301 136.498 158.03 136.078 157.678 136.591C156.241 138.686 154.23 140.159 152.218 141.636C151.749 141.979 151.721 142.282 152.129 142.686C152.898 143.449 153.651 144.228 154.412 145.003C153.631 147.118 152.672 149.144 151.474 151.053C151.142 151.586 151.008 152.127 151.008 152.757C151.021 162.254 151.029 171.752 151 181.25C151 182.033 151.215 182.368 151.992 182.553C157.734 183.926 163.469 185.33 169.203 186.739C176.265 188.475 183.323 190.218 190.38 191.958C190.473 191.99 190.57 192.023 190.664 192.055C190.967 200.245 190.526 208.358 188.248 216.298C185.152 227.091 179.644 236.282 170.445 243.007C162.287 248.972 152.951 251.774 143.04 252.892C138.03 253.457 132.996 253.634 127.949 253.19C123.344 252.787 118.868 251.887 114.627 250.014C113.745 249.622 113.389 249.626 113.041 250.664C106.157 271.322 99.2329 291.964 92.3169 312.606C87.2543 327.727 82.1916 342.847 77.129 357.968C76.4856 357.98 75.8381 358 75.1946 358C55.5674 358 35.9361 358 16.3088 358C15.7463 358 15.1798 357.988 14.6172 357.98L14.6051 357.968ZM29.4206 320.841C29.8658 320.586 30.0358 320.11 30.2907 319.711C47.3523 293.288 63.6085 266.373 79.4924 239.237C79.7595 238.78 79.9295 238.312 79.9982 237.771C80.3341 235.103 80.7226 232.439 81.0626 229.775C81.6332 225.311 82.1835 220.843 82.742 216.378C81.5846 221.392 80.6579 226.433 79.7473 231.483C79.112 235.015 78.4847 238.409 76.4491 241.634C61.8643 264.763 47.8015 288.21 34.2243 311.944C32.5529 314.867 30.7804 317.737 29.3357 320.788C29.1617 320.849 29.105 320.982 29.1252 321.147C29.1252 321.172 29.1859 321.192 29.2183 321.216C29.2871 321.091 29.3519 320.97 29.4206 320.845V320.841ZM110.503 214.025C112.312 211.708 113.709 209.125 115.339 206.695C116.578 204.854 117.691 202.949 118.225 200.77C118.322 200.374 118.577 200.16 118.856 199.926C120.734 198.364 123.174 198.364 125.044 199.926C126.877 201.46 127.266 203.736 126.011 205.892C123.664 209.92 121.296 213.94 118.925 217.957C118.553 218.586 118.322 219.244 118.192 219.975C117.189 225.505 116.485 231.083 115.651 236.637C115.182 239.782 114.838 242.942 114.202 246.292C114.728 245.864 114.761 245.473 114.858 245.097C116.545 238.651 117.772 232.104 118.893 225.545C119.572 221.553 120.693 217.848 123.126 214.586C123.247 214.425 123.344 214.247 123.445 214.074C124.959 211.422 126.78 208.939 128.063 206.162C129.228 203.631 128.876 201.153 126.958 199.111C124.991 197.016 122.498 196.451 119.767 197.399C119.058 197.645 118.804 197.492 118.447 196.923C117.46 195.329 115.967 194.465 114.138 194.101C112.187 193.714 110.495 194.303 108.909 195.413C107.525 192.753 105.453 191.312 102.434 191.72C101.406 191.857 101.131 191.631 101.345 190.675C101.37 190.562 101.483 190.335 101.074 190.36C101.099 191.809 100.289 192.858 99.3463 193.883C98.3345 194.981 97.5535 196.261 96.9141 197.613C95.3034 201.028 93.7009 204.443 92.1226 207.874C91.9891 208.16 91.6491 208.459 91.9445 208.923C92.1024 208.717 92.2602 208.54 92.3857 208.346C94.3889 205.234 96.4163 202.138 98.3791 199.002C99.4717 197.262 100.366 195.409 100.799 193.383C100.961 192.624 101.402 192.342 102.135 192.277C104.903 192.039 107.205 193.633 107.966 196.309C108.112 196.818 107.982 197.133 107.638 197.484C106.38 198.768 105.506 200.297 104.858 201.96C103.923 204.35 102.976 206.735 102.066 209.133C101.928 209.488 101.657 209.843 101.807 210.279C101.884 210.247 101.985 210.239 102.013 210.191C104.255 206.227 107.367 202.715 108.355 198.098C108.387 197.944 108.468 197.799 108.549 197.666C110.459 194.65 114.971 194.642 116.934 197.645C117.788 198.957 117.743 199.478 116.796 200.725C116.214 201.492 115.615 202.275 115.194 203.131C113.45 206.659 111.843 210.247 110.37 213.896C110.35 213.989 110.289 214.142 110.321 214.166C110.451 214.255 110.479 214.13 110.507 214.033L110.503 214.025ZM85.0083 309.914C83.1953 309.595 81.3823 309.284 79.5733 308.953C73.8349 307.908 71.4958 305.64 70.2453 299.997C69.8123 298.035 69.5169 296.049 69.2134 293.962C68.922 294.418 68.8653 294.806 68.8127 295.205C68.5456 297.357 68.1531 299.484 67.5865 301.583C66.6072 305.2 64.3248 307.525 60.6745 308.441C59.1165 308.832 57.522 309.083 55.9599 309.45C55.0332 309.668 54.0215 309.535 52.941 310.076C55.3327 310.322 57.4775 310.681 59.5899 311.178C62.9407 311.961 65.8059 313.438 67.105 316.929C67.8496 318.936 68.2219 321.026 68.6063 323.121C68.7723 324.017 68.6306 324.998 69.2336 325.951C69.4764 323.678 69.8568 321.587 70.302 319.509C71.2247 315.19 73.6285 312.308 78.1164 311.315C80.3989 310.81 82.6854 310.407 85.0083 309.91V309.914ZM113.652 141.027C113.587 140.922 113.518 140.813 113.454 140.708C112.268 141.269 111.086 141.834 109.9 142.387C108.848 142.879 108.322 142.528 108.334 141.342C108.334 141.023 108.403 140.704 108.44 140.385C109.055 134.912 109.71 129.434 109.006 123.92C108.751 121.93 108.403 119.916 106.942 118.37C105.477 116.82 103.482 117.026 102.357 118.822C101.677 119.908 101.451 121.135 101.382 122.395C101.673 121.91 101.876 121.39 102.139 120.901C102.422 120.372 102.713 119.836 103.086 119.371C104.061 118.156 105.352 118.261 106.088 119.642C106.424 120.271 106.671 120.97 106.829 121.664C107.646 125.236 107.339 128.857 107.205 132.465C107.092 135.477 106.902 138.488 106.845 141.499C106.813 143.271 108.476 144.478 109.803 143.683C111.139 142.883 112.369 141.919 113.648 141.023L113.652 141.027Z" fill="#F78D80"/>
<path d="M77.1168 357.96C82.1795 342.839 87.2421 327.719 92.3047 312.599C99.2208 291.952 106.145 271.31 113.029 250.656C113.373 249.618 113.733 249.614 114.615 250.006C118.856 251.879 123.332 252.779 127.937 253.183C132.984 253.627 138.018 253.449 143.028 252.884C152.939 251.766 162.275 248.96 170.433 242.999C179.632 236.274 185.14 227.083 188.235 216.29C190.514 208.35 190.955 200.237 190.651 192.047C193.047 192.346 195.346 193.076 197.677 193.646C200.59 194.36 203.557 194.885 206.402 195.878C206.268 196.172 206.11 196.455 206.009 196.758C202.246 208.132 199.773 219.745 199.567 231.778C199.469 237.336 199.7 242.874 200.914 248.311C202.464 255.249 205.062 261.812 208.458 268.057C209.999 270.894 211.8 273.57 214.196 275.774C215.9 277.345 217.737 278.721 220.222 278.737C220.307 280.231 220.076 281.704 219.951 283.181C219.611 287.096 219.275 291.016 218.919 294.931C218.542 299.085 218.142 303.238 217.765 307.392C217.417 311.226 217.093 315.065 216.741 318.899C216.369 322.932 215.964 326.964 215.6 331.001C215.248 334.916 214.941 338.835 214.584 342.751C214.123 347.824 213.637 352.894 213.16 357.968C212.634 357.98 212.112 358 211.586 358C167.285 358 122.984 358 78.683 358C78.1609 358 77.6348 357.976 77.1128 357.964L77.1168 357.96Z" fill="#FEFEF6"/>
<path d="M220.226 278.733C217.737 278.717 215.904 277.336 214.2 275.77C211.804 273.566 210.003 270.89 208.462 268.053C205.066 261.808 202.468 255.245 200.918 248.307C199.704 242.869 199.478 237.332 199.571 231.773C199.777 219.741 202.246 208.132 206.013 196.753C206.114 196.451 206.272 196.168 206.406 195.874C209.542 196.406 212.585 197.339 215.669 198.073C220.477 199.224 225.353 200.16 230.043 201.722C239.048 204.717 246.542 209.981 252.665 217.218C258.404 224.003 262.038 231.781 263.717 240.468C264.288 243.418 264.559 246.413 264.559 249.433C264.543 277.562 264.47 305.696 264.595 333.826C264.632 341.879 263.754 349.976 265.283 357.992C248.675 357.992 232.071 357.992 215.463 357.992C214.698 357.992 213.933 357.976 213.164 357.968C213.642 352.894 214.127 347.824 214.589 342.75C214.945 338.835 215.252 334.916 215.604 331C215.968 326.964 216.373 322.936 216.745 318.899C217.098 315.065 217.421 311.226 217.769 307.391C218.146 303.238 218.546 299.085 218.923 294.931C219.279 291.016 219.615 287.1 219.955 283.181C220.084 281.704 220.311 280.23 220.226 278.741C220.477 278.668 220.452 278.454 220.481 278.261C220.873 275.48 221.302 272.699 221.658 269.913C222.334 264.654 222.901 259.382 223.641 254.135C224.609 247.285 225.43 240.427 225.584 233.509C225.62 231.959 225.738 230.405 225.483 228.572C225.288 229.142 225.159 229.428 225.094 229.731C223.678 236.5 222.852 243.35 222.35 250.244C222.002 255.015 221.594 259.782 221.238 264.549C220.881 269.28 220.558 274.01 220.222 278.741L220.226 278.733Z" fill="#F78D81"/>
<path d="M96.906 147.412C97.1326 150.799 97.4321 154.177 98.1848 157.499C97.5252 157.612 96.9262 158.512 96.3759 158.141C95.0971 157.277 93.6159 156.64 92.7216 155.243C92.3493 154.658 92.325 154.367 92.8956 153.887C94.4374 152.595 95.7081 151.077 96.4123 149.144C95.9793 148.922 95.7243 149.209 95.4572 149.338C93.3893 150.367 91.8434 151.986 90.4351 153.77C90.0061 154.311 90.0345 154.609 90.6455 154.932C92.3573 155.836 93.6928 157.116 94.6195 158.839C94.8947 159.348 95.4451 159.703 95.8538 160.143C96.2747 160.599 96.6187 160.632 96.9667 160.05C97.3957 159.332 97.8651 158.638 98.3183 157.931C98.5207 158.496 98.7149 159.065 98.9294 159.627C101.046 165.169 105.332 167.946 110.953 169.048C113.336 169.516 115.744 169.588 118.156 169.645C118.172 174.024 118.184 178.404 118.201 182.787C113.033 184.269 107.865 185.75 102.697 187.232C102.474 187.296 102.232 187.502 102.029 187.284C101.815 187.05 101.932 186.727 102.029 186.489C102.139 186.198 102.357 185.944 102.551 185.694C104.247 183.498 105.979 181.33 107.642 179.11C109.148 177.1 109.03 174.783 107.42 172.931C105.477 170.698 102.353 170.795 100.564 173.14C98.0796 176.402 95.6029 179.671 93.0979 182.917C91.7584 184.648 91.4387 186.796 90.605 188.733C90.2894 189.46 90.2125 190.291 89.65 190.913C86.1859 191.906 82.7258 192.899 79.2617 193.892C79.7393 190.8 80.237 187.712 80.6943 184.616C81.4592 179.453 82.2159 174.291 82.9484 169.128C83.7497 163.485 84.5388 157.842 85.2875 152.191C85.9229 147.412 86.5096 142.629 87.0803 137.846C87.4121 135.069 87.6792 132.28 87.9746 129.499C87.8734 130.06 87.6104 130.568 87.493 131.109C85.4534 140.401 84.1058 149.814 82.6206 159.207C81.3094 167.502 79.5652 175.695 76.7648 183.631C75.2715 187.869 73.6123 192.043 71.253 195.894C71.2206 195.869 71.1882 195.841 71.1599 195.813C72.3375 192.108 73.6447 188.442 74.6645 184.685C77.1978 175.356 79.4519 165.96 81.6656 156.551C82.8068 151.707 84.0289 146.884 84.644 141.935C85.2065 137.394 85.6719 132.841 86.279 128.308C86.8536 124.013 87.4323 119.71 88.2255 115.452C89.3181 109.619 90.0992 103.722 91.5723 97.9663C93.2072 91.5807 96.04 85.8329 100.981 81.2919C105.441 77.195 110.775 74.7206 116.562 73.1464C124.558 70.9749 132.729 70.1393 140.976 70.5389C148.418 70.8982 154.796 74.0183 160.3 78.9589C166.909 84.8924 171.316 92.3436 174.905 100.324C179.421 110.37 182.307 120.929 184.565 131.67C186.119 139.057 187.272 146.512 188.179 154.004C188.725 158.545 189.126 163.11 189.506 167.671C190.141 175.292 190.396 182.925 190.603 190.562C190.615 191.026 190.757 191.538 190.356 191.938C183.298 190.198 176.241 188.451 169.179 186.719C163.444 185.31 157.71 183.902 151.968 182.533C151.191 182.347 150.976 182.012 150.976 181.229C151.004 171.732 151 162.234 150.984 152.736C150.984 152.107 151.118 151.566 151.45 151.033C152.647 149.124 153.606 147.093 154.388 144.982C154.764 145.265 155.12 145.584 155.525 145.826C156.249 146.258 156.763 147.065 157.73 147.065L157.698 147.033C158.066 147.481 158.086 147.509 158.548 147.206C160.591 145.866 162.493 144.345 164.286 142.686C164.675 142.326 164.671 142.084 164.298 141.729C163.493 140.962 162.716 140.155 161.931 139.368C167.795 137.358 171.243 133.309 172.267 127.202C173.566 119.44 168.147 111.827 160.405 110.334C157.152 109.704 153.914 109.89 151 111.472C148.455 112.857 145.752 113.462 142.971 113.866C135.448 114.96 128.192 114.257 121.446 110.431C116.42 107.581 112.551 103.569 109.565 98.6687C109.237 98.1278 109.022 97.5143 108.533 97.0743L108.549 97.0864C108.581 96.7917 108.419 96.6505 108.16 96.5818H108.172C108.193 96.5092 108.172 96.4527 108.116 96.4123C108.156 96.3518 108.241 96.2589 108.225 96.2347C108.136 96.1015 108.035 96.1136 107.958 96.2589C107.395 96.4446 107.529 96.9936 107.42 97.377C105.999 102.293 103.551 106.519 99.2937 109.543C98.9335 109.797 98.5774 110.132 98.1727 110.237C96.2949 110.717 96.3395 112.053 96.3354 113.628C96.3354 121.458 96.7967 129.277 96.6551 137.107C96.2626 136.474 95.8943 136.304 95.1699 136.829C93.4379 138.092 92.2197 139.723 91.1918 141.568C90.7143 142.419 90.6334 142.92 91.5925 143.493C92.1752 143.84 92.5556 144.547 92.9967 145.116C93.9923 146.403 95.2468 147.239 96.8979 147.408L96.906 147.412ZM158.034 159.558C158.175 159.485 158.325 159.429 158.455 159.344C160.551 157.988 162.506 156.458 164.31 154.73C164.727 154.331 164.582 154.089 164.254 153.758C162.441 151.929 160.523 150.218 158.459 148.672C158.115 148.413 157.884 148.312 157.593 148.74C156.209 150.771 154.258 152.2 152.312 153.624C151.789 154.008 151.668 154.25 152.154 154.791C153.72 156.547 155.517 158.008 157.491 159.267C157.657 159.372 157.844 159.453 158.038 159.554L158.034 159.558Z" fill="#27211E"/>
<path d="M49.9342 95.2056C50.3753 97.3489 50.691 99.4842 51.2454 101.587C52.1074 104.869 54.1753 106.863 57.4209 107.69C59.1732 108.138 60.9457 108.518 62.7546 108.679C63.0743 108.707 63.3981 108.728 63.7016 109.022C62.1557 109.301 60.6543 109.571 59.1529 109.846C53.0139 110.976 51.7229 113.535 50.6586 118.823C50.4158 120.038 50.262 121.269 49.8492 122.524C49.6388 121.313 49.4486 120.102 49.2179 118.899C47.9836 112.469 46.0573 110.633 39.4974 109.603C38.3926 109.43 37.2959 109.236 36.0737 109.03C37.0369 108.51 38.0405 108.671 38.9591 108.441C40.1691 108.138 41.4075 107.961 42.6134 107.65C45.94 106.794 47.9108 104.623 48.7161 101.325C49.2058 99.3106 49.5902 97.2762 49.9261 95.2096L49.9342 95.2056Z" fill="#FDFCF3"/>
<path d="M254.673 134.145C253.224 134.399 251.767 134.597 250.334 134.92C244.491 136.231 242.702 138.165 241.755 144.094C241.561 145.305 241.371 146.512 240.998 147.747C240.784 146.5 240.59 145.253 240.347 144.014C240.161 143.073 239.938 142.137 239.695 141.208C238.712 137.402 235.944 135.695 232.318 135.012C230.703 134.71 229.08 134.431 227.288 134.108C228.158 133.616 229.016 133.785 229.785 133.584C230.946 133.273 232.148 133.099 233.326 132.849C237.348 131.985 239.355 129.289 240.084 125.434C240.391 123.795 240.687 122.156 241.148 120.514C241.427 122.052 241.694 123.593 241.99 125.131C242.925 130.04 244.989 132.122 249.914 133.107C251.488 133.422 253.07 133.68 254.648 133.963C254.656 134.028 254.661 134.092 254.669 134.153L254.673 134.145Z" fill="#FDFCF3"/>
<path d="M221.889 177.685C221.537 175.905 221.242 174.17 220.76 172.466C220.113 170.178 218.66 168.733 216.381 168.071C214.637 167.562 212.857 167.267 210.821 167.045C212.691 166.521 214.415 166.42 216.066 165.964C218.538 165.281 220.137 163.812 220.797 161.318C221.25 159.61 221.582 157.891 221.853 156.115C222.112 157.523 222.371 158.936 222.63 160.349C223.221 163.606 225.131 165.56 228.401 166.173C229.821 166.44 231.246 166.694 232.678 167.013C231.169 167.199 229.692 167.534 228.206 167.824C224.997 168.45 223.249 170.456 222.638 173.56C222.367 174.932 222.136 176.309 221.885 177.685H221.889Z" fill="#FDFCF3"/>
<path d="M71.2894 196.148C71.2003 196.208 71.1154 196.273 71.0263 196.334C71.0142 196.144 70.9778 195.95 71.168 195.817C71.1963 195.845 71.2287 195.869 71.261 195.898C71.2691 195.978 71.2813 196.063 71.2894 196.144V196.148Z" fill="#27211E"/>
<path d="M118.205 182.795C118.188 178.416 118.176 174.032 118.16 169.653C121.624 169.6 125.056 169.282 128.411 168.349C134.04 166.787 139.123 164.208 143.546 160.373C144.805 159.283 145.748 159.142 146.913 159.949C147.84 160.591 148.042 161.729 147.528 163.102C145.752 167.845 143.113 172.014 139.349 175.449C135.432 179.025 130.782 181.1 125.631 182.097C123.19 182.569 120.714 182.884 118.209 182.791L118.205 182.795Z" fill="#E85748"/>
<path d="M85.0082 309.914C82.6853 310.411 80.3988 310.818 78.1164 311.319C73.6244 312.308 71.2206 315.194 70.3019 319.513C69.8568 321.591 69.4764 323.682 69.2336 325.955C68.6265 324.998 68.7682 324.017 68.6063 323.125C68.2218 321.03 67.8495 318.94 67.1049 316.933C65.8059 313.438 62.9407 311.965 59.5899 311.182C57.4774 310.685 55.3326 310.326 52.9409 310.08C54.0214 309.539 55.0331 309.672 55.9599 309.454C57.522 309.083 59.1164 308.832 60.6745 308.445C64.3247 307.529 66.6071 305.204 67.5865 301.587C68.153 299.492 68.5456 297.365 68.8127 295.21C68.8612 294.81 68.9179 294.422 69.2133 293.966C69.5168 296.053 69.8123 298.039 70.2453 300.001C71.4917 305.64 73.8308 307.912 79.5733 308.958C81.3822 309.289 83.1952 309.599 85.0082 309.918V309.914Z" fill="#FDFCF3"/>
<path d="M110.362 213.888C111.835 210.239 113.446 206.651 115.186 203.123C115.611 202.267 116.21 201.484 116.788 200.717C117.731 199.47 117.78 198.949 116.926 197.637C114.963 194.634 110.451 194.642 108.541 197.658C108.456 197.791 108.379 197.94 108.347 198.089C107.359 202.707 104.243 206.219 102.005 210.183C101.977 210.231 101.876 210.239 101.799 210.271C101.653 209.835 101.924 209.48 102.058 209.125C102.972 206.727 103.919 204.342 104.85 201.952C105.502 200.289 106.372 198.76 107.63 197.476C107.974 197.125 108.1 196.81 107.958 196.301C107.197 193.629 104.895 192.031 102.127 192.269C101.39 192.334 100.953 192.616 100.791 193.375C100.358 195.401 99.4637 197.254 98.3711 198.994C96.4084 202.13 94.3809 205.226 92.3777 208.338C92.2522 208.532 92.0944 208.709 91.9366 208.915C91.6412 208.455 91.9811 208.152 92.1147 207.866C93.6929 204.439 95.2955 201.02 96.9061 197.605C97.5455 196.253 98.3266 194.973 99.3383 193.875C100.285 192.85 101.091 191.801 101.066 190.352C101.475 190.327 101.362 190.553 101.337 190.666C101.123 191.627 101.398 191.853 102.426 191.712C105.445 191.304 107.517 192.745 108.901 195.405C110.487 194.295 112.179 193.706 114.13 194.093C115.959 194.457 117.452 195.32 118.439 196.915C118.792 197.488 119.051 197.637 119.759 197.391C122.49 196.443 124.983 197.008 126.95 199.103C128.868 201.145 129.22 203.623 128.055 206.154C126.776 208.931 124.951 211.414 123.437 214.066C123.336 214.239 123.239 214.417 123.118 214.578C120.681 217.84 119.564 221.545 118.885 225.537C117.768 232.092 116.537 238.643 114.85 245.089C114.753 245.465 114.72 245.856 114.194 246.284C114.83 242.934 115.174 239.773 115.643 236.629C116.477 231.071 117.181 225.497 118.184 219.967C118.318 219.24 118.545 218.582 118.917 217.949C121.284 213.932 123.656 209.916 126.003 205.884C127.258 203.728 126.869 201.448 125.036 199.918C123.166 198.356 120.726 198.356 118.848 199.918C118.569 200.148 118.314 200.366 118.217 200.762C117.683 202.941 116.57 204.846 115.331 206.687C113.701 209.117 112.3 211.704 110.495 214.017C110.451 213.969 110.406 213.924 110.358 213.88L110.362 213.888Z" fill="#2E2423"/>
<path d="M29.3357 320.784C30.7804 317.737 32.5529 314.863 34.2243 311.941C47.8015 288.206 61.8643 264.759 76.4492 241.63C78.4807 238.405 79.112 235.011 79.7474 231.479C80.6579 226.429 81.5846 221.388 82.742 216.375C82.1836 220.839 81.6332 225.307 81.0626 229.771C80.7227 232.439 80.3301 235.099 79.9983 237.767C79.9295 238.304 79.7595 238.777 79.4924 239.233C63.6085 266.374 47.3523 293.284 30.2907 319.707C30.0358 320.102 29.8658 320.579 29.4207 320.837L29.3357 320.78V320.784Z" fill="#2E2423"/>
<path d="M71.2893 196.148C71.2812 196.067 71.2691 195.982 71.261 195.902C73.6243 192.047 75.2795 187.873 76.7728 183.639C79.5732 175.704 81.3174 167.51 82.6286 159.215C84.1138 149.826 85.4614 140.413 87.501 131.117C87.6184 130.576 87.8855 130.068 87.9826 129.507C87.6872 132.288 87.4201 135.077 87.0882 137.854C86.5136 142.637 85.9268 147.424 85.2955 152.2C84.5468 157.851 83.7536 163.493 82.9564 169.136C82.2239 174.303 81.4672 179.465 80.7023 184.624C80.245 187.72 79.7473 190.808 79.2697 193.9L79.3061 193.952L79.2616 194.001C76.6028 194.715 73.9481 195.429 71.2893 196.148Z" fill="#E1D7CE"/>
<path d="M79.2617 194.001L79.3062 193.952L79.2698 193.9C82.7339 192.907 86.194 191.914 89.6581 190.921C89.3182 193 88.3671 194.881 87.7116 196.858C86.5258 200.443 84.9718 203.906 84.037 207.563C83.5433 209.492 83.3733 211.507 82.9848 213.488C82.2402 206.893 81.1192 200.374 79.2617 194.001Z" fill="#FDFCF3"/>
<path d="M108.185 96.5819H108.172C108.367 96.699 108.221 97.0784 108.561 97.0865L108.545 97.0744C108.314 97.9503 108.792 98.701 109.022 99.4801C110.588 104.776 112.806 109.745 116.736 113.753C121.001 118.104 126.238 119.892 132.304 119.404C138.759 118.887 144.465 116.219 150.11 113.353C151.433 112.679 152.749 111.989 154.068 111.303C154.112 111.359 154.157 111.416 154.201 111.468C148.119 116.102 141.587 119.868 133.927 121.127C125.578 122.504 117.679 119.485 112.6 111.133C110.07 106.976 108.8 102.394 108.083 97.6354C108.031 97.2883 107.994 96.9089 108.185 96.5698V96.5819Z" fill="#2E2423"/>
<path d="M113.652 141.027C112.373 141.919 111.143 142.887 109.807 143.687C108.48 144.482 106.813 143.275 106.849 141.503C106.906 138.492 107.096 135.481 107.209 132.469C107.343 128.861 107.651 125.24 106.833 121.668C106.675 120.974 106.428 120.271 106.092 119.646C105.356 118.265 104.065 118.16 103.09 119.375C102.717 119.839 102.426 120.376 102.143 120.905C101.88 121.393 101.681 121.91 101.386 122.399C101.455 121.139 101.681 119.908 102.361 118.826C103.486 117.034 105.485 116.824 106.946 118.374C108.407 119.92 108.755 121.93 109.01 123.924C109.714 129.438 109.059 134.915 108.444 140.389C108.407 140.708 108.343 141.027 108.338 141.345C108.326 142.532 108.852 142.879 109.905 142.391C111.09 141.838 112.276 141.273 113.458 140.712C113.523 140.817 113.591 140.926 113.656 141.031L113.652 141.027Z" fill="#2E2423"/>
<path d="M161.939 139.376C162.728 140.167 163.501 140.97 164.306 141.737C164.683 142.092 164.683 142.334 164.294 142.694C162.501 144.357 160.599 145.874 158.556 147.214C158.094 147.517 158.078 147.489 157.706 147.041C158.24 147.255 158.386 146.787 158.604 146.5C159.11 145.834 159.572 145.136 160.069 144.466C161.302 142.795 161.111 141.251 159.495 139.836C159.098 139.295 158.706 138.754 158.309 138.217C158.094 137.923 157.819 137.761 157.516 138.056C156.88 138.677 156.039 139.125 155.755 140.054L155.763 140.046C153.938 141.228 153.76 141.987 155.023 143.174C155.942 144.466 157.067 145.612 157.746 147.069C156.779 147.069 156.265 146.262 155.541 145.83C155.136 145.588 154.78 145.269 154.404 144.986C153.643 144.211 152.894 143.432 152.121 142.669C151.713 142.266 151.745 141.963 152.21 141.62C154.218 140.143 156.229 138.665 157.67 136.574C158.022 136.062 158.293 136.482 158.548 136.679C159.685 137.567 160.814 138.472 161.943 139.372L161.939 139.376Z" fill="#FDFCF3"/>
<path d="M98.3224 157.939C97.8692 158.646 97.3998 159.34 96.9708 160.058C96.6228 160.64 96.2788 160.607 95.8579 160.151C95.4492 159.711 94.8947 159.356 94.6236 158.847C93.6969 157.124 92.3574 155.844 90.6496 154.94C90.0385 154.617 90.0142 154.319 90.4392 153.778C91.8475 151.994 93.3934 150.375 95.4613 149.346C95.7243 149.212 95.9793 148.93 96.4164 149.152C95.7122 151.085 94.4415 152.603 92.8997 153.895C92.3291 154.375 92.3493 154.666 92.7256 155.251C93.616 156.648 95.0971 157.285 96.3799 158.149C96.9303 158.52 97.5333 157.62 98.1889 157.507C98.2334 157.653 98.2779 157.798 98.3265 157.943L98.3224 157.939Z" fill="#FDFCF3"/>
<path d="M96.906 147.412C95.2549 147.239 94.0003 146.403 93.0048 145.12C92.5637 144.551 92.1833 143.844 91.6006 143.497C90.6415 142.928 90.7224 142.427 91.1999 141.572C92.2278 139.727 93.446 138.096 95.178 136.833C95.9024 136.304 96.2707 136.474 96.6632 137.111C96.6632 137.313 96.6632 137.515 96.6632 137.717C96.1857 137.596 96.0602 137.943 95.8822 138.27C95.0809 139.78 94.0044 141.083 92.6082 142.052C91.6127 142.746 91.9567 143.118 92.7742 143.465C94.5588 144.22 95.9752 145.378 96.906 147.093C96.906 147.198 96.906 147.307 96.9019 147.412H96.906Z" fill="#FDFCF3"/>
<path d="M96.91 147.094C95.9792 145.378 94.5628 144.224 92.7782 143.465C91.9607 143.118 91.6127 142.742 92.6123 142.052C94.0084 141.083 95.0849 139.776 95.8862 138.27C96.0602 137.943 96.1856 137.596 96.6672 137.717C96.7481 140.841 96.8331 143.969 96.9141 147.094H96.91Z" fill="#2E2423"/>
<path d="M154.064 111.307C154.173 111.133 154.295 110.984 154.513 111.173C154.408 111.274 154.303 111.375 154.198 111.476C154.153 111.424 154.104 111.367 154.064 111.311V111.307Z" fill="#2E2423"/>
<path d="M29.4207 320.841L29.2183 321.212C29.186 321.188 29.1293 321.172 29.1252 321.143C29.105 320.974 29.1617 320.845 29.3357 320.784L29.4207 320.841Z" fill="#2E2423"/>
<path d="M110.503 214.025C110.475 214.122 110.447 214.243 110.317 214.158C110.285 214.138 110.35 213.981 110.366 213.888C110.414 213.932 110.459 213.977 110.503 214.025Z" fill="#2E2423"/>
<path d="M220.226 278.733C220.562 274.002 220.889 269.267 221.242 264.541C221.598 259.77 222.006 255.007 222.354 250.236C222.856 243.342 223.682 236.492 225.098 229.723C225.163 229.42 225.292 229.133 225.487 228.564C225.742 230.397 225.624 231.955 225.588 233.501C225.434 240.423 224.613 247.281 223.645 254.127C222.905 259.374 222.338 264.65 221.662 269.905C221.306 272.69 220.877 275.471 220.485 278.252C220.456 278.446 220.485 278.66 220.23 278.733H220.226Z" fill="#2E2423"/>
<path d="M158.034 159.558C157.84 159.457 157.657 159.376 157.487 159.271C155.513 158.012 153.712 156.551 152.15 154.795C151.664 154.254 151.785 154.012 152.307 153.628C154.254 152.203 156.205 150.775 157.589 148.744C157.88 148.312 158.111 148.417 158.455 148.676C160.519 150.222 162.433 151.933 164.25 153.762C164.578 154.092 164.723 154.335 164.306 154.734C162.501 156.462 160.547 157.992 158.451 159.348C158.321 159.433 158.171 159.489 158.03 159.562L158.034 159.558ZM158.026 159.291C159.215 157.713 160.304 156.224 161.449 154.783C161.797 154.343 161.648 154.125 161.344 153.79C160.328 152.656 159.333 151.501 158.349 150.339C158.054 149.987 157.844 149.802 157.398 150.197C156.225 151.247 155.197 152.417 154.25 153.665C154.044 153.935 153.914 154.165 154.242 154.484C155.679 155.893 156.743 157.6 158.022 159.291H158.026Z" fill="#FDFCF3"/>
<path d="M108.561 97.0905C108.221 97.0824 108.367 96.703 108.172 96.5859C108.431 96.6546 108.597 96.7958 108.561 97.0905Z" fill="#F78D80"/>
<path d="M107.966 96.263C108.043 96.1177 108.144 96.1056 108.233 96.2388C108.249 96.263 108.164 96.3558 108.124 96.4164C108.071 96.3639 108.019 96.3155 107.966 96.263Z" fill="#F78D80"/>
<path d="M159.495 139.84C161.114 141.258 161.305 142.801 160.069 144.47C159.572 145.144 159.11 145.838 158.604 146.504C158.39 146.787 158.24 147.259 157.706 147.045L157.738 147.077C157.059 145.62 155.934 144.474 155.015 143.182C155.262 142.141 155.509 141.095 155.755 140.054L155.747 140.062C156.998 140.017 158.269 140.328 159.491 139.84H159.495Z" fill="#2E2423"/>
<path d="M159.495 139.84C158.273 140.328 157.002 140.018 155.751 140.062C156.035 139.13 156.881 138.686 157.512 138.064C157.815 137.769 158.091 137.931 158.305 138.226C158.702 138.766 159.094 139.303 159.491 139.844L159.495 139.84Z" fill="#F78D80"/>
<path d="M155.759 140.054C155.513 141.095 155.266 142.141 155.019 143.182C153.756 141.995 153.934 141.237 155.759 140.054Z" fill="#F78D80"/>
<path d="M158.026 159.291C156.747 157.6 155.683 155.893 154.246 154.484C153.918 154.165 154.048 153.935 154.254 153.665C155.201 152.413 156.229 151.247 157.402 150.197C157.848 149.802 158.058 149.983 158.353 150.339C159.337 151.501 160.328 152.656 161.348 153.79C161.652 154.129 161.801 154.347 161.453 154.783C160.308 156.228 159.219 157.713 158.03 159.291H158.026Z" fill="#2E2423"/>
</svg>
