<svg width="200" height="200" viewBox="0 0 200 200" fill="none" xmlns="http://www.w3.org/2000/svg">
<mask id="mask0_128_1918" style="mask-type:luminance" maskUnits="userSpaceOnUse" x="5" y="47" width="190" height="107">
<path d="M5.42261 47H194.583V153.927H5.42261V47Z" fill="white"/>
</mask>
<g mask="url(#mask0_128_1918)">
<path d="M45.7533 142.72C48.6033 143.437 50.3396 144.045 51.3187 145.213C52.3234 146.411 52.6218 148.307 52.8475 151.616L53.004 153.883L53.5427 151.663C54.329 148.449 54.9441 146.636 56.138 145.628C57.3356 144.62 59.2283 144.321 62.5261 144.092L62.679 144.081C64.0476 144.117 65.4854 144.136 66.9487 144.136C79.9069 144.136 93.5712 142.745 107.556 140.004C132.624 135.087 155.403 126.391 171.699 115.515C188.079 104.577 195.963 92.7213 193.895 82.1291C191.832 71.5441 180.075 63.5399 160.79 59.5942C157.627 58.9499 154.293 58.4185 150.875 58.0181L150.616 57.9598C147.384 57.2828 145.557 56.7223 144.512 55.5611C143.468 54.3963 143.104 52.5108 142.769 49.2058L142.521 47.0327L142.074 49.1876C141.396 52.4235 140.84 54.258 139.678 55.3063C138.554 56.3219 136.73 56.6895 133.76 57.0134C120.518 56.9334 106.526 58.3238 92.1698 61.1411C67.1015 66.0551 44.3228 74.7509 28.0267 85.6344C11.647 96.5688 3.76283 108.42 5.82668 119.013C7.89053 129.601 19.6476 137.606 38.932 141.548C41.156 142.003 43.4455 142.396 45.7496 142.723L45.7533 142.72ZM132.715 57.7305C132.894 57.7305 133.068 57.7305 133.239 57.7342L133.323 57.7487C136.552 58.4294 138.383 58.9863 139.431 60.1511C140.476 61.3195 140.836 63.205 141.167 66.5028L141.4 68.7486L141.866 66.5246C142.543 63.2887 143.1 61.4542 144.257 60.4059C145.404 59.3758 147.286 59.0009 150.362 58.6842C162.261 60.0382 172.442 62.8483 179.809 66.8122C187.507 70.9544 192.014 76.1523 193.207 82.2674C195.213 92.5575 187.438 104.158 171.31 114.925C155.09 125.754 132.402 134.413 107.421 139.313C92.0024 142.337 76.4635 143.739 62.4824 143.375C59.3339 142.6 57.554 141.984 56.553 140.794C55.5483 139.593 55.2462 137.697 55.0206 134.388L54.8458 132.207L54.329 134.344C53.5427 137.558 52.9239 139.375 51.73 140.379C50.5325 141.391 48.6397 141.69 45.3419 141.912L45.1672 141.926C43.1325 141.628 41.0832 141.267 39.0739 140.86C20.088 136.976 8.52388 129.172 6.51463 118.878C5.50636 113.684 6.9769 108.158 10.8935 102.444C14.6936 96.9073 20.6121 91.4328 28.489 86.184C44.7231 75.3661 67.3818 66.7175 92.3045 61.8327C106.169 59.1137 119.764 57.7305 132.715 57.7305ZM143.788 59.8817C142.732 60.8354 142.15 62.2841 141.629 64.3843C141.324 62.2368 140.894 60.7335 139.948 59.6815C138.987 58.6041 137.502 58.0217 135.452 57.5121C135.616 57.4903 135.773 57.4648 135.926 57.4393C138.026 57.1081 139.249 56.6385 140.152 55.8268C141.207 54.8768 141.79 53.4245 142.31 51.3242C142.612 53.4718 143.042 54.9751 143.988 56.0307C144.825 56.9625 146.07 57.574 148.291 58.1455C148.356 58.1637 148.418 58.1782 148.483 58.1964C146.398 58.4913 144.865 58.9062 143.784 59.8781L143.788 59.8817ZM52.185 140.914C53.2697 140.001 53.9031 138.574 54.4964 136.488C54.7257 138.643 55.1043 140.157 56.0179 141.245C56.9424 142.352 58.4021 142.982 60.4332 143.56C60.3422 143.571 60.2512 143.582 60.1638 143.593C57.9361 143.852 56.6403 144.285 55.6867 145.086C54.602 146.007 53.9686 147.433 53.3789 149.519C53.146 147.364 52.7674 145.846 51.8538 144.758C51.0858 143.844 49.9792 143.226 48.0246 142.618C47.8353 142.556 47.6387 142.501 47.4422 142.443C49.5861 142.214 51.0894 141.842 52.1887 140.914H52.185Z" fill="#222222"/>
</g>
<path d="M14.5015 57.7051V121.375H0V57.7051H14.5015Z" fill="#222222"/>
<path d="M17.7461 121.375V81.7869H31.4032V85.951H31.5633C35.105 82.4094 38.8869 80.6367 42.9054 80.6367C44.8564 80.6367 46.7965 80.8952 48.7293 81.4084C50.6585 81.9253 52.5076 82.7188 54.2766 83.7962C56.0529 84.8736 57.4943 86.4024 58.6009 88.3825C59.7074 90.3627 60.2607 92.6704 60.2607 95.2984V121.375H46.6036V98.9966C46.6036 96.94 45.9484 95.1383 44.638 93.5949C43.3276 92.0516 41.6169 91.2799 39.513 91.2799C37.4528 91.2799 35.5855 92.0807 33.9075 93.6823C32.2367 95.2766 31.4032 97.0456 31.4032 98.9966V121.375H17.7461Z" fill="#222222"/>
<path d="M60.9529 131.101L72.1494 125.626C74.206 129.012 77.7767 130.708 82.8654 130.708C85.2314 130.708 87.4299 129.951 89.461 128.437C91.4993 126.922 92.5185 124.593 92.5185 121.448V118.521C90.1016 121.2 85.7773 122.54 79.5458 122.54C73.8383 122.54 69.1282 120.523 65.4228 116.483C61.7246 112.435 59.8755 107.481 59.8755 101.617C59.8755 95.7571 61.7246 90.7958 65.4228 86.7373C69.1282 82.6714 73.8383 80.6367 79.5458 80.6367C84.6417 80.6367 88.8859 82.2055 92.2856 85.3395H92.5185V81.7869H106.176V122.452C106.176 128.888 104.039 133.853 99.7693 137.347C95.496 140.849 89.8614 142.603 82.8654 142.603C71.5452 142.603 64.2434 138.767 60.9529 131.101ZM77.0415 94.9053C75.2652 96.6525 74.377 98.8911 74.377 101.617C74.377 104.347 75.2251 106.575 76.925 108.3C78.6212 110.018 80.8598 110.877 83.6371 110.877C86.3161 110.877 88.5146 110.004 90.2326 108.257C91.958 106.509 92.8243 104.296 92.8243 101.617C92.8243 98.8911 91.9361 96.6525 90.1598 94.9053C88.3836 93.1581 86.2069 92.2845 83.6371 92.2845C81.0163 92.2845 78.8178 93.1581 77.0415 94.9053Z" fill="#222222"/>
<path d="M109.41 121.375V81.7869H123.067V87.4944H123.227C123.322 87.2905 123.489 87.0357 123.722 86.7227C123.955 86.4133 124.454 85.8746 125.222 85.1066C125.997 84.3313 126.824 83.636 127.697 83.0245C128.571 82.4057 129.699 81.8525 131.09 81.3647C132.476 80.8806 133.892 80.6367 135.341 80.6367C136.834 80.6367 138.3 80.8406 139.738 81.2482C141.172 81.6559 142.228 82.0709 142.898 82.4858L143.975 83.0973L138.268 94.6724C136.568 93.2382 134.205 92.5175 131.177 92.5175C129.524 92.5175 128.109 92.8779 126.926 93.5949C125.739 94.3156 124.905 95.1892 124.421 96.2157C123.934 97.2458 123.584 98.123 123.373 98.851C123.169 99.5717 123.067 100.132 123.067 100.54V121.375H109.41Z" fill="#222222"/>
<path d="M181.87 103.466H153.158C153.158 106.255 154.054 108.315 155.852 109.654C157.657 110.987 159.612 111.649 161.72 111.649C163.933 111.649 165.68 111.354 166.961 110.761C168.25 110.171 169.72 108.999 171.373 107.252L181.244 112.188C177.127 119.089 170.288 122.54 160.73 122.54C154.76 122.54 149.639 120.498 145.369 116.41C141.096 112.315 138.963 107.39 138.963 101.632C138.963 95.8663 141.096 90.9268 145.369 86.8101C149.639 82.6969 154.76 80.6367 160.73 80.6367C166.998 80.6367 172.101 82.4531 176.032 86.0821C179.97 89.7038 181.943 94.8835 181.943 101.617C181.943 102.549 181.918 103.168 181.87 103.466ZM153.552 95.9099H168.592C168.279 93.8534 167.471 92.27 166.16 91.1634C164.85 90.0569 163.165 89.5036 161.108 89.5036C158.844 89.5036 157.046 90.0969 155.706 91.2799C154.367 92.4665 153.646 94.0099 153.552 95.9099Z" fill="#222222"/>
<path d="M191.119 104.864C193.594 104.864 195.69 105.731 197.408 107.456C199.134 109.174 200 111.267 200 113.731C200 116.148 199.134 118.223 197.408 119.948C195.69 121.674 193.594 122.54 191.119 122.54C188.702 122.54 186.627 121.674 184.902 119.948C183.183 118.223 182.324 116.148 182.324 113.731C182.324 111.267 183.183 109.174 184.902 107.456C186.627 105.731 188.702 104.864 191.119 104.864Z" fill="#222222"/>
<mask id="mask1_128_1918" style="mask-type:luminance" maskUnits="userSpaceOnUse" x="55" y="71" width="60" height="61">
<path d="M55.3481 71.5696H114.053V131.625H55.3481V71.5696Z" fill="white"/>
</mask>
<g mask="url(#mask1_128_1918)">
<path d="M113.809 101.126H105.186C90.4263 97.9337 87.1431 94.6396 83.9509 79.8577V71.5696H82.8589V79.9451C79.6739 94.6505 76.3725 97.9374 61.6453 101.126H55.3518V102.218H61.6453C76.3725 105.403 79.6739 108.69 82.8589 123.399V131.618H83.9509V123.486C87.1431 108.704 90.4263 105.41 105.186 102.218H113.809V101.126Z" fill="#F5F1EE"/>
</g>
</svg>
