<svg width="30" height="30" viewBox="0 0 30 30" fill="none" xmlns="http://www.w3.org/2000/svg">
<path d="M24.575 4.98749C21.275 2.73749 17.2 3.78749 15 6.36249C12.8 3.78749 8.72502 2.72499 5.42502 4.98749C3.67502 6.18749 2.57502 8.21249 2.50002 10.35C2.32502 15.2 6.62502 19.0875 13.1875 25.05L13.3125 25.1625C14.2625 26.025 15.725 26.025 16.675 25.15L16.8125 25.025C23.375 19.075 27.6625 15.1875 27.5 10.3375C27.425 8.21249 26.325 6.18749 24.575 4.98749ZM15.125 23.1875L15 23.3125L14.875 23.1875C8.92502 17.8 5.00002 14.2375 5.00002 10.625C5.00002 8.12499 6.87502 6.24999 9.37502 6.24999C11.3 6.24999 13.1248 7.49994 13.8375 9.19999C13.8375 9.19999 14.2526 9.99994 14.9998 9.99994C15.7469 9.99994 16.175 9.19999 16.175 9.19999C16.825 7.48749 18.7 6.24999 20.625 6.24999C23.125 6.24999 25 8.12499 25 10.625C25 14.2375 21.075 17.8 15.125 23.1875Z" fill="#222222"/>
</svg>
