<svg width="26" height="28" viewBox="0 0 26 28" fill="none" xmlns="http://www.w3.org/2000/svg">
<path d="M2.60375 9.215C2.03597 10.7463 1.74683 12.3668 1.75 14C1.75 15.695 2.05375 17.3106 2.60375 18.7844M5.045 22.8387C6.08125 23.99 7.31875 24.9181 8.69375 25.5512C10.0434 26.1761 11.5128 26.4997 13 26.4997C14.4872 26.4997 15.9566 26.1761 17.3062 25.5512C18.6812 24.9181 19.9187 23.99 20.955 22.8387M23.3962 18.7844C23.9639 17.2533 24.2531 15.633 24.25 14C24.2532 12.3668 23.964 10.7463 23.3962 9.215M20.955 5.16125C19.9187 4.00937 18.6812 3.08125 17.3062 2.44875C15.9567 1.82383 14.4872 1.50009 13 1.5C9.89375 1.5 7.08125 2.89875 5.045 5.16125" stroke="#222222" stroke-width="2.5" stroke-linecap="round"/>
<path d="M9.25 13.375C9.74728 13.375 10.2242 13.1775 10.5758 12.8258C10.9275 12.4742 11.125 11.9973 11.125 11.5C11.125 11.0027 10.9275 10.5258 10.5758 10.1742C10.2242 9.82254 9.74728 9.625 9.25 9.625C8.75272 9.625 8.27581 9.82254 7.92417 10.1742C7.57254 10.5258 7.375 11.0027 7.375 11.5C7.375 11.9973 7.57254 12.4742 7.92417 12.8258C8.27581 13.1775 8.75272 13.375 9.25 13.375ZM16.75 13.375C17.2473 13.375 17.7242 13.1775 18.0758 12.8258C18.4275 12.4742 18.625 11.9973 18.625 11.5C18.625 11.0027 18.4275 10.5258 18.0758 10.1742C17.7242 9.82254 17.2473 9.625 16.75 9.625C16.2527 9.625 15.7758 9.82254 15.4242 10.1742C15.0725 10.5258 14.875 11.0027 14.875 11.5C14.875 11.9973 15.0725 12.4742 15.4242 12.8258C15.7758 13.1775 16.2527 13.375 16.75 13.375ZM13 20.875C14.7256 20.875 16.125 20.0356 16.125 19C16.125 17.9644 14.7256 17.125 13 17.125C11.2744 17.125 9.875 17.9644 9.875 19C9.875 20.0356 11.2744 20.875 13 20.875Z" stroke="#222222" stroke-width="2"/>
</svg>
