<svg width="31" height="30" viewBox="0 0 31 30" fill="none" xmlns="http://www.w3.org/2000/svg">
<path d="M5.5 8.75V7.5C5.5 6.83696 5.76339 6.20107 6.23223 5.73223C6.70107 5.26339 7.33696 5 8 5H10.5M5.5 21.25V22.5C5.5 23.163 5.76339 23.7989 6.23223 24.2678C6.70107 24.7366 7.33696 25 8 25H10.5M20.5 5H23C23.663 5 24.2989 5.26339 24.7678 5.73223C25.2366 6.20107 25.5 6.83696 25.5 7.5V8.75M20.5 25H23C23.663 25 24.2989 24.7366 24.7678 24.2678C25.2366 23.7989 25.5 23.163 25.5 22.5V21.25M6.75 15H24.25" stroke="white" stroke-width="2.5" stroke-linecap="round" stroke-linejoin="round"/>
</svg>
