<svg width="24" height="24" viewBox="0 0 24 24" fill="none" xmlns="http://www.w3.org/2000/svg">
<path d="M4 10.059V13.483C4 15.336 4 16.263 4.221 17.019C4.748 18.819 6.156 20.235 7.956 20.865C8.556 21.041 9.152 21.228 10.3 21.397C10.97 21.4927 11.6517 21.4703 12.314 21.331C12.617 21.269 12.864 21.216 13.072 21.171C13.562 21.065 14.052 20.938 14.502 20.717C15.01 20.469 15.405 20.211 15.977 19.784C16.319 19.529 16.632 19.218 17.257 18.596L20.504 15.366C20.6612 15.2098 20.786 15.0241 20.8711 14.8196C20.9563 14.615 21.0001 14.3956 21.0001 14.174C21.0001 13.9524 20.9563 13.733 20.8711 13.5284C20.786 13.3239 20.6612 13.1381 20.504 12.982C20.1855 12.6657 19.7549 12.4881 19.306 12.4881C18.8571 12.4881 18.4265 12.6657 18.108 12.982L15.858 15.221V10.059" stroke="#FF9500" stroke-width="1.5" stroke-linecap="round" stroke-linejoin="round"/>
<path d="M12.893 7.852V5.95C12.893 5.135 13.557 4.475 14.376 4.475C15.194 4.475 15.858 5.135 15.858 5.95V10.374M9.929 10.055V3.95C9.929 3.135 10.593 2.475 11.411 2.475C12.23 2.475 12.893 3.135 12.893 3.95V10.059M6.964 7.32V10.059V4.955C6.97404 4.56848 7.13464 4.20117 7.41156 3.93134C7.68849 3.66151 8.05985 3.5105 8.4465 3.5105C8.83315 3.5105 9.20451 3.66151 9.48144 3.93134C9.75836 4.20117 9.91896 4.56848 9.929 4.955V10.059M6.964 8.854V7.95C6.964 7.135 6.301 6.475 5.482 6.475C4.664 6.475 4 7.135 4 7.95V10.688" stroke="#FF9500" stroke-width="1.5" stroke-linecap="round" stroke-linejoin="round"/>
</svg>
